<svg width="128" height="28" fill="none" xmlns="http://www.w3.org/2000/svg"><g clip-path="url(#clip0_409_6069)"><path d="M74.02 8.42C75.16 3.84 72.38.05 65.57.05H50.81l-5.53 22.4 3.21 5.51h10.5c6.88 0 12.21-3.21 13.58-8.79.69-2.86-.11-4.86-1.91-5.86v-.07a7.78 7.78 0 003.36-4.82zm-9 10.57c-.28 1.17-1.07 2.37-4.34 2.37h-6.7l1.17-4.8h6.67c3.23-.01 3.47 1.22 3.16 2.43h.04zm1.34-10.42c-.24.9-.93 2-3.75 2h-6l1-3.9h6c2.85-.02 2.99.9 2.75 1.9zm16.95 8.58h13.44l1.53-6.6H84.93l1.04-3.9h13.22l1.53-6.6h-21.7l-6.88 27.9h24.58l1.61-6.6H82.32l.99-4.2zM102.6.05l-1.54 6.6h8.03l-5.27 21.3h8.43l5.28-21.3h8.6l1.65-6.6H102.6z" fill="#007ACC"/><path d="M9.04 27.95H.54l3.68-14.9.85-2.25-2.25 2.25-2.5 2.53-.1-7.44L9.04.05h6.87l-6.87 27.9z" fill="#002F5E"/><path d="M39.73 16.39l-2.71-4.59L50.17.05H37.92l-5 4.8L15.96 20.4l-8.14 7.55h11.59l8.71-7.77 2.93 5c1 1.26 2.41 2.79 8.39 2.79h7l-6.7-11.59-.01.01zM31.98 3.31v-.06a7.69 7.69 0 00-6.64-3.2h-9.05l6.75 11.48 8.94-8.22z" fill="#002F5E"/></g><defs><clipPath id="clip0_409_6069"><path fill="#fff" transform="translate(.22 .05)" d="M0 0h127.56v27.9H0z"/></clipPath></defs></svg>