<svg width="28" height="28" fill="none" xmlns="http://www.w3.org/2000/svg"><path d="M5.654 4.668A1.695 1.695 0 004.25 7.224l2.165 3.787c-2.496 2.172-4.082 5.362-4.082 8.932a3.39 3.39 0 003.39 3.39h16.951a3.39 3.39 0 003.39-3.39c0-3.57-1.585-6.76-4.082-8.932l2.166-3.787A1.695 1.695 0 1021.2 5.542L19.128 9.17a11.827 11.827 0 00-4.93-1.08c-1.76.001-3.426.393-4.929 1.08L7.197 5.542a1.695 1.695 0 00-1.543-.874zm3.46 10.19a1.696 1.696 0 11-.002 3.391 1.696 1.696 0 01.002-3.391zm10.17 0a1.696 1.696 0 11-.001 3.391 1.696 1.696 0 01.001-3.391z" fill="#878B90"/></svg>