<svg width="28" height="28" fill="none" xmlns="http://www.w3.org/2000/svg"><g clip-path="url(#clip0_97_5942)"><path d="M18.958 25.667c-1.037 0-1.75-.337-2.38-.634-.606-.286-1.13-.533-1.995-.533-.864 0-1.388.247-1.995.533-.63.297-1.342.634-2.38.634-2.523 0-6.708-5.792-6.708-11.959 0-4.089 2.819-7.291 6.417-7.291 1.182 0 1.9.339 2.535.637.602.284 1.122.53 2.131.53 1.01 0 1.53-.246 2.132-.53.634-.298 1.353-.637 2.535-.637 1.554 0 2.936.573 4.108 1.704a.875.875 0 01-.168 1.386c-1.351.785-2.19 2.45-2.19 4.347 0 2.136 1.169 3.972 2.909 4.568a.873.873 0 01.526 1.16c-1.416 3.468-3.771 6.085-5.477 6.085zM14.875 5.833a.874.874 0 01-.871-.955c.007-.071.176-1.776 1.512-3.139C16.773.456 17.996.074 18.131.034a.874.874 0 011.11.964c-.02.14-.227 1.421-1.302 2.858-1.15 1.538-2.794 1.938-2.864 1.954a.868.868 0 01-.2.023z" fill="#878B90"/></g><defs><clipPath id="clip0_97_5942"><path fill="#fff" d="M0 0h28v28H0z"/></clipPath></defs></svg>