<svg width="33" height="32" viewBox="0 0 33 32" fill="none" xmlns="http://www.w3.org/2000/svg">
<path d="M12.4668 2.66602C10.9269 2.66602 9.66891 3.83691 9.50065 5.33268H7.80013C6.52349 5.33268 5.4668 6.38938 5.4668 7.66602V11.666C5.4668 14.0473 7.41884 15.9993 9.80013 15.9993H9.83268C10.724 18.7812 13.1641 20.8702 16.1335 21.2598V23.3327H13.8001C11.4108 23.3327 9.4668 25.2767 9.4668 27.666V28.3327C9.4668 28.8853 9.91413 29.3327 10.4668 29.3327H23.8001C24.3528 29.3327 24.8001 28.8853 24.8001 28.3327V27.666C24.8001 25.2767 22.8561 23.3327 20.4668 23.3327H18.1335V21.2598C21.1028 20.8702 23.5429 18.7812 24.4342 15.9993H24.4668C26.8481 15.9993 28.8001 14.0473 28.8001 11.666V7.66602C28.8001 6.38938 27.7434 5.33268 26.4668 5.33268H24.7663C24.598 3.83691 23.3401 2.66602 21.8001 2.66602H12.4668ZM7.80013 7.33268H9.4668V13.666C9.4668 13.768 9.47845 13.8671 9.48242 13.9681C8.33719 13.8144 7.4668 12.8571 7.4668 11.666V7.66602C7.4668 7.46932 7.60343 7.33268 7.80013 7.33268ZM24.8001 7.33268H26.4668C26.6635 7.33268 26.8001 7.46932 26.8001 7.66602V11.666C26.8001 12.8571 25.9297 13.8144 24.7845 13.9681C24.7885 13.8671 24.8001 13.768 24.8001 13.666V7.33268Z" fill="#303944"/>
</svg>
