<svg width="24" height="24" viewBox="0 0 24 24" fill="none" xmlns="http://www.w3.org/2000/svg">
<path d="M8.75 2C7.59505 2 6.65159 2.87817 6.52539 4H5.25C4.29252 4 3.5 4.79252 3.5 5.75V8.75C3.5 10.536 4.96403 12 6.75 12H6.77441C7.4429 14.0864 9.27301 15.6531 11.5 15.9453V17.5H9.75C7.958 17.5 6.5 18.958 6.5 20.75V21.25C6.5 21.6645 6.8355 22 7.25 22H17.25C17.6645 22 18 21.6645 18 21.25V20.75C18 18.958 16.542 17.5 14.75 17.5H13V15.9453C15.227 15.6531 17.0571 14.0864 17.7256 12H17.75C19.536 12 21 10.536 21 8.75V5.75C21 4.79252 20.2075 4 19.25 4H17.9746C17.8484 2.87817 16.9049 2 15.75 2H8.75ZM5.25 5.5H6.5V10.25C6.5 10.3265 6.50874 10.4008 6.51172 10.4766C5.6528 10.3613 5 9.64334 5 8.75V5.75C5 5.60248 5.10248 5.5 5.25 5.5ZM18 5.5H19.25C19.3975 5.5 19.5 5.60248 19.5 5.75V8.75C19.5 9.64334 18.8472 10.3613 17.9883 10.4766C17.9913 10.4008 18 10.3265 18 10.25V5.5Z" fill="#303944"/>
</svg>
