<svg width="25" height="24" viewBox="0 0 25 24" fill="none" xmlns="http://www.w3.org/2000/svg">
<path d="M20.583 3.5H5.08301C3.56701 3.5 2.33301 4.7335 2.33301 6.25V17.75C2.33301 19.2665 3.56701 20.5 5.08301 20.5H20.583C22.099 20.5 23.333 19.2665 23.333 17.75V6.25C23.333 4.7335 22.099 3.5 20.583 3.5ZM10.083 8C10.7735 8 11.333 8.5595 11.333 9.25C11.333 9.9405 10.7735 10.5 10.083 10.5C9.39251 10.5 8.83301 9.9405 8.83301 9.25C8.83301 8.5595 9.39251 8 10.083 8ZM15.583 16C14.8925 16 14.333 15.4405 14.333 14.75C14.333 14.0595 14.8925 13.5 15.583 13.5C16.2735 13.5 16.833 14.0595 16.833 14.75C16.833 15.4405 16.2735 16 15.583 16ZM16.6135 9.2805L10.1135 15.7805C9.96701 15.927 9.77501 16 9.58301 16C9.39101 16 9.19901 15.927 9.05251 15.7805C8.75951 15.488 8.75951 15.0125 9.05251 14.72L15.5525 8.22C15.8455 7.927 16.32 7.927 16.613 8.22C16.906 8.5125 16.906 8.9875 16.6135 9.2805Z" fill="#303944"/>
</svg>
