<svg width="16" height="16" fill="none" xmlns="http://www.w3.org/2000/svg"><path d="M11.783 9.367a.649.649 0 00-.188.572l.524 2.9a.637.637 0 01-.265.637.65.65 0 01-.69.047l-2.61-1.362a.668.668 0 00-.295-.077h-.16a.478.478 0 00-.16.053l-2.61 1.368a.688.688 0 01-.419.065.655.655 0 01-.524-.749l.524-2.9a.66.66 0 00-.188-.577L2.594 7.28a.636.636 0 01-.159-.666.662.662 0 01.524-.442l2.93-.425a.655.655 0 00.518-.36l1.291-2.646a.613.613 0 01.118-.159l.053-.041a.395.395 0 01.095-.077l.064-.023.1-.042h.249a.66.66 0 01.518.354l1.308 2.635a.655.655 0 00.49.359l2.93.425a.668.668 0 01.536.442.64.64 0 01-.171.666l-2.205 2.087z" fill="#FED200"/></svg>