<svg width="25" height="24" viewBox="0 0 25 24" fill="none" xmlns="http://www.w3.org/2000/svg">
<path d="M21.1665 8H16.1665V3H18.1665C19.8235 3 21.1665 4.343 21.1665 6V8ZM9.6665 3H14.6665V8H9.6665V3ZM9.6665 9.5H14.6665V14.5H9.6665V9.5ZM16.1665 9.5H21.1665V14.5H16.1665V9.5ZM9.6665 16H14.6665V21H9.6665V16ZM8.1665 8H3.1665V6C3.1665 4.343 4.5095 3 6.1665 3H8.1665V8ZM8.1665 21H6.1665C4.5095 21 3.1665 19.657 3.1665 18V16H8.1665V21ZM16.1665 21H18.1665C19.8235 21 21.1665 19.657 21.1665 18V16H16.1665V21ZM3.1665 9.5H8.1665V14.5H3.1665V9.5Z" fill="#303944"/>
</svg>
