<svg width="33" height="32" viewBox="0 0 33 32" fill="none" xmlns="http://www.w3.org/2000/svg">
<path d="M28.6001 10.6667H21.9334V4H24.6001C26.8094 4 28.6001 5.79067 28.6001 8V10.6667ZM13.2668 4H19.9334V10.6667H13.2668V4ZM13.2668 12.6667H19.9334V19.3333H13.2668V12.6667ZM21.9334 12.6667H28.6001V19.3333H21.9334V12.6667ZM13.2668 21.3333H19.9334V28H13.2668V21.3333ZM11.2668 10.6667H4.6001V8C4.6001 5.79067 6.39076 4 8.6001 4H11.2668V10.6667ZM11.2668 28H8.6001C6.39076 28 4.6001 26.2093 4.6001 24V21.3333H11.2668V28ZM21.9334 28H24.6001C26.8094 28 28.6001 26.2093 28.6001 24V21.3333H21.9334V28ZM4.6001 12.6667H11.2668V19.3333H4.6001V12.6667Z" fill="#303944"/>
</svg>
