<svg width="28" height="28" fill="none" xmlns="http://www.w3.org/2000/svg"><path d="M14 2.333c-3.628 0-6.866 1.65-9 4.247l3.382 5.863C9.07 9.98 11.322 8.167 14 8.167h10.098A11.643 11.643 0 0014 2.333zM3.897 8.173A11.547 11.547 0 002.333 14a11.656 11.656 0 009.736 11.504l3.39-5.863a5.747 5.747 0 01-1.459.192 5.832 5.832 0 01-5.046-2.922l-.006.006-5.051-8.745zM14 9.916a4.083 4.083 0 100 8.166 4.083 4.083 0 000-8.166zm4.16 0a5.797 5.797 0 01.886 6.994l.006.006L14 25.667c6.446 0 11.667-5.221 11.667-11.667 0-1.435-.263-2.812-.735-4.083H18.16z" fill="#878B90"/></svg>