<svg width="122" height="32" fill="none" xmlns="http://www.w3.org/2000/svg"><path d="M84.837 8.976a5.217 5.217 0 012.321 1.911 5.543 5.543 0 010 5.793 5.274 5.274 0 01-2.32 1.927 8.82 8.82 0 01-3.562.666h-3.547v4.504h-2.92V8.31h6.467a8.819 8.819 0 013.561.666zm-.802 7.241a2.898 2.898 0 00.992-2.288 2.877 2.877 0 00-.992-2.303 4.404 4.404 0 00-2.92-.796H77.73v6.198h3.415a4.49 4.49 0 002.89-.883v.072zm15.225-3.085a4.895 4.895 0 011.46 3.794v6.981h-2.818V22.46a3.432 3.432 0 01-1.46 1.188 6.028 6.028 0 01-2.306.42 5.63 5.63 0 01-2.35-.392 3.512 3.512 0 01-1.562-1.26 3.212 3.212 0 01-.555-1.839 3.049 3.049 0 01.246-1.496 3.07 3.07 0 01.936-1.197 5.874 5.874 0 013.796-.97h3.152v-.175a2.486 2.486 0 00-.744-1.926 3.361 3.361 0 00-2.175-.623 6.057 6.057 0 00-1.985.319 4.625 4.625 0 00-1.65.869l-1.094-2.028a6.562 6.562 0 012.262-1.1 10.722 10.722 0 012.803-.377 5.87 5.87 0 014.043 1.26zm-2.555 8.429a2.742 2.742 0 001.153-1.376v-1.448H94.88c-1.62 0-2.438.521-2.438 1.579a1.44 1.44 0 00.614 1.202c.498.32 1.085.477 1.678.448.663.04 1.324-.1 1.912-.405h.059zm7.196-11.991a1.59 1.59 0 01-.511-1.202 1.54 1.54 0 01.511-1.188 1.791 1.791 0 011.285-.478c.469-.013.927.147 1.284.45a1.44 1.44 0 01.511 1.159 1.73 1.73 0 01-.496 1.23 1.811 1.811 0 01-1.299.507 1.794 1.794 0 01-1.285-.478zm-.131 2.433h2.788v11.904h-2.788V12.003zm18.231-4.635v16.54h-2.7v-1.536a4.374 4.374 0 01-1.723 1.333 5.88 5.88 0 01-2.248.42 6.494 6.494 0 01-3.109-.753 5.643 5.643 0 01-2.175-2.158 6.539 6.539 0 01-.788-3.331 6.53 6.53 0 01.788-3.186 5.51 5.51 0 012.175-2.144 6.495 6.495 0 013.095-.724 5.57 5.57 0 012.175.406 4.116 4.116 0 011.678 1.202V7.368h2.832zm-4.51 13.86c.537-.308.977-.76 1.27-1.303.35-.623.517-1.33.481-2.042a3.81 3.81 0 00-.481-1.955 3.233 3.233 0 00-1.27-1.304 3.793 3.793 0 00-3.65 0 3.36 3.36 0 00-1.284 1.304 4.304 4.304 0 00-.467 1.955c0 .683.16 1.358.467 1.97.302.54.746.99 1.284 1.303a3.952 3.952 0 003.65 0v.072zM38.361 9.845a2.087 2.087 0 01-.715-1.608 2.071 2.071 0 01.715-1.607 2.773 2.773 0 011.884-.638 2.83 2.83 0 011.883.609 1.972 1.972 0 01.73 1.564 2.128 2.128 0 01-.73 1.665 3.036 3.036 0 01-3.767 0v.015zm-.248 1.984h4.219v12.078h-4.219V11.83zm18.611 1.13a5.421 5.421 0 011.46 4.04v6.908h-4.38v-6.213c0-1.65-.656-2.476-1.999-2.476a2.294 2.294 0 00-1.766.71 3.083 3.083 0 00-.657 2.143v5.793h-4.13V11.829h4.057v1.318a4.806 4.806 0 011.65-1.057 5.764 5.764 0 012.16-.392 5.09 5.09 0 013.605 1.26zm5.474 10.717a8.202 8.202 0 01-2.35-.811l1.27-2.896a7.432 7.432 0 001.985.81 8.442 8.442 0 002.262.305c.497.03.994-.045 1.46-.218a.7.7 0 00.438-.608c0-.275-.175-.463-.526-.58a12.53 12.53 0 00-1.693-.347 17.844 17.844 0 01-2.481-.463 4.038 4.038 0 01-1.766-.985 3.07 3.07 0 01-.73-2.187 3.31 3.31 0 01.686-2.158 4.552 4.552 0 012.014-1.448 8.57 8.57 0 013.197-.521c.883-.003 1.764.09 2.627.275.76.135 1.495.39 2.175.753l-1.27 2.896a7.124 7.124 0 00-3.518-.883 3.367 3.367 0 00-1.46.232.686.686 0 00-.466.608c0 .29.16.478.51.594.56.16 1.13.276 1.708.347a18.58 18.58 0 012.496.507 4.091 4.091 0 011.723 1.058c.511.6.772 1.372.73 2.157a3.284 3.284 0 01-.686 2.115 4.802 4.802 0 01-2.058 1.448 9.646 9.646 0 01-3.27.507 13.228 13.228 0 01-3.007-.507zm-38.36.318l-.116.13a11.575 11.575 0 01-5.912 3.134c-2.24.441-4.56.214-6.67-.653a11.527 11.527 0 01-5.18-4.22 11.392 11.392 0 01-1.946-6.363c0-2.266.677-4.48 1.945-6.364a11.527 11.527 0 015.18-4.22 11.63 11.63 0 016.67-.652 11.575 11.575 0 015.913 3.133l2.92-2.897a15.658 15.658 0 00-8-4.225 15.733 15.733 0 00-9.016.892 15.593 15.593 0 00-7 5.708A15.41 15.41 0 000 16c0 3.062.914 6.056 2.628 8.603a15.593 15.593 0 007 5.708 15.733 15.733 0 009.016.892 15.658 15.658 0 007.998-4.225l.248-.275-3.05-2.709z" fill="#303944"/><path d="M15.561 19.968a4.006 4.006 0 01-2.905-.918 3.933 3.933 0 01-.475-5.57 3.995 3.995 0 012.709-1.39h.671a3.91 3.91 0 012.803 1.158l3.007-3.041a8.253 8.253 0 00-4.216-2.222 8.293 8.293 0 00-4.75.473 8.218 8.218 0 00-3.687 3.01A8.123 8.123 0 007.334 16a8.13 8.13 0 001.384 4.533 8.22 8.22 0 003.687 3.009 8.293 8.293 0 004.75.473 8.254 8.254 0 004.216-2.222l-3.022-2.998a4 4 0 01-2.788 1.173zm10.174 3.346a6.098 6.098 0 01-2.442-2.237 6.033 6.033 0 010-6.346 6.098 6.098 0 012.442-2.236 7.464 7.464 0 013.46-.796 7.582 7.582 0 013.561.796 5.94 5.94 0 012.496 2.202 6.09 6.09 0 01.876 3.215 5.946 5.946 0 01-.859 3.212 6.01 6.01 0 01-2.455 2.262 7.773 7.773 0 01-3.561.797 7.608 7.608 0 01-3.518-.87zm5.372-3.346a3.027 3.027 0 00.715-2.085 2.882 2.882 0 00-.715-2.086 2.594 2.594 0 00-3.65 0 2.893 2.893 0 00-.759 2.086c-.047.774.21 1.537.716 2.129a2.54 2.54 0 001.802.744 2.558 2.558 0 001.803-.744h.088v-.044z" fill="#303944"/></svg>