<svg width="25" height="24" viewBox="0 0 25 24" fill="none" xmlns="http://www.w3.org/2000/svg">
<g clip-path="url(#clip0_676_5118)">
<path d="M20.7545 18.2712C20.8251 18.2195 20.8253 18.2082 20.7593 18.0093C20.7213 17.8949 20.6579 17.7614 20.6184 17.7127C20.5559 17.6355 20.5536 17.6106 20.6006 17.5199C20.6303 17.4627 20.6731 17.4135 20.6956 17.4108C20.7182 17.408 20.7708 17.4034 20.8127 17.4007C20.9047 17.3946 20.9501 17.25 20.8934 17.144C20.8642 17.0895 20.8666 17.0499 20.9015 17.0077C20.9516 16.9474 20.9502 16.9416 20.8167 16.6594C20.7771 16.5756 20.7759 16.5363 20.8118 16.493C20.8482 16.4492 20.845 16.4249 20.7977 16.3857C20.7641 16.3578 20.7366 16.2917 20.7366 16.2389C20.7366 16.186 20.7228 16.1428 20.7059 16.1428C20.6707 16.1428 20.5545 16.3123 20.5644 16.3492C20.5681 16.3627 20.526 16.3978 20.4709 16.4273C20.4158 16.4568 20.3601 16.5231 20.3472 16.5745C20.3343 16.626 20.3088 16.6682 20.2906 16.6682C20.2723 16.6682 20.2312 16.6944 20.1992 16.7264C20.1143 16.8113 19.988 16.761 19.9067 16.6101C19.8562 16.5163 19.8054 16.477 19.7305 16.4737C19.6726 16.4712 19.5562 16.4625 19.4719 16.4543C19.3875 16.446 19.3098 16.4533 19.2992 16.4704C19.2709 16.5162 19.1246 16.4792 19.0083 16.3967C18.8643 16.2947 18.8275 16.2736 18.7361 16.2412C18.6594 16.2139 18.6601 16.2112 18.7499 16.1875L18.8444 16.1624L18.7398 16.0495C18.6822 15.9874 18.6351 15.9193 18.6351 15.8982C18.6351 15.8771 18.6161 15.8599 18.5929 15.8599C18.5697 15.8599 18.5015 15.8135 18.4414 15.7569C18.339 15.6605 18.3126 15.6552 18.0289 15.6749C17.5942 15.705 17.544 15.7137 17.5434 15.7589C17.5432 15.7811 17.4795 15.8404 17.402 15.8906C17.2417 15.9944 17.2253 16.0606 17.3419 16.1334C17.4322 16.1899 17.4518 16.3805 17.375 16.4572C17.3487 16.4835 17.3256 16.6275 17.3234 16.7785C17.3199 17.0194 17.306 17.0664 17.2067 17.172L17.094 17.292L16.9154 17.2278C16.7689 17.1751 16.7242 17.1728 16.6663 17.2152C16.6087 17.2573 16.5756 17.2564 16.486 17.21C16.3874 17.159 16.3617 17.1619 16.2324 17.2382C16.1533 17.2849 16.078 17.3649 16.0652 17.4161C16.0487 17.4817 16.0028 17.5165 15.9093 17.534C15.8365 17.5477 15.7446 17.5944 15.7053 17.6379C15.6659 17.6814 15.615 17.7055 15.5922 17.6914C15.5694 17.6773 15.446 17.6695 15.3181 17.6741C15.1247 17.6811 15.0718 17.6677 15.0035 17.5944C14.9501 17.5371 14.8922 17.5139 14.8379 17.5281C14.7817 17.5428 14.7408 17.5247 14.713 17.4728C14.6614 17.3762 14.3754 17.3668 14.2043 17.456C14.1407 17.4892 14.055 17.5165 14.0139 17.5166C13.9292 17.5169 13.7047 17.2946 13.7047 17.2105C13.7047 17.1504 13.5047 17.0319 13.4034 17.0319C13.3033 17.0319 13.0415 16.8769 13.0109 16.7995C12.9881 16.742 12.9824 16.7466 12.9801 16.824C12.9785 16.8763 12.9317 16.9732 12.8762 17.0393C12.7711 17.1642 12.7435 17.3479 12.8187 17.423C12.8498 17.4541 12.8323 17.4965 12.7574 17.5714C12.6723 17.6564 12.6279 17.6715 12.5219 17.6515C12.45 17.6379 12.3693 17.6095 12.3425 17.5885C12.3157 17.5675 12.2772 17.5605 12.2569 17.573C12.2152 17.5988 12.1134 17.4928 12.0743 17.3829C12.0549 17.3284 12.0145 17.3129 11.9166 17.3223C11.8442 17.3293 11.7668 17.3132 11.7446 17.2865C11.7136 17.2493 11.6523 17.2577 11.4819 17.3225C11.3597 17.369 11.2079 17.4051 11.1447 17.4027C11.0623 17.3995 11.0358 17.4141 11.0512 17.4542C11.0752 17.5168 11.0119 17.5489 10.7984 17.5827C10.7187 17.5954 10.6409 17.6134 10.6256 17.6228C10.6102 17.6322 10.5557 17.5952 10.5043 17.5406C10.4482 17.4809 10.3551 17.4362 10.2708 17.4286C10.1516 17.4177 10.125 17.3961 10.0932 17.2845C10.0726 17.2122 10.0311 17.1531 10.001 17.1531C9.96699 17.1531 9.9462 17.1069 9.9462 17.0312C9.9462 16.9317 9.92024 16.897 9.80435 16.8417C9.70324 16.7935 9.65003 16.7865 9.61908 16.8175C9.55063 16.8859 9.42317 16.8303 9.35755 16.7034C9.29423 16.581 9.17834 16.5451 9.17834 16.648C9.17834 16.6813 9.15107 16.7086 9.11772 16.7086C9.07024 16.7086 9.0571 16.6533 9.0571 16.4532C9.0571 16.3128 9.02859 16.1019 8.99373 15.9845C8.95888 15.8671 8.93879 15.7627 8.94908 15.7524C8.95937 15.7421 8.92424 15.6867 8.871 15.6292C8.75116 15.4999 8.75034 15.4728 8.86514 15.436C8.94418 15.4107 8.93521 15.4028 8.79656 15.3758C8.68166 15.3534 8.62169 15.36 8.5821 15.3996C8.52685 15.4549 8.37315 15.4527 8.23534 15.3948C8.17747 15.3705 8.173 15.3564 8.21494 15.3305C8.25711 15.3044 8.25132 15.2842 8.18802 15.2364C8.14367 15.2029 8.08523 15.1749 8.05814 15.1742C8.03105 15.1734 8.01936 15.1456 8.03215 15.1122C8.04916 15.0679 8.0271 15.0516 7.95006 15.0516C7.8494 15.0516 7.80922 14.9793 7.87391 14.9146C7.88998 14.8986 7.90714 14.8228 7.91203 14.7463C7.91932 14.6323 7.90669 14.6071 7.84241 14.6071C7.79921 14.6071 7.72849 14.5717 7.68524 14.5284C7.62232 14.4655 7.58222 14.4568 7.48462 14.4848C7.35149 14.523 6.98938 14.4586 6.57167 14.3224C6.43831 14.2789 6.30335 14.2433 6.27176 14.2433C6.24017 14.2434 6.18221 14.2143 6.14296 14.1788C6.10371 14.1433 6.05444 14.1248 6.03347 14.1378C5.97128 14.1762 5.94869 14.38 5.99937 14.4454C6.03986 14.4977 6.03691 14.4987 5.9778 14.4524C5.87015 14.3682 5.72103 14.407 5.73262 14.5163C5.7435 14.6189 5.63443 14.6423 5.54507 14.5566C5.50207 14.5153 5.49651 14.5356 5.51468 14.6677C5.56332 15.0212 5.56288 15.0286 5.49259 15.0428C5.45478 15.0505 5.3845 15.0115 5.3364 14.9562C5.28831 14.9009 5.22668 14.8642 5.19945 14.8747C5.1351 14.8993 5.06756 14.8152 5.04994 14.6883C5.04136 14.6266 5.00491 14.5818 4.95556 14.5724C4.91134 14.5639 4.85035 14.5216 4.82002 14.4783C4.78906 14.4341 4.73875 14.4096 4.70525 14.4225C4.67245 14.4351 4.60159 14.4343 4.54779 14.4208C4.4731 14.4021 4.44997 14.3692 4.44997 14.2818C4.44997 14.1418 4.38882 14.095 4.33266 14.192C4.30111 14.2465 4.29442 14.2174 4.30462 14.0702C4.31552 13.9131 4.30362 13.869 4.24127 13.8357C4.19904 13.8131 4.16723 13.7728 4.17057 13.7462C4.1855 13.6273 4.16224 13.5923 4.07614 13.6043C4.00822 13.6137 3.982 13.5943 3.9725 13.5276C3.9612 13.4481 3.9422 13.4407 3.80074 13.4604C3.70737 13.4735 3.6417 13.4661 3.6417 13.4425C3.6417 13.4204 3.56441 13.4062 3.46994 13.411C3.32958 13.4181 3.2959 13.4352 3.28572 13.5048C3.27886 13.5516 3.24635 13.6002 3.21346 13.6128C3.14743 13.6382 3.09591 13.5466 3.12847 13.4617C3.16771 13.3595 3.09886 13.3185 2.92673 13.3415C2.79596 13.3591 2.75384 13.3842 2.73599 13.4554C2.71245 13.5491 2.55053 13.6261 2.55053 13.5436C2.55053 13.5185 2.52168 13.5391 2.48641 13.5895C2.43751 13.6593 2.43325 13.6943 2.46844 13.7367C2.5042 13.7797 2.49815 13.8015 2.44164 13.8333C2.37308 13.8719 2.37437 13.8797 2.46306 13.9626C2.52749 14.0229 2.55011 14.0782 2.53434 14.137C2.52163 14.1844 2.51098 14.2459 2.51067 14.2737C2.51037 14.3015 2.48284 14.3242 2.4495 14.3242C2.37647 14.3242 2.3684 14.4684 2.43899 14.512C2.5516 14.5816 2.28228 14.5905 2.1207 14.5226C1.97443 14.461 1.94001 14.4593 1.8451 14.5085C1.78545 14.5395 1.72427 14.5631 1.70914 14.5609C1.57996 14.5429 1.53945 14.5737 1.54784 14.6839C1.55276 14.7483 1.53369 14.8289 1.50546 14.8629C1.4629 14.9142 1.46747 14.9319 1.53227 14.9666C1.57524 14.9896 1.62188 14.9969 1.63592 14.9828C1.64995 14.9688 1.66144 14.9785 1.66144 15.0045C1.66144 15.0324 1.59677 15.0516 1.50299 15.0516C1.33127 15.0516 1.34167 15.0346 1.27439 15.4255C1.25468 15.54 1.22901 15.577 1.16932 15.577C1.001 15.577 0.933995 15.5025 0.933995 15.3153C0.933995 15.2173 0.914628 15.1253 0.890956 15.1106C0.867285 15.096 0.851025 15.0358 0.854825 14.9769C0.872864 14.6971 0.853216 14.6276 0.737518 14.5618C0.642579 14.5078 0.618506 14.4619 0.600301 14.3004C0.588158 14.1927 0.557866 14.0978 0.532985 14.0895C0.472247 14.0692 0.368206 13.8629 0.368206 13.7627C0.368206 13.7184 0.33379 13.658 0.291726 13.6286C0.226338 13.5828 0.211711 13.503 0.190875 13.0788L0.166504 12.5826L0.264092 12.6879C0.350112 12.7807 0.371648 12.787 0.44577 12.7407C0.513334 12.6985 0.545745 12.6981 0.610687 12.7387C0.683254 12.784 0.691514 12.779 0.691514 12.6902C0.691514 12.6357 0.7097 12.5799 0.731928 12.5662C0.754155 12.5525 0.772483 12.5559 0.772657 12.5739C0.772972 12.6066 0.961953 12.7076 1.02288 12.7076C1.08391 12.7076 1.05525 12.5904 0.984512 12.5507C0.922013 12.5156 0.921202 12.5082 0.977543 12.4864C1.05704 12.4558 1.2573 12.5286 1.2573 12.5881C1.2573 12.6471 1.42923 12.5928 1.47148 12.5205C1.48926 12.4901 1.53018 12.4652 1.56241 12.4652C1.59465 12.4652 1.62102 12.4491 1.62102 12.4295C1.62102 12.4098 1.6574 12.3843 1.70185 12.3726C1.80165 12.3465 1.812 12.1384 1.72207 11.966C1.68901 11.9026 1.67246 11.8089 1.6853 11.7578C1.70486 11.6798 1.6893 11.6606 1.58887 11.6385C1.48562 11.6158 1.47041 11.5955 1.4786 11.4914C1.48383 11.425 1.5271 11.3343 1.57477 11.2899C1.67824 11.1935 1.68004 11.1761 1.59845 11.0596C1.53897 10.9747 1.54115 10.9675 1.63774 10.9308C1.69836 10.9077 1.75117 10.8474 1.76743 10.7826C1.79048 10.6908 1.77074 10.6513 1.64357 10.5348L1.49229 10.3961L1.60463 10.2789C1.73753 10.1401 1.7662 10.1346 1.79439 10.2424C1.80989 10.3017 1.84951 10.3232 1.94293 10.3232C2.02576 10.3232 2.06067 10.3076 2.0427 10.2785C2.00394 10.2158 2.10421 9.91684 2.20028 9.80867C2.24436 9.75904 2.31392 9.7078 2.35486 9.69481C2.4324 9.6702 2.45973 9.49814 2.39267 9.4567C2.37253 9.44425 2.36503 9.39977 2.37599 9.35784C2.38695 9.31592 2.37615 9.2694 2.35199 9.25446C2.28638 9.21392 2.29897 9.11084 2.36954 9.11084C2.40336 9.11084 2.45174 9.06538 2.47706 9.00981C2.50238 8.95424 2.54745 8.90877 2.57723 8.90877C2.607 8.90877 2.63136 8.89123 2.63136 8.86978C2.63136 8.84834 2.67049 8.80985 2.71832 8.78425C2.79238 8.74462 2.80156 8.7474 2.7802 8.80304C2.74678 8.89014 2.8153 8.88649 2.88165 8.79764C2.9107 8.75874 3.0217 8.68581 3.12833 8.63558C3.33903 8.53632 3.4391 8.55469 3.52095 8.70763C3.59345 8.84309 3.64456 8.79949 3.6168 8.62588C3.59884 8.51357 3.60559 8.46423 3.63892 8.46423C3.6653 8.46423 3.67444 8.44409 3.65923 8.41948C3.64119 8.39029 3.65791 8.38303 3.70736 8.39859C3.86803 8.44916 4.22616 8.50464 4.39198 8.50464C4.56533 8.50464 4.71658 8.41473 4.67 8.33937C4.6269 8.26963 4.6957 8.14613 4.78529 8.13241C4.83425 8.12492 4.86976 8.09649 4.86421 8.06923C4.85865 8.04198 4.89047 8.01968 4.93493 8.01968C4.98484 8.01968 5.01588 7.99263 5.01607 7.94895C5.01637 7.88082 5.17897 7.7772 5.28557 7.7772C5.31397 7.7772 5.3692 7.72718 5.4083 7.66606C5.50634 7.51281 5.58435 7.45679 5.70278 7.45455C5.84433 7.45189 5.89057 7.41232 5.92211 7.26687C5.94521 7.16033 5.97237 7.13676 6.09489 7.11687C6.20174 7.09953 6.26932 7.11397 6.34991 7.17136C6.41022 7.2143 6.46855 7.24044 6.47955 7.22944C6.49054 7.21845 6.52369 7.23856 6.55321 7.27413C6.58835 7.31646 6.5926 7.34822 6.56553 7.36604C6.51123 7.40179 6.46802 7.57513 6.51342 7.57513C6.53278 7.57513 6.57045 7.6159 6.59712 7.66574C6.65673 7.77712 6.64618 8.62108 6.58424 8.6957C6.56094 8.72378 6.47387 8.76712 6.39074 8.79203C6.26626 8.82933 6.22224 8.82593 6.14111 8.77277C5.99335 8.67596 5.86226 8.26669 5.86356 7.90632C5.86398 7.79097 5.79502 7.8265 5.73399 7.97309C5.67609 8.11214 5.6734 8.1229 5.66742 8.23923C5.66412 8.30353 5.63092 8.34708 5.57144 8.36511C5.41499 8.41256 5.29865 8.54918 5.29865 8.68546C5.29865 8.75494 5.27683 8.8336 5.25015 8.86028C5.21824 8.8922 5.21663 8.90877 5.24544 8.90877C5.26952 8.90877 5.29873 8.94515 5.31036 8.9896C5.33396 9.07985 5.43797 9.09757 5.48823 9.01991C5.50621 8.99213 5.52092 8.92432 5.52092 8.86924C5.52092 8.80673 5.54708 8.76392 5.59052 8.75536C5.64609 8.74439 5.65908 8.76916 5.65498 8.87822C5.64466 9.1528 5.83473 9.28896 5.91338 9.06333C5.9557 8.94195 5.95732 8.94138 6.18144 8.96938C6.31773 8.98641 6.4264 9.02396 6.45617 9.0643C6.48372 9.10165 6.48874 9.13702 6.46756 9.1446C6.40413 9.16733 6.47014 9.23208 6.55674 9.23208C6.65403 9.23208 6.73925 9.15452 6.75969 9.04736C6.76802 9.00372 6.81406 8.96375 6.86428 8.95659C6.91362 8.94954 6.9889 8.8994 7.03156 8.84516C7.08062 8.7828 7.13292 8.75567 7.17382 8.77136C7.24959 8.80044 7.25261 8.82599 7.19741 8.97116C7.16631 9.05295 7.14371 9.06874 7.10438 9.0361C7.01329 8.9605 6.88448 9.02639 6.86509 9.1585C6.84189 9.31655 6.93172 9.40986 7.07312 9.37459C7.32566 9.31159 7.65359 9.34008 7.75412 9.43374C7.80448 9.48065 7.85074 9.49749 7.86516 9.47415C7.87876 9.45215 7.928 9.43415 7.97459 9.43415C8.05647 9.43415 8.05687 9.43682 7.98683 9.51422C7.92611 9.58131 7.92298 9.60466 7.96747 9.65826C7.99985 9.69729 8.05499 9.7136 8.10882 9.70009C8.16463 9.68608 8.22117 9.70456 8.26263 9.75038C8.30343 9.79546 8.37554 9.81953 8.45359 9.81413C8.5664 9.80632 8.57662 9.81494 8.55529 9.89994C8.53517 9.98008 8.54566 9.99294 8.62429 9.98456C8.75781 9.97032 8.81462 9.92557 8.81462 9.83463C8.81462 9.68977 8.92684 9.70272 9.076 9.86481C9.21744 10.0185 9.28577 10.1485 9.24602 10.1882C9.23473 10.1995 9.26092 10.2442 9.30422 10.2875C9.34751 10.3308 9.39374 10.4202 9.40693 10.4862C9.42013 10.5522 9.45371 10.6061 9.48155 10.6061C9.56476 10.6061 9.63149 10.4948 9.60269 10.4041C9.58782 10.3572 9.59758 10.2931 9.6245 10.2607C9.65887 10.2193 9.65985 10.202 9.62784 10.202C9.5565 10.202 9.57471 10.0832 9.66331 9.97055C9.70776 9.91404 9.74413 9.82479 9.74413 9.77221C9.74413 9.7044 9.76702 9.67663 9.82291 9.67663C9.86624 9.67663 9.98833 9.59479 10.0942 9.49477C10.2001 9.39475 10.2908 9.31291 10.2957 9.31291C10.3006 9.31291 10.3513 9.33065 10.4083 9.35232C10.5483 9.40555 10.5431 9.54164 10.3943 9.71857C10.3089 9.8201 10.2822 9.88717 10.297 9.96301C10.3096 10.0278 10.2929 10.092 10.253 10.1319C10.2176 10.1673 10.1887 10.2123 10.1887 10.2319C10.1887 10.2516 10.1519 10.3437 10.107 10.4367C10.0555 10.5433 10.0347 10.6429 10.0507 10.7066C10.069 10.7795 10.0574 10.8146 10.0088 10.8333C9.97181 10.8474 9.95135 10.8846 9.96331 10.9158C9.97673 10.9507 9.94662 10.9871 9.88481 11.0106C9.82966 11.0315 9.78455 11.066 9.78455 11.0871C9.78455 11.1083 9.72573 11.1549 9.65385 11.1908C9.53224 11.2515 9.51959 11.2511 9.47199 11.186C9.44385 11.1476 9.42082 11.1309 9.42082 11.1489C9.42082 11.167 9.39355 11.1592 9.3602 11.1315C9.3235 11.1011 9.29958 11.0978 9.29958 11.1233C9.29958 11.2262 9.35971 11.3003 9.4861 11.3531C9.60901 11.4045 9.6403 11.4022 9.80443 11.3296C10.0419 11.2245 10.2069 11.0687 10.217 10.9397C10.2278 10.8038 10.2713 10.7653 10.3818 10.7942C10.4851 10.8212 10.5459 10.9925 10.4767 11.0617C10.4203 11.1181 10.4165 11.2932 10.4716 11.2932C10.4938 11.2932 10.5502 11.3313 10.5968 11.378L10.6816 11.4628L10.6515 11.368C10.635 11.3159 10.5925 11.2521 10.5572 11.2263C10.4987 11.1835 10.4992 11.1722 10.563 11.1017C10.6016 11.059 10.6332 10.9848 10.6332 10.9367C10.6332 10.8309 10.4815 10.6468 10.3936 10.6459C10.3587 10.6456 10.3067 10.6304 10.278 10.6123C10.2129 10.5709 10.2749 10.3866 10.3982 10.255C10.4576 10.1915 10.4765 10.1277 10.4649 10.029C10.4489 9.89195 10.5031 9.79787 10.598 9.79787C10.625 9.79787 10.6849 9.76605 10.7311 9.72715C10.8129 9.65825 10.8135 9.65851 10.7523 9.73725C10.7178 9.78171 10.6846 9.87696 10.6786 9.94892C10.6697 10.0557 10.6868 10.0885 10.7717 10.1272C10.8289 10.1532 10.8757 10.1898 10.8757 10.2085C10.8757 10.2272 10.9024 10.2424 10.9351 10.2424C11.0112 10.2424 10.9695 10.121 10.8683 10.0482C10.7795 9.98427 10.7715 9.8787 10.8555 9.8787C10.8888 9.8787 10.9161 9.89688 10.9161 9.91911C10.9161 9.94134 10.9455 9.95953 10.9815 9.95953C11.0261 9.95953 11.0403 9.93483 11.0264 9.88155C11.0115 9.82453 11.0258 9.80506 11.0795 9.80911C11.1199 9.81216 11.1441 9.82906 11.1332 9.84667C11.1223 9.86429 11.1414 9.8787 11.1757 9.8787C11.2099 9.8787 11.2493 9.92432 11.2633 9.98008C11.2788 10.0415 11.3268 10.091 11.3853 10.1057C11.503 10.1352 11.5103 10.1852 11.4011 10.2137C11.3459 10.2282 11.3203 10.2688 11.3203 10.3421C11.3203 10.4097 11.3367 10.4391 11.3647 10.4218C11.3911 10.4055 11.3876 10.4333 11.3561 10.4901C11.327 10.5428 11.3089 10.6041 11.3159 10.6263C11.3313 10.6746 11.3533 10.7761 11.3576 10.8183C11.3621 10.8628 11.4819 10.8554 11.4819 10.8106C11.4819 10.7897 11.4644 10.7618 11.443 10.7485C11.4182 10.7332 11.4182 10.6877 11.443 10.6223C11.4644 10.5661 11.4819 10.4655 11.4819 10.3988C11.4819 10.3321 11.5018 10.2404 11.5261 10.195C11.558 10.1353 11.558 10.1003 11.5261 10.0683C11.5018 10.0441 11.4819 9.998 11.4819 9.966C11.4819 9.934 11.4548 9.88762 11.4218 9.86295C11.3786 9.83074 11.3685 9.77626 11.3861 9.66985L11.4106 9.52163L11.6887 9.52841C11.8848 9.53318 11.9668 9.5505 11.9669 9.58712C11.9669 9.62533 11.9868 9.62837 12.0424 9.59863C12.0996 9.568 12.1158 9.51912 12.1089 9.39722C12.1028 9.28894 12.1186 9.22904 12.1571 9.21424C12.1887 9.20214 12.2044 9.17592 12.1921 9.15598C12.16 9.10415 12.4205 8.9896 12.5703 8.9896C12.6455 8.9896 12.7063 8.965 12.7201 8.92898C12.746 8.8616 12.856 8.84523 12.856 8.90877C12.856 8.931 12.8887 8.94919 12.9287 8.94919C13.0191 8.94919 13.2189 8.85885 13.2194 8.81784C13.2195 8.80117 13.262 8.78753 13.3137 8.78753C13.3943 8.78753 13.4053 8.7709 13.3907 8.67148C13.3691 8.52409 13.5639 8.31689 13.6539 8.39157C13.6984 8.42848 13.6988 8.44317 13.656 8.47076C13.6141 8.49788 13.6157 8.51257 13.6642 8.54443C13.6976 8.56632 13.7476 8.58451 13.7754 8.58485C13.8032 8.58519 13.8259 8.62184 13.8259 8.66629C13.8259 8.76079 13.8987 8.77459 13.9325 8.6865C13.9685 8.59264 14.1472 8.61474 14.301 8.7321C14.408 8.81369 14.4276 8.84666 14.3857 8.87431C14.3413 8.90358 14.3443 8.92044 14.4018 8.96451C14.5034 9.04237 14.4905 9.09723 14.3314 9.26509C14.2538 9.34696 14.1902 9.4328 14.19 9.45585C14.1898 9.47889 14.1078 9.58438 14.0078 9.69027C13.9077 9.79616 13.8265 9.9046 13.8272 9.93126C13.8279 9.95844 13.852 9.94867 13.8822 9.90901C13.9117 9.87011 13.9735 9.83828 14.0196 9.83828C14.0688 9.83828 14.1143 9.80377 14.1299 9.75454C14.1456 9.70516 14.1794 9.67957 14.2123 9.6922C14.243 9.70397 14.2946 9.6871 14.327 9.65471C14.4035 9.57817 14.5383 9.57913 14.568 9.65642C14.5807 9.68977 14.611 9.71704 14.6353 9.71704C14.6595 9.71704 14.6693 9.70085 14.6571 9.68105C14.6245 9.62823 14.8165 9.51498 14.9387 9.51498C14.9967 9.51498 15.0714 9.54226 15.1047 9.5756C15.1828 9.6537 15.3734 9.65307 15.5259 9.57421C15.6282 9.52133 15.6395 9.50038 15.6029 9.43193C15.5435 9.32092 15.5866 9.27102 15.7191 9.29751C15.7934 9.31238 15.8486 9.29854 15.8837 9.25626C15.9313 9.19889 15.9482 9.20098 16.0557 9.27756C16.1246 9.3266 16.1659 9.38616 16.1535 9.41852C16.1412 9.45062 16.1574 9.47456 16.1913 9.47456C16.2593 9.47456 16.2708 9.53823 16.2096 9.576C16.1505 9.61252 16.2077 9.68629 16.275 9.66045C16.3118 9.64633 16.3315 9.6669 16.3315 9.71931C16.3315 9.76922 16.3738 9.8172 16.4427 9.8454C16.6002 9.90993 16.7185 9.90536 16.7009 9.83543C16.6929 9.80366 16.6802 9.71816 16.6726 9.64544C16.6611 9.5344 16.6692 9.51898 16.7232 9.54922C16.816 9.60118 16.9377 9.55806 16.9377 9.47322C16.9377 9.38033 17.0135 9.35427 17.1308 9.40685C17.247 9.45899 17.3606 9.37541 17.2607 9.31123C17.2106 9.27903 17.2153 9.26841 17.2887 9.24828C17.3676 9.22662 17.3719 9.21274 17.3299 9.11694C17.304 9.05802 17.2662 8.998 17.2459 8.98358C17.2255 8.96915 17.2235 8.92368 17.2414 8.88254C17.2592 8.8414 17.272 8.79705 17.2696 8.78399C17.2673 8.77092 17.3417 8.72131 17.435 8.67375C17.5761 8.60178 17.6067 8.59729 17.6176 8.64699C17.6335 8.71957 17.704 8.72662 17.7096 8.65619C17.7118 8.62841 17.7263 8.65114 17.7417 8.70671C17.7853 8.86336 17.8457 8.82612 17.8596 8.63406C17.8698 8.49167 17.8903 8.45345 17.9733 8.42189C18.1219 8.36539 18.1585 8.37427 18.1312 8.46026C18.1086 8.53129 18.1197 8.53422 18.2767 8.49895C18.3701 8.47795 18.4736 8.47116 18.5067 8.48385C18.573 8.50929 18.7563 8.35841 18.7563 8.27842C18.7563 8.25066 18.8034 8.17199 18.861 8.1036C18.948 8.00022 18.9949 7.97926 19.1395 7.97926C19.2569 7.97926 19.321 7.99899 19.3367 8.03988C19.3868 8.17039 19.7009 8.07054 19.6834 7.92965C19.6698 7.81916 19.742 7.6884 19.8365 7.65246C19.891 7.63173 19.9565 7.5594 19.9821 7.49173C20.0151 7.40424 20.0491 7.37407 20.0996 7.38729C20.1387 7.39752 20.1819 7.38782 20.1955 7.36575C20.2092 7.34367 20.254 7.33441 20.2951 7.34516C20.3363 7.35592 20.391 7.33931 20.4168 7.30827C20.4836 7.22768 20.3931 7.13058 20.251 7.13058C20.0918 7.13058 20.075 7.03394 20.2093 6.89017C20.2726 6.82235 20.3162 6.76686 20.306 6.76686C20.2958 6.76686 20.3203 6.70851 20.3605 6.63719C20.4712 6.44048 20.6276 6.3161 20.9993 6.12902C21.066 6.09546 21.1512 6.0416 21.1887 6.00933C21.2262 5.97707 21.2743 5.96144 21.2956 5.9746C21.3169 5.98777 21.3455 5.96948 21.3591 5.93396C21.3742 5.89472 21.4093 5.87913 21.4487 5.89423C21.4967 5.91266 21.5068 5.90181 21.4878 5.85232C21.4652 5.79338 21.4908 5.78813 21.7056 5.80761C21.8982 5.82507 21.949 5.81783 21.949 5.77289C21.949 5.73926 21.9078 5.71611 21.848 5.71611C21.7307 5.71611 21.7229 5.69393 21.8099 5.60698C21.8445 5.57236 21.8636 5.52003 21.8524 5.49069C21.8406 5.46002 21.8697 5.42563 21.9208 5.40977C21.9696 5.3946 22.0596 5.34697 22.1208 5.30392C22.2376 5.22161 22.2333 5.21824 22.2481 5.4029C22.2503 5.43069 22.2703 5.46706 22.2925 5.48373C22.3179 5.50277 22.3108 5.52824 22.2735 5.55226C22.2408 5.57327 22.2237 5.60014 22.2355 5.61196C22.257 5.63343 22.4072 5.66702 22.5071 5.67269C22.5369 5.67438 22.5472 5.69633 22.5308 5.72297C22.5111 5.75477 22.5236 5.7618 22.5688 5.74445C22.6127 5.7276 22.636 5.73924 22.636 5.778C22.636 5.81064 22.6178 5.83735 22.5956 5.83735C22.5734 5.83735 22.559 5.85099 22.5636 5.86766C22.5682 5.88433 22.5179 5.95437 22.4519 6.0233C22.3549 6.12461 22.3187 6.14027 22.2628 6.10502C22.2085 6.07075 22.1807 6.07853 22.1332 6.14134C22.1 6.1853 22.0722 6.26219 22.0715 6.31221C22.0706 6.38132 22.0466 6.40314 21.9716 6.40314C21.9173 6.40314 21.8617 6.38495 21.848 6.36272C21.8108 6.30257 21.7589 6.31376 21.7303 6.38806C21.6991 6.46947 21.8212 6.56954 21.9168 6.54082C21.9664 6.5259 22.009 6.56594 22.0695 6.68449C22.1612 6.86437 22.1382 6.97013 21.99 7.04944C21.9402 7.07609 21.9208 7.11536 21.9368 7.15707C21.96 7.21756 21.9658 7.21751 22.0105 7.15646C22.0371 7.12 22.0979 7.09017 22.1454 7.09017C22.193 7.09017 22.2319 7.07075 22.2319 7.04703C22.2319 6.99673 22.4003 7.03975 22.439 7.09993C22.4549 7.12463 22.4742 7.12309 22.4911 7.09577C22.5255 7.0402 22.8088 7.04829 22.8463 7.10591C22.8797 7.15714 22.7271 7.33265 22.6492 7.33265C22.5826 7.33265 22.5784 7.40101 22.6437 7.42277C22.6737 7.43275 22.6959 7.5502 22.7027 7.73361C22.7086 7.89576 22.733 8.08744 22.7568 8.15958C22.7806 8.23171 22.8071 8.3275 22.8158 8.37244C22.8244 8.41738 22.8497 8.52007 22.872 8.60064C22.9103 8.73947 22.9074 8.74712 22.8157 8.74712C22.6953 8.74712 22.5978 8.91987 22.5888 9.14916C22.5833 9.28866 22.5738 9.30472 22.5219 9.26186C22.4692 9.21841 22.4643 9.23433 22.4842 9.38363C22.5009 9.50866 22.4929 9.55539 22.455 9.55539C22.3682 9.55539 22.3497 9.72681 22.4252 9.83147C22.4634 9.88429 22.54 10.0118 22.5956 10.1149C22.6963 10.3016 22.8381 10.3897 22.8381 10.2656C22.8381 10.2306 22.8675 10.202 22.9034 10.202C22.948 10.202 22.9623 10.2267 22.9485 10.2796C22.9334 10.3374 22.9554 10.3649 23.0347 10.3873C23.0933 10.4038 23.1567 10.4137 23.1757 10.4093C23.1947 10.4049 23.2447 10.4122 23.2868 10.4256C23.3776 10.4544 23.3903 10.5657 23.3029 10.5657C23.2695 10.5657 23.2422 10.5996 23.2422 10.6411C23.2422 10.7496 23.3961 10.9295 23.4889 10.9295C23.5837 10.9295 23.6351 11.0377 23.5709 11.1019C23.5457 11.1271 23.5251 11.2142 23.5251 11.2956C23.5251 11.4045 23.5507 11.4627 23.6221 11.5163C23.7142 11.5855 23.7163 11.5967 23.6643 11.7442C23.6207 11.8677 23.62 11.8994 23.6608 11.8994C23.7279 11.8994 23.8888 12.2703 23.8888 12.4251C23.8888 12.584 23.7847 12.5858 23.637 12.4293C23.5764 12.3651 23.4494 12.2722 23.3549 12.2229C23.0179 12.0473 22.3935 11.4708 22.3935 11.3353C22.3935 11.2276 22.3091 11.0507 22.2577 11.0507C22.2323 11.0507 22.2348 11.0316 22.2642 11.0022C22.3359 10.9305 22.3267 10.5064 22.2521 10.4445C22.2188 10.4168 22.1915 10.3611 22.1915 10.3207C22.1915 10.2803 22.1724 10.2354 22.1491 10.221C22.1196 10.2027 22.1196 10.1793 22.1493 10.1435C22.1797 10.1069 22.1718 10.0382 22.122 9.90363C22.0638 9.74666 22.0608 9.70111 22.1039 9.63204C22.1627 9.53785 22.1382 9.49048 21.9356 9.30738C21.8626 9.2414 21.8177 9.16059 21.8177 9.0952C21.8177 8.97333 21.7594 8.95834 21.682 9.06032C21.607 9.15903 21.6129 9.22174 21.7065 9.32222C21.7523 9.37134 21.7873 9.46484 21.7873 9.53775C21.7873 9.60858 21.7985 9.72204 21.812 9.7899C21.8319 9.88925 21.8238 9.91138 21.7706 9.90357C21.7343 9.89824 21.6767 9.85409 21.6426 9.80546C21.5711 9.70328 21.5045 9.68988 21.5045 9.77766C21.5045 9.81101 21.4755 9.83828 21.4401 9.83828C21.4046 9.83828 21.3661 9.87466 21.3545 9.91911C21.3429 9.96357 21.3188 9.99994 21.3009 9.99994C21.2436 9.99994 21.2116 10.2423 21.261 10.3019C21.2867 10.3328 21.3181 10.4639 21.3308 10.5932C21.3435 10.7226 21.38 10.8801 21.4119 10.9432C21.4676 11.0534 21.4729 11.0552 21.5478 10.9874C21.5934 10.9461 21.6257 10.9364 21.6257 10.9639C21.6257 10.9897 21.5802 11.0503 21.5247 11.0987C21.4691 11.147 21.4236 11.2117 21.4236 11.2426C21.4236 11.2794 21.3971 11.2902 21.3462 11.274C21.3036 11.2605 21.2581 11.2667 21.2451 11.2877C21.2321 11.3088 21.1851 11.3165 21.1407 11.3049C21.0845 11.2902 21.0599 11.3037 21.0599 11.3491C21.0599 11.385 21.0463 11.4123 21.0296 11.4096C20.9094 11.3907 20.8535 11.426 20.8318 11.5347C20.807 11.6585 20.7516 11.722 20.6009 11.7991C20.5533 11.8235 20.517 11.8749 20.5202 11.9133C20.5242 11.9615 20.5117 11.9711 20.4796 11.9445C20.448 11.9183 20.385 11.95 20.2832 12.0433C20.0565 12.2511 19.996 12.3624 20.0253 12.5184C20.0392 12.5923 20.0368 12.6665 20.0201 12.6832C20.0033 12.7 19.9864 12.8042 19.9824 12.9149C19.9784 13.0255 19.9556 13.1395 19.9319 13.1681C19.9081 13.1967 19.8905 13.3388 19.8926 13.4838C19.8948 13.6288 19.8765 13.7851 19.8518 13.8311C19.8272 13.8771 19.8071 13.9603 19.8071 14.016C19.8071 14.0718 19.7889 14.1286 19.7667 14.1423C19.7444 14.1561 19.7263 14.2026 19.7263 14.2457C19.7263 14.3056 19.7544 14.3242 19.8451 14.3242C19.9105 14.3242 19.9751 14.3061 19.9888 14.2841C20.0025 14.2619 20.0572 14.2936 20.1111 14.3548C20.1893 14.4436 20.2089 14.4516 20.2099 14.3949C20.2115 14.309 20.292 14.2991 20.292 14.3848C20.292 14.4181 20.3193 14.4454 20.3527 14.4454C20.386 14.4454 20.4133 14.4181 20.4133 14.3848C20.4133 14.3515 20.4406 14.3242 20.4739 14.3242C20.5429 14.3242 20.5561 14.2211 20.4922 14.1815C20.4136 14.133 20.5418 14.0327 20.6535 14.0553C20.8984 14.1047 21.0234 14.1443 21.0222 14.172C21.0214 14.1883 21.0858 14.2665 21.1651 14.3459C21.2559 14.4366 21.3005 14.5134 21.2853 14.5528C21.2534 14.636 21.3374 14.9094 21.4232 15.0015C21.4608 15.0418 21.5402 15.1717 21.5996 15.29C21.7074 15.5046 21.7077 15.5075 21.6896 16.2383C21.6705 17.0127 21.6596 17.1464 21.609 17.2282C21.5918 17.2561 21.5883 17.3214 21.6014 17.3733C21.6319 17.4952 21.4879 17.8222 21.3485 17.9476C21.2596 18.0275 21.2132 18.0396 21.0709 18.0203L20.9 17.9971L20.8737 18.1611C20.8529 18.2914 20.8304 18.3251 20.7641 18.3251C20.6847 18.3251 20.6842 18.3226 20.7545 18.2712ZM22.7002 16.2609C22.6393 16.1925 22.5993 16.1106 22.6114 16.079C22.6236 16.0474 22.6172 16.0216 22.5973 16.0216C22.5561 16.0216 22.434 15.7928 22.434 15.7155C22.434 15.6874 22.3725 15.6264 22.2973 15.5799C22.2221 15.5335 22.1368 15.4365 22.1077 15.3645C22.0786 15.2924 21.9931 15.1517 21.9176 15.0516C21.8421 14.9516 21.7556 14.8107 21.7253 14.7384C21.6886 14.6508 21.6426 14.6071 21.5873 14.6071C21.5044 14.6071 21.3428 14.4768 21.3428 14.41C21.3428 14.3905 21.3155 14.3519 21.2822 14.3242C21.2488 14.2965 21.2216 14.2457 21.2216 14.2113C21.2216 14.1769 21.1905 14.1143 21.1524 14.0723C21.0987 14.0129 21.0947 13.9889 21.1346 13.9643C21.2066 13.9197 21.1483 13.7124 21.057 13.6885C21.0151 13.6776 20.9938 13.6458 21.0064 13.613C21.0401 13.5251 21.0983 13.5458 21.1422 13.6613C21.1642 13.719 21.2183 13.7757 21.2625 13.7872C21.3066 13.7988 21.3428 13.834 21.3428 13.8654C21.3428 13.8969 21.3746 13.9339 21.4135 13.9478C21.5374 13.9919 21.5889 14.0488 21.5489 14.0972C21.5008 14.1551 21.6079 14.287 21.757 14.3536C21.8182 14.3809 21.8682 14.4219 21.8682 14.4446C21.8682 14.4673 21.8881 14.4858 21.9125 14.4858C21.9368 14.4858 22.0687 14.584 22.2055 14.704C22.3423 14.824 22.5178 14.9498 22.5956 14.9836L22.7371 15.045L22.5438 15.0483C22.3086 15.0523 22.284 15.0976 22.3734 15.3611C22.4633 15.6258 22.5879 15.8192 22.6696 15.8208C22.7067 15.8215 22.7725 15.8488 22.8158 15.8816C22.8591 15.9143 22.9242 15.9317 22.9606 15.9201C23.0482 15.8923 23.152 16.0987 23.0745 16.1466C23.0466 16.1638 23.0074 16.1677 22.9873 16.1553C22.9672 16.1429 22.9754 16.1171 23.0055 16.0979C23.0459 16.0724 23.047 16.063 23.0099 16.0626C22.9227 16.0615 22.8036 16.2084 22.8422 16.2694C22.9422 16.4271 22.843 16.4212 22.7002 16.2609ZM22.518 16.126C22.5162 16.0834 22.5258 16.0595 22.5392 16.0729C22.5526 16.0863 22.5541 16.1212 22.5424 16.1504C22.5295 16.1826 22.5199 16.173 22.518 16.126ZM23.6464 15.9531C23.6464 15.8382 23.6663 15.7801 23.7116 15.7627C23.7672 15.7413 23.7727 15.76 23.7488 15.8897C23.7079 16.1124 23.6464 16.1505 23.6464 15.9531ZM23.7957 15.6724C23.7388 15.6155 23.7653 15.2632 23.8282 15.2391C23.8616 15.2263 23.8888 15.188 23.8888 15.1539C23.8888 15.1199 23.907 15.092 23.9293 15.092C23.9844 15.092 23.9801 15.1379 23.9095 15.3071C23.8763 15.3864 23.8597 15.4784 23.8724 15.5117C23.8995 15.5823 23.8369 15.7136 23.7957 15.6724ZM24.0129 14.862C24.0114 14.7911 24.0283 14.7219 24.0505 14.7081C24.099 14.6782 24.099 14.7974 24.0505 14.9102C24.0212 14.9783 24.0153 14.9708 24.0129 14.862ZM24.1377 14.2434C24.1377 14.1878 24.1469 14.1651 24.1581 14.1928C24.1693 14.2206 24.1693 14.2661 24.1581 14.2939C24.1469 14.3217 24.1377 14.2989 24.1377 14.2434ZM20.1102 14.0413C20.0965 14.0191 20.1045 14.0009 20.128 14.0009C20.1515 14.0009 20.1708 14.0191 20.1708 14.0413C20.1708 14.0635 20.1628 14.0817 20.153 14.0817C20.1432 14.0817 20.1239 14.0635 20.1102 14.0413ZM23.9886 13.5139C23.9515 13.4538 23.981 13.4326 24.0459 13.4726C24.0806 13.4941 24.0848 13.5149 24.0576 13.5317C24.0345 13.546 24.0035 13.538 23.9886 13.5139ZM23.9293 13.233C23.9293 13.2108 23.9474 13.1926 23.9697 13.1926C23.9919 13.1926 24.0101 13.2108 24.0101 13.233C24.0101 13.2552 23.9919 13.2734 23.9697 13.2734C23.9474 13.2734 23.9293 13.2552 23.9293 13.233ZM23.8855 13.0107C23.8821 12.9885 23.8817 12.956 23.8846 12.9384C23.8875 12.9208 23.8724 12.8736 23.8509 12.8334C23.8244 12.784 23.8268 12.7454 23.8584 12.7138C23.9165 12.6557 23.9836 12.6524 23.9484 12.7094C23.934 12.7326 23.9406 12.7736 23.9629 12.8005C23.9905 12.8338 23.9856 12.8815 23.9476 12.9502C23.9168 13.0057 23.8889 13.033 23.8855 13.0107ZM21.262 11.3966C21.262 11.3868 21.2802 11.3675 21.3024 11.3538C21.3246 11.3401 21.3428 11.3481 21.3428 11.3716C21.3428 11.3952 21.3246 11.4144 21.3024 11.4144C21.2802 11.4144 21.262 11.4064 21.262 11.3966ZM8.81462 9.55539C8.81462 9.48871 8.83281 9.43415 8.85504 9.43415C8.87726 9.43415 8.89545 9.48871 8.89545 9.55539C8.89545 9.62207 8.87726 9.67663 8.85504 9.67663C8.83281 9.67663 8.81462 9.62207 8.81462 9.55539ZM14.4149 9.39863C14.4024 9.37837 14.4193 9.35136 14.4525 9.33862C14.4857 9.32587 14.5129 9.33199 14.5129 9.35221C14.5129 9.40699 14.4411 9.44101 14.4149 9.39863ZM10.437 9.23584C10.3963 9.21058 10.3944 9.1942 10.4295 9.17247C10.485 9.13819 10.5266 9.16853 10.5061 9.22826C10.4977 9.25272 10.4692 9.25585 10.437 9.23584ZM8.64167 9.11425C8.5542 9.01015 8.53955 8.96826 8.57546 8.92498C8.6357 8.8524 8.58812 8.66629 8.50933 8.66629C8.46155 8.66629 8.45715 8.6493 8.48936 8.58911C8.51532 8.54062 8.55883 8.51929 8.60644 8.53174C8.6525 8.54379 8.72632 8.51067 8.79473 8.44727C8.92406 8.3274 8.97064 8.31999 9.07969 8.40192C9.15509 8.45857 9.15127 8.46703 8.98155 8.61936C8.82173 8.76281 8.80254 8.80019 8.77948 9.01291L8.754 9.24795L8.64167 9.11425ZM7.62916 9.0839C7.58226 9.03699 7.59968 8.9938 7.68364 8.94887C7.74855 8.91413 7.77024 8.91877 7.79057 8.97173C7.8243 9.05964 7.69486 9.1496 7.62916 9.0839ZM17.049 8.57536C17.0023 8.44832 17.115 8.38581 17.2779 8.44834C17.3695 8.48348 17.3571 8.52516 17.2389 8.57898C17.1079 8.63868 17.0721 8.638 17.049 8.57536ZM9.17834 8.3834C9.14902 8.3286 9.14856 8.30257 9.17692 8.30257C9.19993 8.30257 9.21421 8.27984 9.20865 8.25205C9.20301 8.22383 9.22976 8.20678 9.26927 8.21341C9.30817 8.21994 9.34 8.20851 9.34 8.18801C9.34 8.1675 9.39456 8.12812 9.46124 8.1005C9.52792 8.07288 9.58248 8.03827 9.58248 8.02359C9.58248 8.00891 9.62941 7.99301 9.68677 7.98826C9.74414 7.98351 9.82047 7.96318 9.8564 7.94307C9.8954 7.92124 9.96062 7.92129 10.0182 7.94317C10.0712 7.96334 10.1321 7.96905 10.1534 7.95587C10.1748 7.94268 10.219 7.95415 10.2518 7.98136C10.2913 8.01415 10.3869 8.02304 10.5352 8.00773C10.7106 7.98963 10.764 7.99754 10.782 8.04431C10.7946 8.07713 10.7933 8.11559 10.7791 8.12977C10.7401 8.16874 10.3576 8.21078 10.3099 8.18133C10.287 8.16716 10.173 8.17151 10.0567 8.191C9.94036 8.21048 9.79346 8.23158 9.73027 8.23788C9.66708 8.24419 9.60343 8.26587 9.58882 8.28606C9.57422 8.30626 9.51681 8.32767 9.46124 8.33365C9.40567 8.33963 9.34001 8.37146 9.31534 8.40438C9.25575 8.48386 9.23 8.47992 9.17834 8.3834ZM16.8973 8.4464C16.8973 8.4366 16.9155 8.41734 16.9377 8.40361C16.96 8.38987 16.9781 8.39789 16.9781 8.42143C16.9781 8.44497 16.96 8.46423 16.9377 8.46423C16.9155 8.46423 16.8973 8.45621 16.8973 8.4464ZM1.26996 8.37503C1.24767 8.34629 1.21809 8.29095 1.20422 8.25205C1.18943 8.21057 1.13771 8.18133 1.0791 8.18133C1.02414 8.18133 0.967488 8.16242 0.953201 8.1393C0.936356 8.11204 0.963933 8.10648 1.03164 8.12347C1.11787 8.14511 1.13606 8.13559 1.13606 8.0688C1.13606 7.92294 1.33453 7.92432 1.33751 8.07019C1.33785 8.08686 1.36651 8.1005 1.40119 8.1005C1.44933 8.1005 1.46128 8.13629 1.45171 8.25172C1.43851 8.41086 1.34629 8.47343 1.26996 8.37503ZM16.5444 8.32576C16.4457 8.2801 16.362 8.09263 16.3982 7.99833C16.4253 7.92754 16.4701 7.92365 16.5801 7.98254C16.6762 8.03395 16.7311 7.99891 16.6622 7.93009C16.5853 7.85312 16.6047 7.83828 16.7934 7.82981C16.974 7.82171 17.0923 7.89259 17.0399 7.97749C16.9989 8.04383 16.8654 8.02681 16.8162 7.94895C16.7859 7.90115 16.7765 7.89788 16.787 7.93885C16.7956 7.97219 16.8428 8.01967 16.8919 8.04436L16.9811 8.08924L16.8685 8.16448C16.8066 8.20586 16.74 8.23493 16.7206 8.22908C16.7012 8.22323 16.6955 8.24496 16.7079 8.27737C16.7376 8.35457 16.6577 8.3782 16.5444 8.32576ZM13.2975 8.0763C13.3436 7.99025 13.3813 7.89684 13.3813 7.86872C13.3813 7.84061 13.3995 7.81761 13.4218 7.81761C13.444 7.81761 13.4622 7.8358 13.4622 7.85802C13.4622 7.88025 13.4817 7.89844 13.5055 7.89844C13.5758 7.89844 13.6738 8.01732 13.6514 8.07559C13.6401 8.1052 13.5792 8.14067 13.5162 8.1544C13.4531 8.16814 13.3593 8.19139 13.3076 8.20607L13.2136 8.23276L13.2975 8.0763ZM12.9671 7.91573C12.8289 7.84077 12.8186 7.68671 12.9458 7.59763C13.0605 7.51729 13.1137 7.51742 13.0828 7.59798C13.0644 7.64589 13.0773 7.6553 13.1357 7.63675C13.2281 7.60744 13.2789 7.67363 13.2373 7.76903C13.2208 7.80686 13.2112 7.86964 13.216 7.90854C13.2268 7.99605 13.1208 7.99912 12.9671 7.91573ZM17.1259 7.78674C17.1027 7.7484 17.1829 7.67834 17.261 7.66865C17.2944 7.66451 17.367 7.6476 17.4223 7.63107C17.52 7.60192 17.5211 7.60384 17.4607 7.69481C17.4 7.78626 17.1647 7.85086 17.1259 7.78674ZM12.7213 7.62901C12.6722 7.57992 12.6933 7.53687 12.7549 7.56051C12.7883 7.57331 12.8156 7.60002 12.8156 7.61987C12.8156 7.66224 12.7599 7.66764 12.7213 7.62901ZM12.801 7.47417C12.769 7.39093 12.8401 7.25182 12.9146 7.25182C12.9454 7.25182 12.9786 7.22909 12.9885 7.2013C13.0126 7.13385 13.0462 7.16904 13.0754 7.29232C13.1054 7.41932 13.0657 7.48069 12.9318 7.51431C12.8545 7.53369 12.8197 7.523 12.801 7.47417ZM19.9283 7.27635C19.9283 7.26762 19.9556 7.25 19.9889 7.23721C20.0223 7.22441 20.0496 7.23156 20.0496 7.25309C20.0496 7.27462 20.0223 7.29223 19.9889 7.29223C19.9556 7.29223 19.9283 7.28509 19.9283 7.27635ZM10.8937 6.72292C10.8788 6.69876 10.8824 6.66314 10.9018 6.64378C10.9496 6.59598 11.0548 6.66556 11.02 6.72193C10.9846 6.77905 10.9287 6.77949 10.8937 6.72292ZM11.1182 6.72644C11.1182 6.70422 11.1556 6.68603 11.2014 6.68603C11.2472 6.68603 11.2734 6.70422 11.2596 6.72644C11.2459 6.74867 11.2085 6.76686 11.1764 6.76686C11.1444 6.76686 11.1182 6.74867 11.1182 6.72644ZM10.775 6.44401C10.7608 6.4211 10.777 6.41433 10.813 6.42813C10.883 6.455 10.8958 6.48396 10.8377 6.48396C10.8168 6.48396 10.7885 6.46599 10.775 6.44401ZM10.2897 6.2819C10.1652 6.2502 10.1883 6.23643 10.378 6.22936C10.4376 6.22714 10.4937 6.24714 10.5026 6.27381C10.5203 6.32695 10.4737 6.32872 10.2897 6.2819ZM10.2156 6.13371C10.2008 6.11889 10.1887 6.09332 10.1887 6.07688C10.1887 6.03802 10.3449 6.0788 10.3736 6.12512C10.399 6.16623 10.2559 6.17401 10.2156 6.13371ZM20.1374 5.97799C20.07 5.83019 20.0783 5.76563 20.1708 5.71611C20.26 5.66836 20.2631 5.67437 20.2524 5.87776C20.2426 6.06532 20.1958 6.10612 20.1374 5.97799Z" fill="#303944"/>
</g>
<defs>
<clipPath id="clip0_676_5118">
<rect width="24" height="13.0751" fill="white" transform="translate(0.166504 5.25)"/>
</clipPath>
</defs>
</svg>
