<svg width="33" height="32" viewBox="0 0 33 32" fill="none" xmlns="http://www.w3.org/2000/svg">
<path d="M16.4002 2.66602C9.04827 2.66602 3.06689 8.6474 3.06689 15.9993C3.06689 23.3513 9.04827 29.3327 16.4002 29.3327C23.7522 29.3327 29.7336 23.3513 29.7336 15.9993C29.7336 8.6474 23.7522 2.66602 16.4002 2.66602ZM16.4002 4.66602C16.8524 4.66602 17.2954 4.69947 17.7336 4.75065V5.33268C17.7336 5.70068 18.0322 5.99935 18.4002 5.99935H19.0669C19.4349 5.99935 19.7336 5.70068 19.7336 5.33268V5.16471C21.8417 5.80998 23.682 7.05323 25.0669 8.69596V12.2624C25.0669 12.5257 25.1449 12.7826 25.2909 13.002L26.2297 14.4095C26.341 14.5762 26.4002 14.7739 26.4002 14.9746V14.9824C26.4002 15.5444 26.8552 15.9993 27.4172 15.9993H27.7336C27.7336 21.7079 23.5341 26.4013 18.0513 27.1999L21.7192 24.2168C21.9499 24.0281 22.1553 23.8104 22.3286 23.5684L24.1554 21.0098C24.3141 20.7878 24.3928 20.5181 24.3781 20.2454L24.356 19.8275C24.3413 19.5508 24.2321 19.288 24.0461 19.0827L23.4263 18.3965C23.1976 18.1432 22.8724 17.9993 22.5317 17.9993H22.2453C21.9186 17.9993 21.6054 17.8662 21.3781 17.6309L20.1554 16.3678C19.9281 16.1332 19.6149 16 19.2882 15.9993H18.2323C17.9123 15.9993 17.6061 16.1255 17.3794 16.3522L16.7518 16.9798C16.5271 17.2058 16.4002 17.512 16.4002 17.8314V17.9212C16.4002 18.3779 16.1422 18.7953 15.7336 18.9993C15.3249 19.2034 15.0669 19.6208 15.0669 20.0775V20.8301C15.0669 21.3327 15.3788 21.7823 15.8494 21.959L16.4797 22.196C17.1503 22.4473 17.4546 23.2233 17.1346 23.8639L15.425 27.2832C9.6138 26.7893 5.06689 21.9409 5.06689 15.9993C5.06689 12.2262 6.90768 8.9004 9.73356 6.8418V7.66992C9.73356 7.88059 9.64916 8.08376 9.50049 8.23242L8.8221 8.91081C8.5521 9.18081 8.40023 9.54704 8.40023 9.92904V11.0788C8.40023 11.2474 8.42448 11.4148 8.47314 11.5762L9.24268 14.1374C9.34468 14.4774 9.56761 14.7684 9.87028 14.9551L13.5422 17.2155C13.6668 17.2922 13.8115 17.3327 13.9588 17.3327H14.2726C14.7113 17.3327 15.0669 16.9764 15.0669 16.5371C15.0669 16.2118 14.8689 15.9195 14.5669 15.7988L12.2323 14.8665C11.9309 14.7459 11.7336 14.4529 11.7336 14.1283V13.4616C11.7336 13.0223 12.0898 12.666 12.5291 12.666H14.576C14.8773 12.666 15.1523 12.4965 15.2869 12.2272L16.2531 10.2936C16.3471 10.105 16.5121 9.96185 16.7127 9.89518L17.8573 9.51367C18.1819 9.40501 18.4002 9.10243 18.4002 8.75977V8.41732C18.4002 8.15598 18.2712 7.91037 18.0552 7.76237L13.9471 4.93815C14.7375 4.76434 15.5567 4.66602 16.4002 4.66602ZM15.7336 13.3327C15.3656 13.3327 15.0669 13.6313 15.0669 13.9993C15.0669 14.3673 15.3656 14.666 15.7336 14.666H17.0669C17.4349 14.666 17.7336 14.3673 17.7336 13.9993C17.7336 13.6313 17.4349 13.3327 17.0669 13.3327H15.7336Z" fill="#303944"/>
</svg>
