<svg width="235" height="60" fill="none" xmlns="http://www.w3.org/2000/svg"><path d="M11.822 59.997c-.475 0-.94-.006-1.412-.017a19.71 19.71 0 01-2.918-.256 9.155 9.155 0 01-2.587-.86 8.443 8.443 0 01-2.181-1.594 8.345 8.345 0 01-1.593-2.19 9.004 9.004 0 01-.848-2.6 19.558 19.558 0 01-.26-2.94C.013 49.208 0 48.106 0 48.106V11.873s.014-1.085.023-1.403A19.49 19.49 0 01.28 7.533a9.057 9.057 0 01.849-2.607 8.427 8.427 0 011.585-2.193 8.691 8.691 0 012.19-1.603 9.063 9.063 0 012.58-.854 19.58 19.58 0 012.93-.257L11.822 0h210.346l1.426.02c.972.012 1.942.097 2.902.255a9.235 9.235 0 012.608.86 8.753 8.753 0 013.771 3.795c.407.815.689 1.687.836 2.586.162.98.253 1.969.271 2.96.005.445.005.922.005 1.397.012.588.012 1.148.012 1.712v32.828c0 .57 0 1.126-.012 1.686 0 .51 0 .978-.006 1.459a20.231 20.231 0 01-.267 2.907 9.043 9.043 0 01-.843 2.62 8.607 8.607 0 01-1.586 2.173 8.462 8.462 0 01-2.185 1.604 9.122 9.122 0 01-2.604.862 19.5 19.5 0 01-2.919.256c-.457.01-.936.017-1.401.017l-1.692.003-208.663-.003z" fill="#000"/><path d="M37.153 30.45a7.423 7.423 0 013.535-6.228 7.6 7.6 0 00-5.987-3.236c-2.519-.265-4.96 1.507-6.244 1.507-1.309 0-3.285-1.48-5.413-1.437a7.973 7.973 0 00-6.71 4.092c-2.9 5.022-.736 12.404 2.042 16.464 1.39 1.988 3.016 4.209 5.142 4.13 2.08-.086 2.857-1.327 5.369-1.327 2.488 0 3.217 1.327 5.386 1.277 2.233-.036 3.64-1.997 4.981-4.004a16.442 16.442 0 002.278-4.639 7.172 7.172 0 01-4.379-6.598zm-4.098-12.134a7.309 7.309 0 001.672-5.236 7.436 7.436 0 00-4.811 2.49 6.955 6.955 0 00-1.716 5.042 6.149 6.149 0 004.855-2.296zm36.169 27.428v-13.71h-.091l-5.615 13.568h-2.143l-5.63-13.567h-.089v13.71h-2.633V27.116h3.344l6.028 14.703h.102l6.016-14.703h3.356v18.627h-2.645zm4.87-3.86c0-2.375 1.82-3.809 5.048-4.002l3.717-.207v-1.032c0-1.51-.994-2.363-2.686-2.363a2.595 2.595 0 00-2.852 1.911h-2.608c.078-2.453 2.363-4.195 5.538-4.195 3.24 0 5.383 1.768 5.383 4.44v9.308h-2.672V43.51h-.065a4.854 4.854 0 01-4.286 2.467 4.116 4.116 0 01-4.517-4.093zm8.765-1.226v-1.046l-3.344.206c-1.665.104-2.607.827-2.607 1.988 0 1.188.981 1.963 2.478 1.963a3.256 3.256 0 003.473-3.111zm14.481-3.822a2.999 2.999 0 00-3.2-2.503c-2.144 0-3.563 1.794-3.563 4.621 0 2.892 1.432 4.633 3.587 4.633a2.923 2.923 0 003.176-2.439h2.685a5.428 5.428 0 01-5.886 4.764c-3.873 0-6.403-2.647-6.403-6.958 0-4.222 2.53-6.958 6.377-6.958a5.46 5.46 0 015.887 4.84h-2.66zm20.8 3.874h-7.1l-1.706 5.034h-3.007l6.725-18.627h3.125l6.725 18.627h-3.059l-1.703-5.035zm-6.365-2.324h5.628l-2.775-8.17h-.077l-2.776 8.17zm25.65.569c0 4.22-2.259 6.932-5.667 6.932a4.603 4.603 0 01-4.273-2.376h-.065v6.726h-2.787V32.164h2.698v2.259h.051a4.818 4.818 0 014.325-2.401c3.446 0 5.718 2.725 5.718 6.933zm-2.865 0c0-2.75-1.421-4.557-3.589-4.557-2.13 0-3.562 1.846-3.562 4.557 0 2.736 1.432 4.569 3.562 4.569 2.168 0 3.589-1.794 3.589-4.569zm17.813 0c0 4.22-2.259 6.932-5.668 6.932a4.605 4.605 0 01-4.273-2.376h-.064v6.726h-2.788V32.164h2.698v2.259h.052a4.816 4.816 0 014.324-2.401c3.447 0 5.719 2.725 5.719 6.933zm-2.866 0c0-2.75-1.421-4.557-3.589-4.557-2.129 0-3.562 1.846-3.562 4.557 0 2.736 1.433 4.569 3.562 4.569 2.168 0 3.589-1.794 3.589-4.569zm12.744 1.599c.207 1.847 2.001 3.06 4.453 3.06 2.35 0 4.04-1.213 4.04-2.878 0-1.446-1.019-2.312-3.433-2.905l-2.414-.582c-3.421-.826-5.009-2.425-5.009-5.021 0-3.214 2.801-5.421 6.778-5.421 3.936 0 6.634 2.207 6.725 5.421h-2.814c-.168-1.859-1.705-2.98-3.951-2.98-2.245 0-3.782 1.134-3.782 2.787 0 1.317.982 2.092 3.383 2.685l2.052.504c3.822.903 5.409 2.439 5.409 5.163 0 3.485-2.775 5.668-7.19 5.668-4.131 0-6.92-2.132-7.101-5.5h2.854zm17.454-11.604v3.213h2.583v2.208h-2.583v7.486c0 1.163.517 1.706 1.652 1.706.307-.006.613-.027.917-.065v2.194a7.645 7.645 0 01-1.548.13c-2.749 0-3.822-1.034-3.822-3.667V34.37h-1.974v-2.208h1.974V28.95h2.801zm4.077 10.004c0-4.273 2.517-6.958 6.441-6.958 3.938 0 6.442 2.685 6.442 6.958 0 4.285-2.491 6.958-6.442 6.958-3.949 0-6.441-2.673-6.441-6.958zm10.043 0c0-2.931-1.343-4.661-3.602-4.661s-3.602 1.743-3.602 4.661c0 2.943 1.343 4.66 3.602 4.66s3.602-1.717 3.602-4.66zm5.14-6.79h2.659v2.311h.064a3.24 3.24 0 013.267-2.453c.321-.001.641.034.955.104v2.607a3.901 3.901 0 00-1.253-.168 2.805 2.805 0 00-2.782 1.929 2.817 2.817 0 00-.123 1.195v8.056h-2.787V32.164zm19.796 9.591c-.375 2.465-2.776 4.157-5.847 4.157-3.951 0-6.403-2.647-6.403-6.893 0-4.26 2.465-7.023 6.285-7.023 3.758 0 6.121 2.581 6.121 6.699v.955h-9.592v.168a3.529 3.529 0 00.958 2.748 3.547 3.547 0 002.695 1.099 3.072 3.072 0 003.136-1.91h2.647zm-9.423-4.053h6.789a3.267 3.267 0 00-3.331-3.447 3.438 3.438 0 00-3.458 3.447zM53.477 13.067v8.983h3.243c2.677 0 4.227-1.65 4.227-4.52 0-2.826-1.562-4.463-4.227-4.463h-3.243zm1.394 1.27h1.694c1.86 0 2.963 1.183 2.963 3.212 0 2.061-1.083 3.232-2.963 3.232H54.87v-6.444zm10.824 7.844c1.98 0 3.194-1.326 3.194-3.523 0-2.186-1.22-3.518-3.194-3.518-1.98 0-3.2 1.332-3.2 3.518 0 2.197 1.214 3.523 3.2 3.523zm0-1.189c-1.164 0-1.818-.853-1.818-2.334 0-1.47.654-2.329 1.818-2.329 1.158 0 1.818.86 1.818 2.329 0 1.475-.66 2.334-1.818 2.334zm13.532-5.722h-1.339l-1.207 5.174h-.106l-1.395-5.173h-1.282l-1.395 5.173h-.1l-1.213-5.173h-1.358l1.868 6.78h1.376l1.395-4.993h.105l1.401 4.992h1.388l1.862-6.78zm1.541 6.78h1.339v-3.965c0-1.059.629-1.718 1.618-1.718.99 0 1.463.541 1.463 1.63v4.053h1.339v-4.389c0-1.612-.834-2.52-2.347-2.52-1.021 0-1.694.454-2.023 1.207h-.1V15.27h-1.289v6.78zm7.867 0h1.338v-9.425h-1.338v9.425zm6.372.131c1.98 0 3.194-1.326 3.194-3.523 0-2.186-1.22-3.518-3.194-3.518-1.98 0-3.2 1.332-3.2 3.518 0 2.197 1.215 3.523 3.2 3.523zm0-1.189c-1.164 0-1.817-.853-1.817-2.334 0-1.47.653-2.329 1.817-2.329 1.158 0 1.818.86 1.818 2.329 0 1.475-.66 2.334-1.818 2.334zm7.182.044c-.728 0-1.257-.355-1.257-.965 0-.598.423-.915 1.357-.978l1.656-.105v.566c0 .84-.747 1.482-1.756 1.482zm-.342 1.127c.89 0 1.631-.386 2.036-1.065h.105v.953h1.289v-4.632c0-1.432-.959-2.279-2.658-2.279-1.538 0-2.634.747-2.77 1.911h1.294c.15-.479.667-.753 1.414-.753.915 0 1.388.405 1.388 1.12v.586l-1.837.106c-1.612.1-2.521.803-2.521 2.023 0 1.239.952 2.03 2.26 2.03zm7.972 0c.934 0 1.725-.442 2.13-1.183h.105v1.07h1.283v-9.425h-1.339v3.723h-.099c-.368-.747-1.152-1.19-2.08-1.19-1.712 0-2.814 1.358-2.814 3.5 0 2.147 1.09 3.505 2.814 3.505zm.38-5.803c1.121 0 1.824.89 1.824 2.304 0 1.42-.697 2.297-1.824 2.297-1.133 0-1.812-.865-1.812-2.303 0-1.426.685-2.298 1.812-2.298zm11.818 5.821c1.979 0 3.193-1.326 3.193-3.523 0-2.186-1.22-3.518-3.193-3.518-1.98 0-3.2 1.332-3.2 3.518 0 2.197 1.214 3.523 3.2 3.523zm0-1.189c-1.165 0-1.818-.853-1.818-2.334 0-1.47.653-2.329 1.818-2.329 1.157 0 1.817.86 1.817 2.329 0 1.475-.66 2.334-1.817 2.334zm4.965 1.058h1.339v-3.965c0-1.059.628-1.718 1.618-1.718.99 0 1.463.541 1.463 1.63v4.053h1.339v-4.389c0-1.612-.835-2.52-2.347-2.52-1.021 0-1.694.454-2.024 1.207h-.099V15.27h-1.289v6.78zm11.923-8.466v1.718h-1.077v1.127h1.077v3.829c0 1.307.592 1.83 2.08 1.83.261 0 .51-.031.728-.069v-1.114c-.187.019-.305.031-.51.031-.667 0-.959-.311-.959-1.02v-3.487h1.469v-1.127h-1.469v-1.718h-1.339zm4.605 8.466h1.338v-3.959c0-1.027.61-1.718 1.706-1.718.946 0 1.451.548 1.451 1.63v4.047h1.338v-4.376c0-1.613-.89-2.528-2.334-2.528-1.021 0-1.737.455-2.067 1.214h-.106v-3.735h-1.326v9.425zm10.662-5.77c.99 0 1.637.69 1.668 1.755h-3.424c.075-1.058.766-1.756 1.756-1.756zm1.662 3.94c-.249.53-.803.822-1.613.822-1.07 0-1.761-.753-1.805-1.942v-.075h4.788v-.467c0-2.13-1.14-3.418-3.026-3.418-1.911 0-3.125 1.376-3.125 3.543 0 2.166 1.189 3.498 3.131 3.498 1.55 0 2.634-.747 2.939-1.96h-1.289z" fill="#fff"/></svg>