<svg width="234" height="92" fill="none" xmlns="http://www.w3.org/2000/svg"><path d="M64.574 30.78a.574.574 0 00-.241-.24.63.63 0 00-.312-.085.63.63 0 00-.314.085.594.594 0 00-.24.24.653.653 0 00.237.882.64.64 0 00.954-.561.64.64 0 00-.084-.32zm-.335.56h-.14l-.084-.212h-.083v.213h-.112V30.8h.224a.3.3 0 01.139.03.202.202 0 01.056.135c0 .06-.028.116-.084.141l.084.235z" fill="#fff"/><path d="M64.072 30.91c0-.012-.056-.012-.085-.012h-.056v.139h.085s.028 0 .056-.011c.028-.012.028-.038.028-.063 0-.02 0-.043-.028-.054zM46.246 0c-5.1.001-9.748 1.959-13.25 5.17C29.49 1.96 24.846.004 19.752.004h-.126C8.78.076 0 9.006 0 20c0 11.039 8.85 19.994 19.752 19.994 5.094 0 9.737-1.956 13.243-5.166a19.673 19.673 0 01-2.02-2.185h4.08a19.898 19.898 0 01-2.006 2.14h-.004l.001.004c-.016.015-.034.026-.05.042C36.5 38.044 41.152 40.001 46.254 40c10.912-.003 19.75-8.958 19.746-20v-.009C65.997 8.95 57.151 0 46.246 0zM31.2 7.237h3.753a19.89 19.89 0 011.533 2.14h-6.695c.427-.715.902-1.448 1.409-2.14zm-2.579 4.241h9.002c.323.694.606 1.409.851 2.143h-10.92c.108-.207.49-1.04 1.067-2.143zm-9.953 13.316h-2.345l1.396-7.407-3.21 7.407h-2.12l-.391-7.358-1.396 7.358H8.481l1.815-9.631h3.656l.168 5.965 2.596-5.965h3.797l-1.846 9.631zm8.29-4.162l-.502 2.783-.083.498-.056.397-.029.268-.027.212h-1.953l.056-.81c-.585.646-1.396.945-2.456.945-1.256 0-2.122-.873-2.122-2.136 0-1.907 1.508-3.021 4.102-3.021.251 0 .586.023.949.06.056-.258.084-.365.084-.509 0-.517-.42-.71-1.507-.71-.67 0-1.424.081-1.926.216l-.335.086-.195.051.307-1.764c1.172-.301 1.926-.413 2.791-.413 2.009 0 3.07.796 3.07 2.297 0 .389-.027.68-.167 1.55zm4.664-3.865c1.925 0 3.154 1.108 3.154 2.845 0 .58-.085 1.142-.282 1.936h-4.631c-.029.12-.029.174-.029.249 0 .906.698 1.368 2.038 1.368.838 0 1.591-.152 2.428-.496l-.39 1.961a8.954 8.954 0 01-2.372.316c-2.624 0-3.992-1.204-3.992-3.512 0-2.686 1.73-4.664 4.076-4.667zm4.889 13.818H29.5a20.073 20.073 0 01-1.166-2.14h9.326a20.15 20.15 0 01-1.15 2.14zm4.294-11.826a15.567 15.567 0 00-1.704-.114c-.755 0-1.145.215-1.145.636 0 .367.112.455 1.09.852 1.197.476 1.674 1.106 1.674 2.181 0 1.788-1.145 2.614-3.657 2.614-.306 0-.724-.023-1.283-.065a5.792 5.792 0 01-.643-.072l-.419-.077-.111-.022.335-1.807a7.381 7.381 0 002.122.31c.921 0 1.34-.219 1.34-.707 0-.359-.14-.475-1.09-.865-1.255-.512-1.813-1.196-1.813-2.184 0-1.447.921-2.651 3.546-2.651.559 0 1.48.069 2.092.154l-.334 1.817zm3.659 4.282c.25 0 .444-.025.612-.076l-.307 1.738c-.642.178-1.143.257-1.675.257-1.2 0-1.842-.611-1.842-1.722 0-.22.027-.455.056-.703l.14-.771.11-.62 1.09-5.981h2.315l-.334 1.799h1.199l-.335 1.906h-1.2l-.614 3.268c-.029.142-.029.25-.029.323 0 .407.252.58.814.582zm5.709-3.875c-1.117 0-1.478.842-2.316 5.632h-2.345l1.424-7.835h2.122l-.224 1.19c.727-.926 1.283-1.274 2.038-1.274.084 0 .169.008.252.02 0 .003.086.019.199.046.027.008.054.008.25.086l-.834 2.214-.279-.058a2.232 2.232 0 00-.288-.02zm4.141 5.838c-2.657 0-3.715-1.625-3.715-3.613 0-2.774 1.814-4.657 4.605-4.657 2.431 0 3.715 1.548 3.715 3.534 0 .487 0 .52-.056.976-.364 2.605-2.15 3.763-4.549 3.76zm4.8-.21a.617.617 0 01-.615-.614.616.616 0 011.23 0c0 .341-.28.614-.615.614z" fill="#fff"/><path d="M59.115 23.717a.477.477 0 00-.474.463c0 .262.223.47.474.47.252 0 .447-.21.447-.47a.454.454 0 00-.447-.463zm.222.736h-.14l-.085-.21h-.084v.21h-.112v-.542h.224c.03 0 .085.003.141.032.028.026.056.08.056.135a.15.15 0 01-.084.141l.084.234z" fill="#fff"/><path d="M59.169 24.023c.001-.013-.055-.013-.082-.013h-.06v.139h.085s.03 0 .057-.011c.028-.013.028-.039.028-.062 0-.02 0-.042-.028-.053zM31.59 18.56c-.753 0-1.283.499-1.506 1.407l2.596.005v-.405c0-.636-.392-1.006-1.09-1.006zm-7.565 2.715c-1.31-.002-1.98.4-1.98 1.192 0 .487.308.799.837.799.95 0 1.619-.803 1.675-1.962a4.321 4.321 0 00-.532-.03zm31.125-2.623c-1.2 0-1.926 1.428-1.926 2.687 0 1.065.502 1.78 1.34 1.763.504 0 1.59-.702 1.787-1.92.054-.286.083-.6.083-.94 0-.817-.334-1.593-1.284-1.59zm9.424 64.128a.574.574 0 00-.241-.24.63.63 0 00-.312-.085.63.63 0 00-.314.085.594.594 0 00-.24.24.653.653 0 00.237.882.64.64 0 00.954-.561.64.64 0 00-.084-.32zm-.335.56h-.14l-.084-.212h-.083v.213h-.112V82.8h.224a.3.3 0 01.139.03.202.202 0 01.056.135c0 .06-.028.116-.084.141l.084.235z" fill="#fff"/><path d="M64.072 82.91c0-.012-.056-.012-.085-.012h-.056v.139h.085s.028 0 .056-.011c.028-.012.028-.038.028-.063 0-.02 0-.043-.028-.054zM46.246 52c-5.1.001-9.748 1.959-13.25 5.17-3.505-3.21-8.15-5.166-13.244-5.166h-.126C8.78 52.076 0 61.006 0 72c0 11.039 8.85 19.994 19.752 19.994 5.094 0 9.737-1.956 13.243-5.166a19.673 19.673 0 01-2.02-2.185h4.08a19.898 19.898 0 01-2.006 2.14h-.004l.001.004c-.016.015-.034.026-.05.042C36.5 90.044 41.152 92.001 46.254 92c10.912-.003 19.75-8.958 19.746-20v-.009C65.997 60.95 57.151 52 46.246 52zM31.2 59.237h3.753c.556.677 1.07 1.393 1.533 2.14h-6.695c.427-.715.902-1.448 1.409-2.14zm-2.579 4.241h9.002c.323.694.606 1.409.851 2.143h-10.92c.108-.207.49-1.04 1.067-2.143zm-9.953 13.316h-2.345l1.396-7.407-3.21 7.407h-2.12l-.391-7.358-1.396 7.358H8.481l1.815-9.631h3.656l.168 5.965 2.596-5.965h3.797l-1.846 9.631zm8.29-4.162l-.502 2.783-.083.498-.056.397-.029.268-.027.212h-1.953l.056-.81c-.585.646-1.396.945-2.456.945-1.256 0-2.122-.873-2.122-2.136 0-1.907 1.508-3.021 4.102-3.021.251 0 .586.023.949.06.056-.258.084-.365.084-.509 0-.517-.42-.71-1.507-.71-.67 0-1.424.081-1.926.216l-.335.086-.195.051.307-1.764c1.172-.301 1.926-.413 2.791-.413 2.009 0 3.07.796 3.07 2.297 0 .389-.027.68-.167 1.55zm4.664-3.865c1.925 0 3.154 1.108 3.154 2.845 0 .58-.085 1.142-.282 1.936h-4.631c-.029.12-.029.174-.029.249 0 .906.698 1.368 2.038 1.368.838 0 1.591-.152 2.428-.496l-.39 1.961a8.954 8.954 0 01-2.372.316c-2.624 0-3.992-1.204-3.992-3.512 0-2.686 1.73-4.664 4.076-4.667zm4.889 13.818H29.5a20.073 20.073 0 01-1.166-2.14h9.326a20.15 20.15 0 01-1.15 2.14zm4.294-11.826a15.567 15.567 0 00-1.704-.114c-.755 0-1.145.215-1.145.636 0 .367.112.455 1.09.852 1.197.476 1.674 1.106 1.674 2.181 0 1.788-1.145 2.614-3.657 2.614-.306 0-.724-.023-1.283-.065a5.792 5.792 0 01-.643-.072l-.419-.077-.111-.022.335-1.807a7.381 7.381 0 002.122.31c.921 0 1.34-.219 1.34-.707 0-.359-.14-.475-1.09-.865-1.255-.512-1.813-1.196-1.813-2.184 0-1.447.921-2.651 3.546-2.651.559 0 1.48.069 2.092.154l-.334 1.817zm3.659 4.282c.25 0 .444-.025.612-.076l-.307 1.738c-.642.178-1.143.257-1.675.257-1.2 0-1.842-.611-1.842-1.722 0-.22.027-.455.056-.703l.14-.771.11-.62 1.09-5.981h2.315l-.334 1.799h1.199l-.335 1.906h-1.2l-.614 3.268c-.029.142-.029.25-.029.323 0 .407.252.58.814.582zm5.709-3.875c-1.117 0-1.478.842-2.316 5.632h-2.345l1.424-7.835h2.122l-.224 1.19c.727-.926 1.283-1.274 2.038-1.274.084 0 .169.008.252.02 0 .003.086.019.199.046.027.009.054.009.25.086l-.834 2.214-.279-.058a2.232 2.232 0 00-.288-.02zm4.141 5.838c-2.657 0-3.715-1.625-3.715-3.613 0-2.774 1.814-4.657 4.605-4.657 2.431 0 3.715 1.548 3.715 3.534 0 .487 0 .52-.056.976-.364 2.605-2.15 3.763-4.549 3.76zm4.8-.21a.617.617 0 01-.615-.614.616.616 0 011.23 0c0 .341-.28.614-.615.614z" fill="#fff"/><path d="M59.115 75.717a.477.477 0 00-.474.463c0 .262.223.47.474.47.252 0 .447-.21.447-.47a.454.454 0 00-.447-.463zm.222.737h-.14l-.085-.212h-.084v.212h-.112v-.543h.224c.03 0 .085.003.141.032.028.026.056.08.056.135a.15.15 0 01-.084.141l.084.235z" fill="#fff"/><path d="M59.169 76.023c.001-.013-.055-.013-.082-.013h-.06v.139h.085s.03 0 .057-.011c.028-.013.028-.039.028-.062 0-.02 0-.042-.028-.053zM31.59 70.56c-.753 0-1.283.499-1.506 1.407l2.596.005v-.405c0-.636-.392-1.006-1.09-1.006zm-7.565 2.715c-1.31-.002-1.98.4-1.98 1.192 0 .487.308.799.837.799.95 0 1.619-.803 1.675-1.962a4.321 4.321 0 00-.532-.03zm31.125-2.623c-1.2 0-1.926 1.428-1.926 2.687 0 1.065.502 1.78 1.34 1.763.504 0 1.59-.702 1.787-1.92.054-.286.083-.6.083-.94 0-.817-.334-1.593-1.284-1.59zm95.424-39.872a.574.574 0 00-.241-.24.631.631 0 00-.312-.085.633.633 0 00-.314.085.595.595 0 00-.24.24.651.651 0 00.237.882.646.646 0 00.319.086.64.64 0 00.635-.647.64.64 0 00-.084-.32zm-.335.56h-.139l-.085-.212h-.083v.213h-.112V30.8h.224a.3.3 0 01.139.03.205.205 0 01.056.135c0 .06-.028.116-.083.141l.083.235z" fill="#fff"/><path d="M150.072 30.91c0-.012-.056-.012-.085-.012h-.056v.139h.085s.028 0 .056-.011c.028-.012.028-.038.028-.063 0-.02 0-.043-.028-.054zM132.246 0c-5.101.001-9.748 1.959-13.25 5.17-3.505-3.21-8.15-5.166-13.244-5.166h-.126C94.78.076 86 9.006 86 20c0 11.039 8.85 19.994 19.752 19.994 5.094 0 9.737-1.956 13.243-5.166a19.61 19.61 0 01-2.02-2.185h4.08a19.918 19.918 0 01-2.006 2.14h-.004l.001.004c-.016.015-.034.026-.05.042 3.504 3.216 8.156 5.173 13.259 5.172 10.91-.003 19.748-8.958 19.745-20v-.009C151.997 8.95 143.151 0 132.246 0zM117.2 7.237h3.753c.556.677 1.07 1.393 1.533 2.14h-6.695c.428-.715.902-1.448 1.409-2.14zm-2.579 4.241h9.002c.323.694.606 1.409.851 2.143h-10.92c.108-.207.49-1.04 1.067-2.143zm-9.953 13.316h-2.344l1.395-7.407-3.209 7.407h-2.12l-.392-7.358-1.395 7.358H94.48l1.815-9.631h3.656l.168 5.965 2.596-5.965h3.797l-1.845 9.631zm8.291-4.162l-.503 2.783-.083.498-.056.397-.029.268-.027.212h-1.953l.056-.81c-.585.646-1.396.945-2.456.945-1.256 0-2.122-.873-2.122-2.136 0-1.907 1.508-3.021 4.102-3.021.251 0 .586.023.949.06.056-.258.084-.365.084-.509 0-.517-.419-.71-1.507-.71-.67 0-1.424.081-1.926.216l-.335.086-.195.051.307-1.764c1.172-.301 1.926-.413 2.791-.413 2.009 0 3.07.796 3.07 2.297 0 .389-.027.68-.167 1.55zm4.663-3.865c1.924 0 3.154 1.108 3.154 2.845 0 .58-.085 1.142-.282 1.936h-4.631c-.029.12-.029.174-.029.249 0 .906.698 1.368 2.038 1.368.838 0 1.591-.152 2.428-.496l-.39 1.961a8.95 8.95 0 01-2.372.316c-2.624 0-3.992-1.204-3.992-3.512 0-2.686 1.731-4.664 4.076-4.667zm4.889 13.818h-7.009a20.112 20.112 0 01-1.167-2.14h9.326a20.15 20.15 0 01-1.15 2.14zm4.294-11.826a15.576 15.576 0 00-1.704-.114c-.755 0-1.145.215-1.145.636 0 .367.112.455 1.089.852 1.198.476 1.675 1.106 1.675 2.181 0 1.788-1.145 2.614-3.658 2.614-.305 0-.723-.023-1.282-.065a5.808 5.808 0 01-.643-.072l-.419-.077-.111-.022.335-1.807a7.383 7.383 0 002.122.31c.921 0 1.339-.219 1.339-.707 0-.359-.14-.475-1.088-.865-1.256-.512-1.814-1.196-1.814-2.184 0-1.447.921-2.651 3.546-2.651.558 0 1.48.069 2.092.154l-.334 1.817zm3.659 4.282c.249 0 .444-.025.612-.076l-.307 1.738c-.642.178-1.143.257-1.675.257-1.2 0-1.842-.611-1.842-1.722 0-.22.027-.455.056-.703l.14-.771.11-.62 1.089-5.981h2.316l-.334 1.799h1.199l-.335 1.906h-1.201l-.613 3.268c-.029.142-.029.25-.029.323 0 .407.252.58.814.582zm5.709-3.875c-1.117 0-1.478.842-2.316 5.632h-2.345l1.424-7.835h2.122l-.224 1.19c.727-.926 1.283-1.274 2.038-1.274.084 0 .169.008.252.02 0 .003.086.019.199.046.027.008.054.008.25.086l-.834 2.214-.279-.058a2.235 2.235 0 00-.287-.02zm4.141 5.838c-2.657 0-3.715-1.625-3.715-3.613 0-2.774 1.814-4.657 4.605-4.657 2.431 0 3.715 1.548 3.715 3.534 0 .487 0 .52-.056.976-.364 2.605-2.15 3.763-4.549 3.76zm4.8-.21a.617.617 0 01-.615-.614.615.615 0 011.229 0 .615.615 0 01-.614.614z" fill="#fff"/><path d="M145.115 23.717a.476.476 0 00-.474.463c0 .262.223.47.474.47.252 0 .447-.21.447-.47a.454.454 0 00-.447-.463zm.222.736h-.14l-.085-.21h-.084v.21h-.112v-.542h.224c.03 0 .086.003.141.032.028.026.056.08.056.135a.15.15 0 01-.084.141l.084.234z" fill="#fff"/><path d="M145.169 24.023c.001-.013-.055-.013-.083-.013h-.058v.139h.084s.029 0 .057-.011c.028-.013.028-.039.028-.062 0-.02 0-.042-.028-.053zm-27.578-5.463c-.754 0-1.284.499-1.508 1.407l2.597.005v-.405c0-.636-.392-1.006-1.089-1.006zm-7.566 2.715c-1.309-.002-1.98.4-1.98 1.192 0 .487.308.799.837.799.95 0 1.619-.803 1.675-1.962a4.324 4.324 0 00-.532-.03zm31.125-2.623c-1.201 0-1.926 1.428-1.926 2.687 0 1.065.502 1.78 1.34 1.763.504 0 1.59-.702 1.787-1.92.054-.286.083-.6.083-.94 0-.817-.334-1.593-1.284-1.59zm9.424 64.128a.574.574 0 00-.241-.24.631.631 0 00-.312-.085.633.633 0 00-.314.085.595.595 0 00-.24.24.651.651 0 00.237.882.646.646 0 00.319.086.64.64 0 00.635-.647.64.64 0 00-.084-.32zm-.335.56h-.139l-.085-.212h-.083v.213h-.112V82.8h.224a.3.3 0 01.139.03.205.205 0 01.056.135c0 .06-.028.116-.083.141l.083.235z" fill="#fff"/><path d="M150.072 82.91c0-.012-.056-.012-.085-.012h-.056v.139h.085s.028 0 .056-.011c.028-.012.028-.038.028-.063 0-.02 0-.043-.028-.054zM132.246 52c-5.101.001-9.748 1.959-13.25 5.17-3.505-3.21-8.15-5.166-13.244-5.166h-.126C94.78 52.076 86 61.006 86 72c0 11.039 8.85 19.994 19.752 19.994 5.094 0 9.737-1.956 13.243-5.166a19.61 19.61 0 01-2.02-2.185h4.08a19.918 19.918 0 01-2.006 2.14h-.004l.001.004c-.016.015-.034.026-.05.042 3.504 3.216 8.156 5.173 13.259 5.172 10.91-.003 19.748-8.958 19.745-20v-.009C151.997 60.95 143.151 52 132.246 52zM117.2 59.237h3.753c.556.677 1.07 1.393 1.533 2.14h-6.695a27.78 27.78 0 011.409-2.14zm-2.579 4.241h9.002c.323.694.606 1.409.851 2.143h-10.92c.108-.207.49-1.04 1.067-2.143zm-9.953 13.316h-2.344l1.395-7.407-3.209 7.407h-2.12l-.392-7.358-1.395 7.358H94.48l1.815-9.631h3.656l.168 5.965 2.596-5.965h3.797l-1.845 9.631zm8.291-4.162l-.503 2.783-.083.498-.056.397-.029.268-.027.212h-1.953l.056-.81c-.585.646-1.396.945-2.456.945-1.256 0-2.122-.873-2.122-2.136 0-1.907 1.508-3.021 4.102-3.021.251 0 .586.023.949.06.056-.258.084-.365.084-.509 0-.517-.419-.71-1.507-.71-.67 0-1.424.081-1.926.216l-.335.086-.195.051.307-1.764c1.172-.301 1.926-.413 2.791-.413 2.009 0 3.07.796 3.07 2.297 0 .389-.027.68-.167 1.55zm4.663-3.865c1.924 0 3.154 1.108 3.154 2.845 0 .58-.085 1.142-.282 1.936h-4.631c-.029.12-.029.174-.029.249 0 .906.698 1.368 2.038 1.368.838 0 1.591-.152 2.428-.496l-.39 1.961a8.95 8.95 0 01-2.372.316c-2.624 0-3.992-1.204-3.992-3.512 0-2.686 1.731-4.664 4.076-4.667zm4.889 13.818h-7.009a20.112 20.112 0 01-1.167-2.14h9.326a20.15 20.15 0 01-1.15 2.14zm4.294-11.826a15.576 15.576 0 00-1.704-.114c-.755 0-1.145.215-1.145.636 0 .367.112.455 1.089.852 1.198.476 1.675 1.106 1.675 2.181 0 1.788-1.145 2.614-3.658 2.614-.305 0-.723-.023-1.282-.065a5.808 5.808 0 01-.643-.072l-.419-.077-.111-.022.335-1.807a7.383 7.383 0 002.122.31c.921 0 1.339-.219 1.339-.707 0-.359-.14-.475-1.088-.865-1.256-.512-1.814-1.196-1.814-2.184 0-1.447.921-2.651 3.546-2.651.558 0 1.48.069 2.092.154l-.334 1.817zm3.659 4.282c.249 0 .444-.025.612-.076l-.307 1.738c-.642.178-1.143.257-1.675.257-1.2 0-1.842-.611-1.842-1.722 0-.22.027-.455.056-.703l.14-.771.11-.62 1.089-5.981h2.316l-.334 1.799h1.199l-.335 1.906h-1.201l-.613 3.268c-.029.142-.029.25-.029.323 0 .407.252.58.814.582zm5.709-3.875c-1.117 0-1.478.842-2.316 5.632h-2.345l1.424-7.835h2.122l-.224 1.19c.727-.926 1.283-1.274 2.038-1.274.084 0 .169.008.252.02 0 .003.086.019.199.046.027.009.054.009.25.086l-.834 2.214-.279-.058a2.235 2.235 0 00-.287-.02zm4.141 5.838c-2.657 0-3.715-1.625-3.715-3.613 0-2.774 1.814-4.657 4.605-4.657 2.431 0 3.715 1.548 3.715 3.534 0 .487 0 .52-.056.976-.364 2.605-2.15 3.763-4.549 3.76zm4.8-.21a.617.617 0 01-.615-.614.615.615 0 011.229 0 .615.615 0 01-.614.614z" fill="#fff"/><path d="M145.115 75.717a.476.476 0 00-.474.463c0 .262.223.47.474.47.252 0 .447-.21.447-.47a.454.454 0 00-.447-.463zm.222.737h-.14l-.085-.212h-.084v.212h-.112v-.543h.224c.03 0 .086.003.141.032.028.026.056.08.056.135a.15.15 0 01-.084.141l.084.235z" fill="#fff"/><path d="M145.169 76.023c.001-.013-.055-.013-.083-.013h-.058v.139h.084s.029 0 .057-.011c.028-.013.028-.039.028-.062 0-.02 0-.042-.028-.053zm-27.578-5.463c-.754 0-1.284.499-1.508 1.407l2.597.005v-.405c0-.636-.392-1.006-1.089-1.006zm-7.566 2.715c-1.309-.002-1.98.4-1.98 1.192 0 .487.308.799.837.799.95 0 1.619-.803 1.675-1.962a4.324 4.324 0 00-.532-.03zm31.125-2.623c-1.201 0-1.926 1.428-1.926 2.687 0 1.065.502 1.78 1.34 1.763.504 0 1.59-.702 1.787-1.92.054-.286.083-.6.083-.94 0-.817-.334-1.593-1.284-1.59zm91.424-39.872a.574.574 0 00-.241-.24.631.631 0 00-.312-.085.633.633 0 00-.314.085.595.595 0 00-.24.24.651.651 0 00.237.882.646.646 0 00.319.086.64.64 0 00.635-.647.64.64 0 00-.084-.32zm-.335.56h-.139l-.085-.212h-.083v.213h-.112V30.8h.224a.3.3 0 01.139.03.205.205 0 01.056.135c0 .06-.028.116-.083.141l.083.235z" fill="#fff"/><path d="M232.072 30.91c0-.012-.056-.012-.085-.012h-.056v.139h.085s.028 0 .056-.011c.028-.012.028-.038.028-.063 0-.02 0-.043-.028-.054zM214.246 0c-5.101.001-9.748 1.959-13.25 5.17-3.505-3.21-8.15-5.166-13.244-5.166h-.126C176.78.076 168 9.006 168 20c0 11.039 8.85 19.994 19.752 19.994 5.094 0 9.737-1.956 13.243-5.166a19.61 19.61 0 01-2.02-2.185h4.08a19.918 19.918 0 01-2.006 2.14h-.004l.001.004c-.016.015-.034.026-.05.042 3.504 3.216 8.156 5.173 13.259 5.172 10.91-.003 19.748-8.958 19.745-20v-.009C233.997 8.95 225.151 0 214.246 0zM199.2 7.237h3.753c.556.677 1.07 1.393 1.533 2.14h-6.695c.428-.715.902-1.448 1.409-2.14zm-2.579 4.241h9.002c.323.694.606 1.409.851 2.143h-10.92c.108-.207.49-1.04 1.067-2.143zm-9.953 13.316h-2.344l1.395-7.407-3.209 7.407h-2.121l-.391-7.358-1.395 7.358h-2.122l1.815-9.631h3.656l.168 5.965 2.596-5.965h3.797l-1.845 9.631zm8.291-4.162l-.503 2.783-.083.498-.056.397-.029.268-.027.212h-1.953l.056-.81c-.585.646-1.396.945-2.456.945-1.256 0-2.122-.873-2.122-2.136 0-1.907 1.508-3.021 4.102-3.021.251 0 .586.023.949.06.056-.258.084-.365.084-.509 0-.517-.419-.71-1.507-.71-.67 0-1.424.081-1.926.216l-.335.086-.195.051.307-1.764c1.172-.301 1.926-.413 2.791-.413 2.009 0 3.07.796 3.07 2.297 0 .389-.027.68-.167 1.55zm4.663-3.865c1.924 0 3.154 1.108 3.154 2.845 0 .58-.085 1.142-.282 1.936h-4.631c-.029.12-.029.174-.029.249 0 .906.698 1.368 2.038 1.368.838 0 1.591-.152 2.428-.496l-.39 1.961a8.95 8.95 0 01-2.372.316c-2.624 0-3.992-1.204-3.992-3.512 0-2.686 1.731-4.664 4.076-4.667zm4.889 13.818h-7.009a20.112 20.112 0 01-1.167-2.14h9.326a20.15 20.15 0 01-1.15 2.14zm4.294-11.826a15.576 15.576 0 00-1.704-.114c-.755 0-1.145.215-1.145.636 0 .367.112.455 1.089.852 1.198.476 1.675 1.106 1.675 2.181 0 1.788-1.145 2.614-3.658 2.614-.305 0-.723-.023-1.282-.065a5.808 5.808 0 01-.643-.072l-.419-.077-.111-.022.335-1.807a7.383 7.383 0 002.122.31c.921 0 1.339-.219 1.339-.707 0-.359-.14-.475-1.088-.865-1.256-.512-1.814-1.196-1.814-2.184 0-1.447.921-2.651 3.546-2.651.558 0 1.48.069 2.092.154l-.334 1.817zm3.659 4.282c.249 0 .444-.025.612-.076l-.307 1.738c-.642.178-1.143.257-1.675.257-1.2 0-1.842-.611-1.842-1.722 0-.22.027-.455.056-.703l.14-.771.11-.62 1.089-5.981h2.316l-.334 1.799h1.199l-.335 1.906h-1.201l-.613 3.268c-.029.142-.029.25-.029.323 0 .407.252.58.814.582zm5.709-3.875c-1.117 0-1.478.842-2.316 5.632h-2.345l1.424-7.835h2.122l-.224 1.19c.727-.926 1.283-1.274 2.038-1.274.084 0 .169.008.252.02 0 .003.086.019.199.046.027.008.054.008.25.086l-.834 2.214-.279-.058a2.235 2.235 0 00-.287-.02zm4.141 5.838c-2.657 0-3.715-1.625-3.715-3.613 0-2.774 1.814-4.657 4.605-4.657 2.431 0 3.715 1.548 3.715 3.534 0 .487 0 .52-.056.976-.364 2.605-2.15 3.763-4.549 3.76zm4.8-.21a.617.617 0 01-.615-.614.615.615 0 011.229 0 .615.615 0 01-.614.614z" fill="#fff"/><path d="M227.115 23.717a.476.476 0 00-.474.463c0 .262.223.47.474.47.252 0 .447-.21.447-.47a.454.454 0 00-.447-.463zm.222.736h-.14l-.085-.21h-.084v.21h-.112v-.542h.224c.03 0 .086.003.141.032.028.026.056.08.056.135a.15.15 0 01-.084.141l.084.234z" fill="#fff"/><path d="M227.169 24.023c.001-.013-.055-.013-.083-.013h-.058v.139h.084s.029 0 .057-.011c.028-.013.028-.039.028-.062 0-.02 0-.042-.028-.053zm-27.578-5.463c-.754 0-1.284.499-1.508 1.407l2.597.005v-.405c0-.636-.392-1.006-1.089-1.006zm-7.566 2.715c-1.309-.002-1.98.4-1.98 1.192 0 .487.308.799.837.799.95 0 1.619-.803 1.675-1.962a4.324 4.324 0 00-.532-.03zm31.125-2.623c-1.201 0-1.926 1.428-1.926 2.687 0 1.065.502 1.78 1.34 1.763.504 0 1.59-.702 1.787-1.92.054-.286.083-.6.083-.94 0-.817-.334-1.593-1.284-1.59zm9.424 64.128a.574.574 0 00-.241-.24.631.631 0 00-.312-.085.633.633 0 00-.314.085.595.595 0 00-.24.24.651.651 0 00.237.882.646.646 0 00.319.086.64.64 0 00.635-.647.64.64 0 00-.084-.32zm-.335.56h-.139l-.085-.212h-.083v.213h-.112V82.8h.224a.3.3 0 01.139.03.205.205 0 01.056.135c0 .06-.028.116-.083.141l.083.235z" fill="#fff"/><path d="M232.072 82.91c0-.012-.056-.012-.085-.012h-.056v.139h.085s.028 0 .056-.011c.028-.012.028-.038.028-.063 0-.02 0-.043-.028-.054zM214.246 52c-5.101.001-9.748 1.959-13.25 5.17-3.505-3.21-8.15-5.166-13.244-5.166h-.126C176.78 52.076 168 61.006 168 72c0 11.039 8.85 19.994 19.752 19.994 5.094 0 9.737-1.956 13.243-5.166a19.61 19.61 0 01-2.02-2.185h4.08a19.918 19.918 0 01-2.006 2.14h-.004l.001.004c-.016.015-.034.026-.05.042 3.504 3.216 8.156 5.173 13.259 5.172 10.91-.003 19.748-8.958 19.745-20v-.009C233.997 60.95 225.151 52 214.246 52zM199.2 59.237h3.753c.556.677 1.07 1.393 1.533 2.14h-6.695a27.78 27.78 0 011.409-2.14zm-2.579 4.241h9.002c.323.694.606 1.409.851 2.143h-10.92c.108-.207.49-1.04 1.067-2.143zm-9.953 13.316h-2.344l1.395-7.407-3.209 7.407h-2.121l-.391-7.358-1.395 7.358h-2.122l1.815-9.631h3.656l.168 5.965 2.596-5.965h3.797l-1.845 9.631zm8.291-4.162l-.503 2.783-.083.498-.056.397-.029.268-.027.212h-1.953l.056-.81c-.585.646-1.396.945-2.456.945-1.256 0-2.122-.873-2.122-2.136 0-1.907 1.508-3.021 4.102-3.021.251 0 .586.023.949.06.056-.258.084-.365.084-.509 0-.517-.419-.71-1.507-.71-.67 0-1.424.081-1.926.216l-.335.086-.195.051.307-1.764c1.172-.301 1.926-.413 2.791-.413 2.009 0 3.07.796 3.07 2.297 0 .389-.027.68-.167 1.55zm4.663-3.865c1.924 0 3.154 1.108 3.154 2.845 0 .58-.085 1.142-.282 1.936h-4.631c-.029.12-.029.174-.029.249 0 .906.698 1.368 2.038 1.368.838 0 1.591-.152 2.428-.496l-.39 1.961a8.95 8.95 0 01-2.372.316c-2.624 0-3.992-1.204-3.992-3.512 0-2.686 1.731-4.664 4.076-4.667zm4.889 13.818h-7.009a20.112 20.112 0 01-1.167-2.14h9.326a20.15 20.15 0 01-1.15 2.14zm4.294-11.826a15.576 15.576 0 00-1.704-.114c-.755 0-1.145.215-1.145.636 0 .367.112.455 1.089.852 1.198.476 1.675 1.106 1.675 2.181 0 1.788-1.145 2.614-3.658 2.614-.305 0-.723-.023-1.282-.065a5.808 5.808 0 01-.643-.072l-.419-.077-.111-.022.335-1.807a7.383 7.383 0 002.122.31c.921 0 1.339-.219 1.339-.707 0-.359-.14-.475-1.088-.865-1.256-.512-1.814-1.196-1.814-2.184 0-1.447.921-2.651 3.546-2.651.558 0 1.48.069 2.092.154l-.334 1.817zm3.659 4.282c.249 0 .444-.025.612-.076l-.307 1.738c-.642.178-1.143.257-1.675.257-1.2 0-1.842-.611-1.842-1.722 0-.22.027-.455.056-.703l.14-.771.11-.62 1.089-5.981h2.316l-.334 1.799h1.199l-.335 1.906h-1.201l-.613 3.268c-.029.142-.029.25-.029.323 0 .407.252.58.814.582zm5.709-3.875c-1.117 0-1.478.842-2.316 5.632h-2.345l1.424-7.835h2.122l-.224 1.19c.727-.926 1.283-1.274 2.038-1.274.084 0 .169.008.252.02 0 .003.086.019.199.046.027.009.054.009.25.086l-.834 2.214-.279-.058a2.235 2.235 0 00-.287-.02zm4.141 5.838c-2.657 0-3.715-1.625-3.715-3.613 0-2.774 1.814-4.657 4.605-4.657 2.431 0 3.715 1.548 3.715 3.534 0 .487 0 .52-.056.976-.364 2.605-2.15 3.763-4.549 3.76zm4.8-.21a.617.617 0 01-.615-.614.615.615 0 011.229 0 .615.615 0 01-.614.614z" fill="#fff"/><path d="M227.115 75.717a.476.476 0 00-.474.463c0 .262.223.47.474.47.252 0 .447-.21.447-.47a.454.454 0 00-.447-.463zm.222.737h-.14l-.085-.212h-.084v.212h-.112v-.543h.224c.03 0 .086.003.141.032.028.026.056.08.056.135a.15.15 0 01-.084.141l.084.235z" fill="#fff"/><path d="M227.169 76.023c.001-.013-.055-.013-.083-.013h-.058v.139h.084s.029 0 .057-.011c.028-.013.028-.039.028-.062 0-.02 0-.042-.028-.053zm-27.578-5.463c-.754 0-1.284.499-1.508 1.407l2.597.005v-.405c0-.636-.392-1.006-1.089-1.006zm-7.566 2.715c-1.309-.002-1.98.4-1.98 1.192 0 .487.308.799.837.799.95 0 1.619-.803 1.675-1.962a4.324 4.324 0 00-.532-.03zm31.125-2.623c-1.201 0-1.926 1.428-1.926 2.687 0 1.065.502 1.78 1.34 1.763.504 0 1.59-.702 1.787-1.92.054-.286.083-.6.083-.94 0-.817-.334-1.593-1.284-1.59z" fill="#fff"/></svg>