<svg width="156" height="32" fill="none" xmlns="http://www.w3.org/2000/svg"><g clip-path="url(#clip0_409_6079)"><path fill="#fff" d="M.227 0h155.547v32H.227z"/><path d="M145.926.035H10.067C4.651.035.26 4.426.26 9.843V22.16c0 5.416 4.39 9.807 9.807 9.807h135.859c5.416 0 9.808-4.39 9.808-9.807V9.843c0-5.417-4.392-9.808-9.808-9.808z" fill="#fff"/><path d="M144.495 1.773H11.187a8.943 8.943 0 00-8.942 8.943v11.232a8.943 8.943 0 008.942 8.943h133.308a8.943 8.943 0 008.943-8.943V10.716a8.943 8.943 0 00-8.943-8.943z" stroke="#C10100" stroke-width="5.811" stroke-linecap="round" stroke-linejoin="round"/><path d="M9.848 14.093v8.72l-2.651 1.78V9.32l6.694 4.773 6.694-4.773v15.272l-2.651-1.779v-8.72l-4.043 2.651-4.043-2.65zm14.581-1.31v1.443H22.51l1.919 2.188v8.179l2.651-1.779v-6.069h7.29v7.848l2.652-1.779V10.117H27.08l-2.651 2.666zm2.452 1.31l.796-1.325h6.694v1.326h-7.49zm30.687-1.31v1.443h-1.919l1.919 2.188v8.179l2.65-1.779v-6.069h7.291v7.848l2.652-1.779V10.117h-9.942l-2.651 2.666zm2.452 1.31l.795-1.325h6.695v1.326h-7.49zm-18.69-1.31v1.443h-1.92l1.919 2.188v8.179l2.65-1.779v-6.069h1.327l6.296 7.29h2.585v-.795l-5.833-6.495c1.397-.063 4.67-.452 5.833-3.513v-3.115H43.98l-2.651 2.666zm2.452 1.31l.795-1.325h6.695l-.796 1.326h-6.694zm28.765-3.976l1.988 2.651h3.58v11.825l2.65-1.779V12.768h3.58l1.988-2.65H72.547zm29.096-.662l-2.651 1.779v2.993h-7.954v-2.993l-2.65-1.779v4.772h-1.92l1.92 2.187v8.18l2.65-1.78v-6.068h7.954v6.069l2.651 1.779V9.455zm16.57 11.598V10.117H107.94l-2.651 2.651v11.268h9.61l3.314-2.983zm-9.279-8.285h6.628v7.622l-.994.994h-6.628v-7.622l.994-.994zm12.592-3.313v15.139l2.652-1.78v-9.647l7.953 3.579v6.069l2.651 1.779V9.455l-2.651 1.779v2.993l-10.605-4.772z" fill="#C10100" stroke="#C10100" stroke-width=".83" stroke-linejoin="round"/><path d="M137.577 23.868V21.86l3.71 1.26c-.586-.765-.879-1.485-.879-2.157 0-.46.136-.85.407-1.165.272-.316.657-.505 1.156-.565.5-.061 1.076.02 1.729.241a6.28 6.28 0 012.002 1.12c.601.497 1.058 1.044 1.373 1.64.314.597.471 1.21.471 1.84l-.007 2.921v.245l-8.564-2.91-1.398-.462zm4.351-.53l2.997 1.018c.609.208.998.325 1.166.354.284.048.513.01.688-.112.176-.123.263-.326.263-.61 0-.244-.069-.478-.209-.7-.139-.224-.415-.464-.828-.722-.413-.258-1.157-.57-2.233-.935-1.032-.351-1.741-.462-2.125-.333-.278.093-.418.297-.418.614 0 .413.233.889.699 1.426zm1.808-10.695v3.695c.893.26 1.599.263 2.118.007.398-.196.598-.526.598-.992 0-.288-.081-.577-.242-.867-.161-.29-.45-.641-.868-1.052l.159-.19c.744.617 1.271 1.2 1.581 1.747.31.547.464 1.11.464 1.692 0 .998-.384 1.624-1.152 1.877-.62.203-1.388.148-2.305-.164-1.124-.382-2.018-.99-2.683-1.823s-.998-1.658-.998-2.474c0-.682.28-1.18.839-1.49.56-.312 1.389-.3 2.489.035zm-.483 1.608c-.773-.263-1.303-.4-1.591-.415-.289-.014-.507.043-.656.17-.086.071-.13.191-.13.36 0 .249.123.495.368.736.427.429 1.013.77 1.757 1.023l.252.085v-1.96zm-3.046-5.007l-2.061-1.24v-.768l2.464.837V6.474l.713.242v1.6l4.156 1.412c.558.045.817-.774.418-1.241l.158-.162c.922.702 1.383 1.49 1.383 2.364 0 .428-.118.749-.356.963a1.059 1.059 0 01-.796.295c-.163-.007-.605-.133-1.325-.378l-3.638-1.237v.88l-.655-.248-.461-1.72z" fill="#1A1A1A"/></g><defs><clipPath id="clip0_409_6079"><path fill="#fff" transform="translate(.227)" d="M0 0h155.547v32H0z"/></clipPath></defs></svg>