<svg width="25" height="24" viewBox="0 0 25 24" fill="none" xmlns="http://www.w3.org/2000/svg">
<path d="M22.333 12C22.333 11.0835 21.961 10.2195 21.316 9.593C21.5615 8.7275 21.4515 7.793 20.993 7C20.535 6.2065 19.781 5.6445 18.909 5.424C18.689 4.552 18.1265 3.7985 17.333 3.34C16.54 2.8815 15.6055 2.7715 14.7395 3.017C14.1135 2.372 13.249 2 12.333 2C11.417 2 10.5525 2.372 9.92651 3.017C9.06151 2.772 8.12651 2.882 7.33301 3.34C6.53951 3.7985 5.97701 4.5525 5.75701 5.424C4.88501 5.6445 4.13101 6.2065 3.67301 7C3.21501 7.793 3.10451 8.7275 3.35001 9.593C2.70501 10.2195 2.33301 11.0835 2.33301 12C2.33301 12.9165 2.70501 13.7805 3.35001 14.407C3.10451 15.2725 3.21501 16.207 3.67301 17C4.13101 17.7935 4.88501 18.3555 5.75701 18.576C5.97701 19.448 6.53951 20.202 7.33301 20.66C8.12551 21.1175 9.06001 21.228 9.92601 20.983C10.5525 21.628 11.417 22 12.333 22C13.249 22 14.1135 21.628 14.74 20.983C15.6055 21.228 16.54 21.118 17.333 20.66C18.1265 20.2015 18.689 19.4475 18.909 18.576C19.781 18.356 20.535 17.7935 20.993 17C21.451 16.207 21.5615 15.2725 21.316 14.407C21.961 13.7805 22.333 12.9165 22.333 12ZM9.33301 13.5C9.33301 13.72 9.18851 13.915 8.97801 13.9785C8.93001 13.9935 8.88151 14 8.83301 14C8.66901 14 8.51151 13.919 8.41701 13.7775L7.33301 12.1515V13.5C7.33301 13.776 7.10901 14 6.83301 14C6.55701 14 6.33301 13.776 6.33301 13.5V10.5C6.33301 10.28 6.47751 10.085 6.68801 10.0215C6.89851 9.9575 7.12601 10.039 7.24901 10.2225L8.33301 11.8485V10.5C8.33301 10.224 8.55701 10 8.83301 10C9.10901 10 9.33301 10.224 9.33301 10.5V13.5ZM12.583 11.5C12.859 11.5 13.083 11.724 13.083 12C13.083 12.276 12.859 12.5 12.583 12.5H11.833V13H12.833C13.109 13 13.333 13.224 13.333 13.5C13.333 13.776 13.109 14 12.833 14H11.333C11.057 14 10.833 13.776 10.833 13.5V10.5C10.833 10.224 11.057 10 11.333 10H12.833C13.109 10 13.333 10.224 13.333 10.5C13.333 10.776 13.109 11 12.833 11H11.833V11.5H12.583ZM17.826 13.5825C17.7925 13.785 17.6385 13.946 17.438 13.989C17.403 13.9965 17.3675 14 17.333 14C17.168 14 17.0105 13.918 16.917 13.7775L16.333 12.9015L15.749 13.7775C15.635 13.948 15.4295 14.032 15.228 13.989C15.0275 13.946 14.8735 13.785 14.84 13.5825L14.34 10.5825C14.2945 10.31 14.4785 10.0525 14.751 10.007C15.026 9.962 15.281 10.146 15.3265 10.418L15.6185 12.171L15.917 11.723C16.1025 11.4445 16.5635 11.4445 16.749 11.723L17.048 12.171L17.34 10.418C17.385 10.146 17.6415 9.9625 17.915 10.007C18.1875 10.0525 18.3715 10.31 18.326 10.5825L17.826 13.5825Z" fill="#303944"/>
</svg>
