<svg width="25" height="24" viewBox="0 0 25 24" fill="none" xmlns="http://www.w3.org/2000/svg">
<path d="M3.9165 3C2.676 3 1.6665 4.0095 1.6665 5.25V17.75C1.6665 19.542 3.1245 21 4.9165 21H19.4165C21.2085 21 22.6665 19.542 22.6665 17.75V9.25C22.6665 8.095 21.7885 7.15139 20.6665 7.02539V17.25C20.6665 17.664 20.3305 18 19.9165 18C19.5025 18 19.1665 17.664 19.1665 17.25V5.25C19.1665 4.0095 18.157 3 16.9165 3H3.9165ZM5.4165 7.5H15.4165C15.831 7.5 16.1665 7.836 16.1665 8.25C16.1665 8.664 15.831 9 15.4165 9H5.4165C5.002 9 4.6665 8.664 4.6665 8.25C4.6665 7.836 5.002 7.5 5.4165 7.5ZM5.4165 11.5H8.9165C9.331 11.5 9.6665 11.836 9.6665 12.25V15.75C9.6665 16.164 9.331 16.5 8.9165 16.5H5.4165C5.002 16.5 4.6665 16.164 4.6665 15.75V12.25C4.6665 11.836 5.002 11.5 5.4165 11.5ZM11.9165 11.5H15.4165C15.831 11.5 16.1665 11.836 16.1665 12.25C16.1665 12.664 15.831 13 15.4165 13H11.9165C11.502 13 11.1665 12.664 11.1665 12.25C11.1665 11.836 11.502 11.5 11.9165 11.5ZM6.1665 13V15H8.1665V13H6.1665ZM11.9165 15H15.4165C15.831 15 16.1665 15.336 16.1665 15.75C16.1665 16.164 15.831 16.5 15.4165 16.5H11.9165C11.502 16.5 11.1665 16.164 11.1665 15.75C11.1665 15.336 11.502 15 11.9165 15Z" fill="#303944"/>
</svg>
