<svg width="25" height="24" viewBox="0 0 25 24" fill="none" xmlns="http://www.w3.org/2000/svg">
<path d="M4.48545 2.98644C4.2204 2.99032 3.96774 3.09927 3.78298 3.28934C3.59821 3.47941 3.49647 3.73506 3.50009 4.00011V20.0001C3.50012 20.2653 3.60549 20.5197 3.79302 20.7072C3.98055 20.8947 4.23489 21.0001 4.50009 21.0001H20.5001C20.6326 21.002 20.7642 20.9775 20.8871 20.9281C21.0101 20.8787 21.122 20.8053 21.2164 20.7123C21.3108 20.6192 21.3857 20.5084 21.4369 20.3861C21.488 20.2638 21.5143 20.1326 21.5143 20.0001C21.5143 19.8676 21.488 19.7364 21.4369 19.6141C21.3857 19.4919 21.3108 19.381 21.2164 19.2879C21.122 19.1949 21.0101 19.1215 20.8871 19.0721C20.7642 19.0227 20.6326 18.9982 20.5001 19.0001H5.50009V4.00011C5.50192 3.8664 5.47692 3.73369 5.42656 3.60981C5.37621 3.48594 5.30152 3.37342 5.20692 3.27891C5.11233 3.1844 4.99974 3.10983 4.87581 3.05959C4.75189 3.00935 4.61915 2.98448 4.48545 2.98644ZM20.5206 4.48741C20.341 4.48497 20.1641 4.53092 20.0084 4.62045C19.8527 4.70997 19.724 4.83977 19.6358 4.9962L16.9581 9.58605L15.5909 7.45909C15.4971 7.31356 15.3671 7.19487 15.2137 7.11463C15.0603 7.0344 14.8886 6.99538 14.7156 7.00138C14.5426 7.00739 14.374 7.05821 14.2265 7.14889C14.079 7.23956 13.9576 7.36698 13.8741 7.51866L11.8311 11.2335L10.2686 9.35948C10.167 9.23756 10.0379 9.14157 9.89186 9.07944C9.74582 9.01732 9.58709 8.99084 9.42879 9.00219C9.2705 9.01354 9.11717 9.06241 8.9815 9.14474C8.84582 9.22708 8.73169 9.34052 8.64853 9.47569L6.64853 12.7257C6.57879 12.8375 6.53184 12.9621 6.51039 13.0921C6.48894 13.2222 6.49341 13.3552 6.52354 13.4835C6.55367 13.6118 6.60887 13.7329 6.68596 13.8398C6.76305 13.9467 6.86051 14.0373 6.97274 14.1064C7.08497 14.1756 7.20976 14.2218 7.33992 14.2425C7.47009 14.2633 7.60307 14.258 7.73121 14.2272C7.85936 14.1964 7.98014 14.1405 8.08662 14.0628C8.1931 13.9851 8.28317 13.8871 8.35166 13.7745L9.62216 11.7101L11.2315 13.6407C11.3358 13.7658 11.4691 13.8634 11.6197 13.9253C11.7703 13.9871 11.9338 14.0112 12.0959 13.9955C12.2579 13.9798 12.4137 13.9248 12.5497 13.8352C12.6856 13.7457 12.7977 13.6243 12.8761 13.4816L14.8165 9.95323L16.1593 12.0411C16.2518 12.1851 16.3798 12.3028 16.5309 12.3832C16.6819 12.4635 16.8511 12.5038 17.0222 12.5C17.1933 12.4963 17.3605 12.4487 17.508 12.3619C17.6554 12.2751 17.7781 12.1518 17.8644 12.004L21.3644 6.00401C21.4553 5.85321 21.5049 5.68107 21.5079 5.50498C21.511 5.32889 21.4676 5.15511 21.382 5.00122C21.2963 4.84732 21.1716 4.71876 21.0203 4.62853C20.8691 4.53831 20.6967 4.48963 20.5206 4.48741Z" fill="#303944"/>
</svg>
