<svg width="71" height="32" fill="none" xmlns="http://www.w3.org/2000/svg"><g clip-path="url(#clip0_346_2737)"><path d="M34.504 18.023h1.105v2.475h.798l1.432-2.475h1.206l-1.718 2.906v.019l1.822 3.172h-1.25l-1.473-2.66h-.797v2.657h-1.106v-6.094h-.02zm7.12 1.615c1.329 0 2.412.961 2.412 2.293 0 1.35-1.064 2.29-2.393 2.29-1.329 0-2.393-.94-2.393-2.29-.022-1.35 1.042-2.293 2.374-2.293zm3.27.103h1.045v3.437h1.37V19.74h1.043v3.437h1.37V19.74h1.045v4.376h-5.832V19.74h-.04zm8.963-.103c1.245 0 1.942.92 1.942 2.067a3.054 3.054 0 01-.041.43h-3.009c.063.757.656 1.165 1.31 1.165.456-.02.894-.184 1.25-.47l.427.778a2.81 2.81 0 01-1.759.634c-1.451 0-2.352-1.045-2.352-2.292 0-1.37.92-2.312 2.23-2.312h.002zm2.451 3.559c.533-.082.923-.529.923-2.086v-1.37h3.19v4.376h-1.085v-3.494h-1.062v.49c0 1.901-.512 3.007-1.966 3.047v-.963zm7.223-3.556c1.247 0 1.942.918 1.942 2.066a3.05 3.05 0 01-.041.428h-3.006c.06.757.653 1.165 1.31 1.165.455-.02.892-.185 1.247-.47l.43.778a2.81 2.81 0 01-1.76.634c-1.453 0-2.354-1.045-2.354-2.292 0-1.37.923-2.312 2.232-2.312v.003zm2.843.1h1.084v1.678h.53l1.065-1.678h1.206l-1.39 2.086v.022l1.554 2.268h-1.267L68.01 22.34h-.572v1.778h-1.086v-4.376h.022zm-24.75 3.54c.716 0 1.307-.553 1.307-1.37a1.321 1.321 0 00-1.31-1.372c-.713 0-1.288.553-1.288 1.37 0 .817.572 1.37 1.29 1.37v.002zm13.072-1.903c0-.572-.392-.92-.882-.92-.553 0-.961.367-1.065.92h1.947zm9.674 0c0-.572-.39-.92-.88-.92-.552 0-.96.367-1.064.92h1.944z" fill="#2D3540"/><path d="M49.784 4.747v10.33a.278.278 0 01-.286.286h-2.107a.279.279 0 01-.286-.286V4.747a.278.278 0 01.288-.286h2.105a.279.279 0 01.288.286h-.002zm16.446-.286c.081 0 .185.041.288.123.06.06.06.163.04.245L63.08 15.18a.29.29 0 01-.264.182h-1.881c-.125 0-.226-.06-.267-.182L58.64 9.144l-2.025 6.034a.29.29 0 01-.265.185h-1.886c-.12 0-.224-.06-.264-.185l-3.48-10.35a.277.277 0 01.041-.244c.043-.082.144-.123.226-.123h2.352a.28.28 0 01.265.204l1.862 6.116 2.047-6.116a.29.29 0 01.265-.185h1.658c.12 0 .223.063.264.185l2.047 6.116 1.863-6.116a.28.28 0 01.264-.204h2.355zm3.558 0c.145 0 .267.123.289.286v10.33a.28.28 0 01-.289.286h-2.105a.278.278 0 01-.288-.286V4.747a.277.277 0 01.177-.267.279.279 0 01.111-.019h2.105zM45.88 14.996a.21.21 0 01-.165.348h-2.579a.33.33 0 01-.264-.125l-.43-.529a5.766 5.766 0 01-3.088.918 5.71 5.71 0 010-11.414 5.71 5.71 0 014.806 8.795l1.718 2.007h.002zm-21.542 5.012c.534.204.738 1.002.779 1.348.082.634-.104.88-.308.88-.204 0-.49-.245-.798-.736-.307-.49-.43-1.043-.264-1.328.101-.186.327-.267.591-.164zm-3.11 2.312c.33 0 .698.144 1.024.427.635.534.817 1.147.49 1.596-.182.226-.49.368-.838.368s-.716-.12-.961-.346c-.572-.493-.735-1.31-.368-1.76a.792.792 0 01.654-.288v.003zm-7.157 5.91a14.071 14.071 0 1114.073-14.073 14.16 14.16 0 01-1.984 7.22c-.041.06-.144.042-.164-.04-.49-3.458-2.597-5.359-5.666-5.933-.264-.04-.307-.204.041-.245.94-.082 2.27-.063 2.965.06A9.316 9.316 0 0014.09 4.826c-5.133 0-9.307 4.177-9.307 9.31 0 5.132 4.174 9.308 9.31 9.308h.427a12.548 12.548 0 01-.183-2.516c.024-.574.144-.656.39-.206 1.29 2.23 3.13 4.236 6.73 5.034 2.946.653 5.892 1.41 9.061 5.44.289.348-.144.716-.47.43-3.232-2.864-6.176-3.806-8.858-3.806-3.006.022-5.05.408-7.117.408l-.002.003zm26.694-15.524l-1.125-1.37c-.123-.144-.022-.37.163-.37h2.372c.123-.327.185-.697.185-1.065 0-1.696-1.269-3.171-3.006-3.171-1.74 0-3.008 1.475-3.008 3.171 0 1.697 1.268 3.15 3.008 3.15.49.022.98-.12 1.41-.345z" fill="#FF8C00"/></g><defs><clipPath id="clip0_346_2737"><path fill="#fff" d="M0 0h70.422v32H0z"/></clipPath></defs></svg>