<svg width="28" height="28" fill="none" xmlns="http://www.w3.org/2000/svg"><path d="M5.6 3.733A1.866 1.866 0 003.733 5.6v3.733c0 1.032.836 1.867 1.867 1.867h3.733A1.866 1.866 0 0011.2 9.333V5.6a1.866 1.866 0 00-1.867-1.867H5.6zm13.067 0A1.866 1.866 0 0016.8 5.6v3.733c0 1.032.835 1.867 1.867 1.867H22.4a1.866 1.866 0 001.867-1.867V5.6A1.866 1.866 0 0022.4 3.733h-3.733zM5.6 5.6h3.733v3.733H5.6V5.6zm7.467 0v1.867h1.866V5.6h-1.866zm5.6 0H22.4v3.733h-3.733V5.6zm-12.134.933V8.4H8.4V6.533H6.533zm13.067 0V8.4h1.867V6.533H19.6zm-6.533 2.8V11.2h1.866V9.333h-1.866zM5.6 13.067v1.866h1.867v-1.866H5.6zm3.733 0v1.866H11.2v-1.866H9.333zm3.734 0v1.866h1.866v-1.866h-1.866zm1.866 1.866V16.8H16.8v-1.867h-1.867zm1.867 0h1.867v-1.866H16.8v1.866zm1.867 0V16.8h1.866v-1.867h-1.866zm1.866 0H22.4v-1.866h-1.867v1.866zm1.867 0V16.8h1.867v-1.867H22.4zm0 1.867h-1.867v1.867H22.4V16.8zm0 1.867v1.866h1.867v-1.866H22.4zm0 1.866h-1.867V22.4H22.4v-1.867zM20.533 22.4h-1.866v1.867h1.866V22.4zm-1.866 0v-1.867H16.8V22.4h1.867zm-1.867 0h-1.867v1.867H16.8V22.4zm-1.867 0v-1.867h-1.866V22.4h1.866zm0-1.867H16.8v-1.866h-1.867v1.866zm0-1.866V16.8h-1.866v1.867h1.866zm1.867 0h1.867V16.8H16.8v1.867zm1.867 0v1.866h1.866v-1.866h-1.866zM5.6 16.8a1.866 1.866 0 00-1.867 1.867V22.4c0 1.031.836 1.867 1.867 1.867h3.733A1.866 1.866 0 0011.2 22.4v-3.733A1.866 1.866 0 009.333 16.8H5.6zm0 1.867h3.733V22.4H5.6v-3.733zm.933.933v1.867H8.4V19.6H6.533z" fill="#5F6266"/></svg>