<svg width="20" height="20" fill="none" xmlns="http://www.w3.org/2000/svg"><path d="M14.729 11.709a.81.81 0 00-.235.715l.655 3.625a.796.796 0 01-.332.795.811.811 0 01-.862.06L10.692 15.2a.833.833 0 00-.368-.096h-.2a.598.598 0 00-.199.066l-3.264 1.71c-.161.081-.344.11-.523.081a.819.819 0 01-.656-.936l.656-3.625a.824.824 0 00-.235-.722L3.243 9.1a.795.795 0 01-.199-.833.827.827 0 01.655-.553l3.662-.53a.82.82 0 00.648-.45l1.614-3.308a.767.767 0 01.147-.199l.067-.051a.494.494 0 01.118-.096l.08-.03.126-.051h.31c.277.029.52.195.648.442l1.635 3.294a.82.82 0 00.612.448l3.662.531c.31.045.568.258.67.553a.8.8 0 01-.213.833l-2.756 2.608z" fill="#FED200"/></svg>