<svg width="32" height="32" fill="none" xmlns="http://www.w3.org/2000/svg"><path d="M28.497 11.767c.46 1.36.695 2.782.695 4.233 0 7.274-5.918 13.191-13.192 13.191S2.808 23.274 2.808 16C2.808 8.726 8.726 2.809 16 2.809c1.45 0 2.873.233 4.233.694V.567A15.98 15.98 0 0016 0C7.178 0 0 7.178 0 16s7.178 16 16 16c8.823 0 16-7.178 16-16 0-1.44-.19-2.86-.567-4.233h-2.936z" fill="#303944"/><path fill-rule="evenodd" clip-rule="evenodd" d="M21.8 15.514c.851-.464 1.362-1.3 1.362-2.243 0-1.78-1.501-2.909-3.883-2.909-2.352 0-3.868 1.099-3.868 2.832 0 .943.588 1.81 1.5 2.32-1.253.495-2.057 1.547-2.057 2.785 0 1.918 1.733 3.14 4.44 3.14 2.707 0 4.44-1.237 4.44-3.186 0-1.207-.743-2.244-1.934-2.739zm-2.506 3.93c-1.191 0-1.841-.51-1.841-1.424 0-.897.65-1.407 1.841-1.407 1.191 0 1.857.51 1.857 1.407 0 .929-.666 1.424-1.857 1.424zm0-4.812c-1.006 0-1.563-.433-1.563-1.207 0-.804.557-1.253 1.563-1.253 1.006 0 1.563.45 1.563 1.253 0 .774-.557 1.207-1.563 1.207z" fill="#303944"/><path d="M10.06 12.682v8.633h2.754V10.47h-4.75v2.212h1.996zM27.523 1.215v3.049h3.048v2.192h-3.048v3.048H25.33V6.456H22.3V4.264h3.03V1.215h2.193z" fill="#303944"/></svg>