<svg width="86" height="30" fill="none" xmlns="http://www.w3.org/2000/svg"><path fill-rule="evenodd" clip-rule="evenodd" d="M61.774 7.47c1.95 0 3.53-1.56 3.53-3.482 0-1.924-1.58-3.484-3.53-3.484-1.947 0-3.527 1.56-3.527 3.484 0 1.922 1.58 3.481 3.527 3.481zM34.74 9.35c-.159.394-1.305 3.59-4.078 6.903V2.09l-7.387 1.44v25.675h7.387v-7.936c2.14 3.168 3.196 7.936 3.196 7.936h8.85c-.876-3.591-4.705-10.213-4.705-10.213 3.436-4.3 4.946-8.883 5.186-9.642H34.74zm19.422-.269c-6.617.21-9.976 3.14-9.976 8.965v11.159h7.219v-9.1c0-3.488.462-4.983 4.656-5.126V9.184c-.706-.148-1.9-.103-1.9-.103zm-43.277 3.096c-.905-.06-3-.193-3-2.054 0-2.247 3.016-2.247 4.148-2.247 1.989 0 4.565.58 6.404 1.124 0 0 1.027.357 1.9.723l.081.021V3.592l-.111-.032c-2.171-.75-4.696-1.471-9.376-1.471C2.86 2.089 0 6.729 0 10.704c0 2.292.995 7.685 10.238 8.307.783.048 2.862.166 2.862 2.09 0 1.588-1.702 2.524-4.565 2.524-3.138 0-6.182-.79-8.03-1.538v6.335c2.767.717 5.887 1.074 9.544 1.074 7.89 0 11.425-4.39 11.425-8.741 0-4.934-3.955-8.14-10.59-8.578zm47.312 17.027h7.16V9.372h-7.16v19.832zm20.642-25.85v25.85H86V2.09l-7.162 1.264zm-10.449 0l7.155-1.265v27.115H68.39V3.354z" fill="#303944"/></svg>