<svg width="61" height="20" fill="none" xmlns="http://www.w3.org/2000/svg"><path d="M26.423 19.667H21.45L24.558.345h4.974l-3.109 19.322zM17.266.345l-4.742 13.29-.56-2.862v.001l-1.674-8.69S10.088.346 7.93.346H.093L0 .672s2.397.505 5.203 2.209l4.32 16.786h5.183L22.619.345h-5.353zm39.12 19.322h4.566L56.971.345h-3.998c-1.847 0-2.296 1.44-2.296 1.44l-7.418 17.882h5.185l1.036-2.87h6.323l.583 2.87zm-5.473-6.835l2.613-7.23 1.47 7.23h-4.083zm-7.265-7.84l.71-4.15S42.168 0 39.884 0c-2.468 0-8.33 1.091-8.33 6.396 0 4.992 6.88 5.054 6.88 7.676s-6.17 2.152-8.207.499l-.74 4.338S31.71 20 35.103 20c3.394 0 8.514-1.777 8.514-6.615 0-5.024-6.94-5.491-6.94-7.676 0-2.184 4.843-1.904 6.972-.717z" fill="#2566AF"/><path d="M11.964 10.773l-1.674-8.69S10.088.343 7.93.343H.093L0 .672s3.768.79 7.381 3.749c3.456 2.828 4.583 6.353 4.583 6.353z" fill="#E6A540"/></svg>