<svg width="96" height="20" fill="none" xmlns="http://www.w3.org/2000/svg"><g clip-path="url(#clip0_346_2741)"><path d="M18.587 0a9.98 9.98 0 00-10 10c0 5.57 4.494 10 10 10 5.507 0 10-4.494 10-10 .064-5.506-4.493-10-10-10zm0 13.734c-2.025 0-3.734-1.709-3.734-3.734s1.71-3.734 3.734-3.734c2.026 0 3.735 1.709 3.735 3.734s-1.646 3.734-3.735 3.734z" fill="#8143F4"/><path d="M8.587 2.912V17.47H4.98L.423 2.912h8.164z" fill="#8143F4"/><path d="M92.954 5.508l-2.216 5.443c-.063.063-.063.19-.063.253l-.063.127-.063-.127c0-.063-.064-.19-.064-.253L88.27 5.508h-2.848l3.734 9.304-1.582 3.544h2.848l5.253-12.848h-2.721zm-21.012.504c-.507-.38-1.14-.632-1.9-.696-1.265-.126-2.468.317-3.29 1.14V5.443h-2.595v9.304h2.595V9.873c0-1.076.19-1.392.38-1.645.316-.507.885-.76 1.582-.76.696 0 1.329.317 1.645.823.19.38.253.886.253 1.14v5.316h2.595V9.114c0-1.456-.443-2.469-1.265-3.102zM59.22 5.57a5.275 5.275 0 00-3.924.19c-.823.38-1.582 1.013-2.026 1.835-.443.697-.633 1.583-.633 2.532 0 .95.19 1.835.633 2.532.444.696 1.013 1.329 1.773 1.708.759.38 1.645.633 2.468.633.443 0 .886-.063 1.329-.19.38-.126.76-.253 1.14-.443.759-.443 1.392-1.012 1.771-1.708.443-.697.633-1.583.633-2.532.064-2.089-1.139-3.86-3.164-4.557zm.76 4.684c-.064.822-.317 1.519-.823 1.962-.38.316-.95.506-1.646.57-.696 0-1.203-.19-1.646-.57-.506-.443-.76-1.14-.822-1.962-.064-.95.316-1.71 1.012-2.216.38-.253.886-.443 1.393-.443.57 0 1.012.19 1.455.443.76.443 1.14 1.266 1.076 2.216zM49.663 6.013c-.506-.38-1.14-.633-1.899-.697h-.443c-1.012 0-1.899.443-2.658 1.33l-.127.19h-.253a2.7 2.7 0 00-.696-.76c-.506-.38-1.14-.633-1.899-.696-1.202-.127-2.152.253-2.974 1.139v-.95h-2.595v9.304h2.595v-5c0-1.012.126-1.265.316-1.582a1.599 1.599 0 011.519-.76 1.78 1.78 0 011.519.823c.253.38.253.823.253 1.266v5.19h2.595v-5c0-.95.127-1.266.317-1.582.316-.507.886-.76 1.519-.76.632 0 1.139.317 1.455.823.19.317.253.696.253.95v5.506h2.595V9.05c0-.507-.063-1.013-.19-1.456-.253-.633-.632-1.203-1.202-1.582zm33.291 5.95c-.38.38-1.266 1.076-2.468 1.14-1.013.063-1.773-.253-2.343-.823-.252-.253-.443-.633-.57-1.013h7.153v-.063c.063-.38.126-.696.126-1.076 0-.317-.063-.76-.19-1.33-.316-1.075-.95-1.898-1.771-2.53-.95-.697-1.836-.887-2.09-.887-1.835-.316-3.924.506-5 2.215-.758 1.203-.695 2.405-.695 2.785 0 .443.063 1.835 1.202 3.101 1.33 1.456 3.165 1.52 3.735 1.583 2.53.063 4.24-1.52 4.62-1.836l-1.71-1.266zm-4.43-3.924c.38-.253.822-.443 1.392-.443s1.013.19 1.455.443c.38.317.697.697.886 1.14H77.7c.064-.443.38-.886.823-1.14z" fill="#000"/></g><defs><clipPath id="clip0_346_2741"><path fill="#fff" transform="translate(.423)" d="M0 0h95.556v20H0z"/></clipPath></defs></svg>