<svg width="180" height="60" fill="none" xmlns="http://www.w3.org/2000/svg"><path d="M0 10.5c0-3.262 0-4.892.533-6.179A7 7 0 014.32.533C5.608 0 7.238 0 10.5 0h159c3.262 0 4.892 0 6.179.533a6.998 6.998 0 013.788 3.788C180 5.608 180 7.238 180 10.5v39c0 3.262 0 4.892-.533 6.179a6.999 6.999 0 01-3.788 3.788c-1.287.533-2.917.533-6.179.533h-159c-3.262 0-4.892 0-6.179-.533A7 7 0 01.533 55.68C0 54.392 0 52.762 0 49.5v-39z" fill="#0C0D10"/><path d="M122.289 28.801v3.437h-2.154v2.254h2.154v7.657c0 2.615 1.183 3.66 4.158 3.66.523 0 1.021-.061 1.457-.136v-2.229c-.373.037-.61.062-1.021.062-1.332 0-1.917-.622-1.917-2.042v-6.972h2.938v-2.254h-2.938V28.8h-2.677zm13.196 17.195c3.96 0 6.387-2.652 6.387-7.047 0-4.37-2.44-7.035-6.387-7.035-3.959 0-6.4 2.665-6.4 7.035 0 4.395 2.428 7.047 6.4 7.047zm0-2.378c-2.328 0-3.636-1.706-3.636-4.669 0-2.938 1.308-4.657 3.636-4.657 2.316 0 3.636 1.719 3.636 4.657 0 2.951-1.32 4.67-3.636 4.67zm8.465 2.117h2.677v-8.006c0-1.905 1.432-3.188 3.461-3.188.473 0 1.27.088 1.494.162v-2.64c-.286-.074-.796-.111-1.195-.111-1.768 0-3.275.97-3.661 2.303h-.199v-2.08h-2.577v13.56zm14.279-11.542c1.98 0 3.275 1.382 3.337 3.511h-6.848c.15-2.117 1.532-3.511 3.511-3.511zm3.325 7.881c-.498 1.059-1.606 1.644-3.225 1.644-2.142 0-3.524-1.507-3.611-3.885v-.15h9.575v-.933c0-4.258-2.279-6.836-6.051-6.836-3.823 0-6.251 2.752-6.251 7.085s2.378 6.997 6.263 6.997c3.101 0 5.267-1.494 5.877-3.922h-2.577zm-56.821-1.346c.207 3.33 2.982 5.459 7.111 5.459 4.414 0 7.176-2.233 7.176-5.795 0-2.8-1.575-4.349-5.395-5.24l-2.052-.503c-2.426-.568-3.407-1.329-3.407-2.658 0-1.678 1.523-2.775 3.807-2.775 2.168 0 3.665 1.071 3.936 2.788h2.814c-.168-3.136-2.93-5.343-6.711-5.343-4.065 0-6.775 2.207-6.775 5.523 0 2.736 1.535 4.362 4.904 5.15l2.4.58c2.465.581 3.549 1.433 3.549 2.852 0 1.652-1.703 2.852-4.026 2.852-2.491 0-4.22-1.122-4.466-2.89h-2.865zm-27.731-8.776c-1.842 0-3.436.92-4.258 2.465h-.2v-2.241h-2.576v18.066h2.676v-6.561h.212c.71 1.431 2.241 2.278 4.171 2.278 3.424 0 5.603-2.702 5.603-7.01s-2.179-6.997-5.628-6.997zm-.76 11.604c-2.24 0-3.647-1.768-3.647-4.594 0-2.84 1.407-4.607 3.66-4.607 2.266 0 3.624 1.73 3.624 4.594 0 2.876-1.358 4.607-3.636 4.607zm15.756-11.604c-1.843 0-3.437.92-4.259 2.465h-.199v-2.241h-2.577v18.066h2.677v-6.561h.211c.71 1.431 2.242 2.278 4.171 2.278 3.425 0 5.603-2.702 5.603-7.01s-2.178-6.997-5.627-6.997zm-.76 11.604c-2.241 0-3.648-1.768-3.648-4.594 0-2.84 1.407-4.607 3.66-4.607 2.267 0 3.624 1.73 3.624 4.594 0 2.876-1.357 4.607-3.636 4.607zm-26.073 2.179h3.07l-6.723-18.622h-3.11l-6.724 18.622h2.969l1.716-4.943h7.098l1.704 4.943zm-5.356-15.241h.22l2.696 7.872H57.1l2.71-7.872zm-6.332-17.428v8.984h3.243c2.677 0 4.227-1.65 4.227-4.52 0-2.826-1.562-4.464-4.227-4.464h-3.243zm1.394 1.27h1.694c1.861 0 2.963 1.183 2.963 3.213 0 2.06-1.083 3.23-2.963 3.23H54.87v-6.443zm10.824 7.844c1.98 0 3.194-1.325 3.194-3.523 0-2.185-1.22-3.518-3.194-3.518-1.98 0-3.2 1.333-3.2 3.518 0 2.198 1.214 3.524 3.2 3.524zm0-1.188c-1.164 0-1.818-.853-1.818-2.335 0-1.47.654-2.328 1.818-2.328 1.158 0 1.818.859 1.818 2.328 0 1.475-.66 2.335-1.818 2.335zm13.532-5.722h-1.339l-1.207 5.174h-.106L75.18 15.27h-1.282l-1.395 5.174h-.1L71.19 15.27h-1.358l1.868 6.78h1.376l1.395-4.993h.105l1.401 4.993h1.388l1.862-6.78zm1.541 6.78h1.339v-3.966c0-1.058.629-1.718 1.619-1.718s1.463.542 1.463 1.631v4.053h1.338v-4.39c0-1.611-.834-2.52-2.347-2.52-1.021 0-1.693.454-2.023 1.207h-.1V15.27h-1.289v6.78zm7.867 0h1.339v-9.426h-1.339v9.426zm6.373.13c1.98 0 3.193-1.325 3.193-3.523 0-2.185-1.22-3.518-3.193-3.518-1.98 0-3.2 1.333-3.2 3.518 0 2.198 1.214 3.524 3.2 3.524zm0-1.188c-1.165 0-1.818-.853-1.818-2.335 0-1.47.653-2.328 1.818-2.328 1.157 0 1.817.859 1.817 2.328 0 1.475-.66 2.335-1.817 2.335zm7.181.043c-.728 0-1.257-.355-1.257-.965 0-.598.423-.915 1.357-.977l1.656-.106v.567c0 .84-.747 1.481-1.756 1.481zm-.342 1.127c.89 0 1.631-.386 2.036-1.065h.106v.953h1.288v-4.632c0-1.432-.958-2.278-2.658-2.278-1.538 0-2.633.747-2.77 1.91h1.295c.149-.479.666-.753 1.413-.753.915 0 1.388.405 1.388 1.121v.585l-1.837.106c-1.612.1-2.52.803-2.52 2.023 0 1.24.952 2.03 2.259 2.03zm7.972 0c.934 0 1.725-.442 2.13-1.183h.105v1.07h1.283v-9.425h-1.339v3.723h-.099c-.367-.747-1.152-1.189-2.08-1.189-1.712 0-2.813 1.357-2.813 3.499 0 2.148 1.089 3.505 2.813 3.505zm.38-5.802c1.121 0 1.824.89 1.824 2.303 0 1.42-.697 2.297-1.824 2.297-1.133 0-1.811-.865-1.811-2.303 0-1.426.684-2.297 1.811-2.297zm11.818 5.82c1.979 0 3.193-1.325 3.193-3.523 0-2.185-1.22-3.518-3.193-3.518-1.98 0-3.2 1.333-3.2 3.518 0 2.198 1.214 3.524 3.2 3.524zm0-1.188c-1.165 0-1.818-.853-1.818-2.335 0-1.47.653-2.328 1.818-2.328 1.158 0 1.818.859 1.818 2.328 0 1.475-.66 2.335-1.818 2.335zm4.965 1.058h1.339v-3.966c0-1.058.628-1.718 1.618-1.718.99 0 1.463.542 1.463 1.631v4.053h1.339v-4.39c0-1.611-.834-2.52-2.347-2.52-1.021 0-1.694.454-2.024 1.207h-.099V15.27h-1.289v6.78zm11.923-8.467v1.718h-1.077v1.127h1.077v3.829c0 1.307.592 1.83 2.08 1.83.261 0 .51-.03.728-.068v-1.115c-.187.02-.305.032-.51.032-.666 0-.959-.312-.959-1.021v-3.487h1.469v-1.127h-1.469v-1.718h-1.339zm4.605 8.467h1.338v-3.96c0-1.027.61-1.718 1.706-1.718.946 0 1.451.548 1.451 1.631v4.047h1.338v-4.377c0-1.612-.89-2.527-2.334-2.527-1.021 0-1.737.454-2.067 1.214h-.106v-3.736h-1.326v9.426zm10.662-5.771c.99 0 1.637.69 1.668 1.755h-3.424c.075-1.058.766-1.755 1.756-1.755zm1.662 3.94c-.249.53-.803.822-1.612.822-1.071 0-1.762-.753-1.806-1.942v-.075h4.788v-.467c0-2.129-1.14-3.417-3.026-3.417-1.911 0-3.125 1.375-3.125 3.542 0 2.166 1.189 3.499 3.131 3.499 1.55 0 2.634-.747 2.939-1.961h-1.289zM37.154 30.451a7.483 7.483 0 013.534-6.228 7.692 7.692 0 00-5.986-3.236c-2.52-.265-4.961 1.507-6.245 1.507-1.308 0-3.284-1.481-5.413-1.437a8.038 8.038 0 00-6.709 4.091c-2.9 5.023-.737 12.405 2.042 16.465 1.39 1.988 3.015 4.208 5.141 4.13 2.08-.087 2.858-1.327 5.37-1.327 2.488 0 3.217 1.327 5.386 1.277 2.233-.037 3.64-1.997 4.98-4.004a16.44 16.44 0 002.278-4.639c-2.623-1.11-4.375-3.75-4.378-6.599zm-4.098-12.134a7.309 7.309 0 001.672-5.236 7.436 7.436 0 00-4.812 2.49 7.018 7.018 0 00-1.715 5.041 6.22 6.22 0 004.855-2.295z" fill="#fff"/><path d="M4.321 59.467l-.382.924.382-.924zM.533 55.68l-.924.383.924-.383zm178.934 0l.924.383-.924-.383zm-3.788 3.788l-.383-.924.383.924zm0-58.934l.382-.924-.382.924zm3.788 3.788l.924-.382-.924.382zM10.5 1h159v-2h-159v2zM179 10.5v39h2v-39h-2zM169.5 59h-159v2h159v-2zM1 49.5v-39h-2v39h2zm9.5 9.5c-1.644 0-2.828 0-3.762-.064-.925-.063-1.533-.185-2.034-.393l-.765 1.848c.785.325 1.636.47 2.663.54 1.018.07 2.28.069 3.898.069v-2zM-1 49.5c0 1.617 0 2.88.069 3.898.07 1.027.215 1.878.54 2.663l1.848-.765c-.208-.5-.33-1.109-.393-2.034C1.001 52.328 1 51.145 1 49.5h-2zm5.704 9.043a6 6 0 01-3.247-3.247l-1.848.766a8 8 0 004.33 4.329l.765-1.848zM179 49.5c0 1.645-.001 2.828-.064 3.762-.063.925-.185 1.533-.393 2.034l1.848.766c.325-.786.47-1.637.54-2.664.07-1.018.069-2.28.069-3.898h-2zM169.5 61c1.617 0 2.88 0 3.898-.069 1.027-.07 1.878-.215 2.663-.54l-.765-1.848c-.501.208-1.109.33-2.034.393-.934.063-2.118.064-3.762.064v2zm9.043-5.704a6 6 0 01-3.247 3.247l.765 1.848a7.998 7.998 0 004.33-4.33l-1.848-.765zM169.5 1c1.644 0 2.828 0 3.762.064.925.063 1.533.185 2.034.393l.765-1.848c-.785-.325-1.636-.47-2.663-.54C172.38-1.001 171.117-1 169.5-1v2zm11.5 9.5c0-1.617.001-2.88-.069-3.898-.07-1.027-.215-1.878-.54-2.663l-1.848.765c.208.5.33 1.109.393 2.034.063.934.064 2.118.064 3.762h2zm-5.704-9.043a6 6 0 013.247 3.247l1.848-.765a7.998 7.998 0 00-4.33-4.33l-.765 1.848zM10.5-1c-1.617 0-2.88 0-3.898.069-1.027.07-1.878.215-2.663.54l.765 1.848c.5-.208 1.109-.33 2.034-.393C7.672 1.001 8.856 1 10.5 1v-2zM1 10.5c0-1.644 0-2.828.064-3.762.063-.925.185-1.533.393-2.034l-1.848-.765c-.325.785-.47 1.636-.54 2.663C-1.001 7.62-1 8.882-1 10.5h2zM3.939-.391a8 8 0 00-4.33 4.33l1.848.765a6 6 0 013.247-3.247L3.939-.391z" fill="#A6A6A6"/></svg>