<svg width="82" height="32" fill="none" xmlns="http://www.w3.org/2000/svg"><path fill-rule="evenodd" clip-rule="evenodd" d="M9.02.504H82l-8.063 30.992H.957l4.1-15.907-2.597 2.057L0 19.566l.683-2.606 1.914-7.131.683-2.743 1.367 1.92 1.64 2.194L9.02.504zM3.69 9.829l2.597 3.565-4.51 3.566L3.69 9.829zm31.023-7.954H80.36l-6.013 23.039h-45.51l2.733-10.971h4.51l.273-1.097H31.98l2.733-10.97zm4.1 12.068h4.51l-2.46 9.462h32.254l5.33-20.159h-32.39l-2.46 9.6h-4.374l-.41 1.097zm-16.4-12.068h11.754l-2.87 10.97h-3.28l-.274 1.098h3.28l-2.87 10.97H16.4l2.87-10.97h2.87l.273-1.097h-2.87l2.87-10.97zm-12.436 0H21.73l-2.733 10.97H15.58c.273.275.41.687.41 1.098h2.597l-2.734 10.97H3.963l2.87-10.97H9.43l.273-1.097H7.107l2.87-10.97zM47.833 9.83l-4.373 3.565 2.597 3.566 1.776-7.131zM70.11 7.086h2.05l-3.963 14.948h1.913l3.963-14.948h2.05l.547-2.468h-5.877l-.683 2.468zm-3.553 0H69.7l.683-2.468H65.19l-4.51 17.416h1.913l1.914-7.131h2.46l.683-2.469h-2.46l1.367-5.348zM54.667 17.92c-.684 2.743-.137 4.388 1.776 4.388 1.914 0 3.417-1.645 4.1-4.388l2.324-9.051c.82-2.743.136-4.388-1.777-4.388-1.913 0-3.28 1.645-4.1 4.388l-2.323 9.05zm4.373-9.188c.273-1.372.82-1.783 1.503-1.783.547 0 .82.411.547 1.783l-2.46 9.325c-.41 1.234-.82 1.783-1.503 1.783-.547 0-.82-.549-.547-1.783l2.46-9.325zm-8.61.137c-1.367 4.937 2.323 5.623 1.367 9.188-.274 1.234-.82 1.646-1.504 1.646-.546 0-.82-.412-.546-1.646l.41-1.371H48.38l-.41 1.234c-.683 2.743-.137 4.388 1.777 4.388 1.913 0 3.28-1.645 3.963-4.388 1.367-4.937-2.187-5.623-1.367-9.188.41-1.372.82-1.783 1.504-1.783.546 0 .82.411.41 1.783l-.137.823h1.777l.136-.686c.82-2.743.274-4.388-1.64-4.388-1.913 0-3.28 1.645-3.963 4.388zM39.497 28.754l.136-.412h1.23l-.273.823c-.273.274-.547.411-.82.549-.273.137-.547.137-.957.137-.546 0-.956-.137-1.23-.412-.136-.274-.273-.548-.136-1.097.136-.411.41-.823.82-1.097s.82-.411 1.366-.411c.274 0 .547.137.82.137.274.137.41.411.547.548l-.41.275-.41-.412c-.137 0-.41-.137-.683-.137-.41 0-.684.137-.957.412-.41.137-.547.41-.683.685 0 .412 0 .549.136.823.274.274.547.274.957.274.273 0 .41 0 .683-.137.274 0 .41-.137.547-.274l.137-.274h-.82zm5.74 0h1.093l-.273-1.098-.82 1.098zM43.87 29.85l2.187-2.88h.273l.82 2.88h-.547l-.136-.823h-1.504l-.546.823h-.547zm6.833 0l.82-2.88h.274l.82 1.645 1.503-1.645h.41l-.683 2.88H53.3l.547-2.057-1.504 1.508-.683-1.508-.547 2.057h-.41zm7.244 0l.82-2.88h.41l-.684 2.88h-.546zm4.646 0l.82-2.88h.274l1.23 1.92.546-1.92h.41l-.683 2.88h-.273l-1.367-2.057-.41 2.057h-.547zm8.884-1.098l.136-.41h1.23l-.273.822c-.137.274-.41.411-.82.549-.273.137-.547.137-.957.137-.546 0-.82-.137-1.093-.412-.273-.274-.41-.548-.273-1.097.136-.411.41-.823.82-1.097s.82-.411 1.366-.411c.41 0 .684.137.82.137.274.137.41.411.547.548l-.41.275-.41-.412c-.137 0-.41-.137-.683-.137-.41 0-.684.137-.957.412-.41.137-.547.41-.683.685 0 .412 0 .549.273.823.137.274.41.274.82.274.273 0 .547 0 .683-.137.274 0 .41-.137.547-.274l.137-.274h-.82zm-56.17-2.33c.546 0 .956.548.82 1.096v.138c.546.137.82.548.683 1.096-.137.686-.82 1.098-1.367 1.098-.41 0-.82-.275-.82-.686-.273.411-.82.686-1.23.686-.546 0-.956-.412-.82-1.098.137-.548.684-.96 1.367-1.096v-.138c.137-.548.82-1.097 1.367-1.097zm-.547 4.113l-.273-1.097-.684 1.097h.957zm18.04-4.114c.273 0 1.64 1.372 1.367 2.331-.137.686-.684 1.098-1.367 1.098-.41 0-.683-.275-.82-.686-.273.411-.683.686-1.093.686-.684 0-1.094-.412-.82-1.098.273-1.096 2.323-2.33 2.733-2.33zm-.683 4.114l-.137-1.097-.82 1.097h.957zm-9.02-.274c-.547 0-1.914-1.371-1.64-2.605.136-.55.82-1.098 1.503-1.098.547 0 .82.275.82.686.41-.411.82-.686 1.367-.686.546 0 .956.549.82 1.098-.274 1.37-2.46 2.605-2.87 2.605zM6.97 26.422c.41.823.82 1.372 1.503 2.057-.956.549-1.64 1.097-2.46 1.92-.41-.823-.82-1.371-1.503-1.92.957-.685 1.64-1.234 2.46-2.057zm29.247-19.61h2.186l-4.1 15.633h2.05l3.964-15.633h2.186l.684-2.606H36.9l-.683 2.606zm-9.84 0h3.553l.683-2.606H25.01l-4.647 18.24h5.467l.683-2.606H22.96l1.503-5.348h2.734l.683-2.606h-2.733l1.23-5.074zm-11.617 0c.683 0 .82.548.547 1.783l-.274 1.097c-.41 1.371-.956 1.92-1.776 1.92h-.82l1.23-4.8h1.093zm-2.05 7.405c.957 0 1.093.549.683 2.194l-.41 1.646c-.273 1.371-.82 1.783-1.503 1.783h-1.093l1.366-5.623h.957zm2.733-10.01h-3.006L7.653 22.444h3.144c2.05 0 3.416-1.508 4.236-4.388l.41-1.508c.41-1.92.41-3.292-.546-3.84 1.093-.686 1.776-1.783 2.323-3.703l.137-.686c.683-2.742.136-4.114-1.914-4.114z" fill="#303944"/></svg>