<svg width="25" height="24" viewBox="0 0 25 24" fill="none" xmlns="http://www.w3.org/2000/svg">
<path d="M22.4528 6.5975C22.2178 6.4645 21.9293 6.468 21.6973 6.607L17.8333 8.9255V15.0745L21.6978 17.393C21.8163 17.4645 21.9493 17.5 22.0833 17.5C22.2108 17.5 22.3383 17.4675 22.4528 17.4025C22.6878 17.2695 22.8333 17.0205 22.8333 16.75V7.25C22.8333 6.9795 22.6878 6.7305 22.4528 6.5975ZM13.5833 4.5H6.08325C4.28825 4.5 2.83325 5.955 2.83325 7.75V16.25C2.83325 18.045 4.28825 19.5 6.08325 19.5H13.5833C15.3783 19.5 16.8333 18.045 16.8333 16.25V7.75C16.8333 5.955 15.3783 4.5 13.5833 4.5ZM9.83325 14.5C8.45475 14.5 7.33325 13.3785 7.33325 12C7.33325 10.6215 8.45475 9.5 9.83325 9.5C11.2118 9.5 12.3333 10.6215 12.3333 12C12.3333 13.3785 11.2118 14.5 9.83325 14.5Z" fill="#303944"/>
</svg>
