<svg width="128" height="44" fill="none" xmlns="http://www.w3.org/2000/svg"><path d="M60.568 7.745l1.421-1.043a.173.173 0 00.001-.28.175.175 0 00-.102-.034l-1.76-.012a.173.173 0 01-.166-.119l-.553-1.666a.176.176 0 00-.333 0l-.553 1.666a.173.173 0 01-.166.119l-1.76.012a.175.175 0 00-.165.12.175.175 0 00.064.194l1.421 1.043a.193.193 0 01.065.196l-.535 1.671a.172.172 0 00.165.229.174.174 0 00.103-.033l1.433-1.025a.18.18 0 01.202 0l1.433 1.025a.172.172 0 00.205 0 .171.171 0 00.062-.195l-.535-1.672a.168.168 0 01-.007-.107.17.17 0 01.06-.089zm5.714-.254l.805-.59a.098.098 0 00.035-.11.097.097 0 00-.093-.068l-.996-.007a.098.098 0 01-.095-.067l-.312-.944a.1.1 0 00-.188 0l-.314.944a.098.098 0 01-.094.067l-.996.006a.1.1 0 00-.058.02.098.098 0 00-.035.11.099.099 0 00.035.048l.805.591c.016.013.028.03.035.05.006.02.007.04.002.06l-.303.947a.1.1 0 000 .061.1.1 0 00.093.07.1.1 0 00.059-.02l.81-.58a.1.1 0 01.115 0l.81.58a.1.1 0 00.117 0 .1.1 0 00.036-.05.1.1 0 000-.06l-.304-.947a.094.094 0 01.03-.111zm-12.574 0l.805-.59a.097.097 0 00.035-.05.098.098 0 00-.035-.11.1.1 0 00-.058-.019l-.996-.006a.098.098 0 01-.094-.067l-.314-.944a.099.099 0 00-.093-.068.1.1 0 00-.095.068l-.313.944a.098.098 0 01-.094.067l-.997.006a.097.097 0 00-.092.069.094.094 0 000 .06.1.1 0 00.036.05l.804.59a.109.109 0 01.037.11l-.303.947a.099.099 0 00.093.13.1.1 0 00.058-.019l.811-.58a.102.102 0 01.115 0l.811.58a.1.1 0 00.117 0 .099.099 0 00.034-.11l-.302-.947a.094.094 0 01-.005-.06.096.096 0 01.035-.051zm-22.823 9.903c-.296.056-.57.091-1.17.091-.867 0-1.861-.464-1.861-2.172v-.234c0-1.722.994-2.172 1.86-2.172.398.006.794.044 1.185.112.064.007.113.028.113.091v.36c0 .041-.014.076-.085.076h-.02a15.84 15.84 0 00-1.185-.063c-.691 0-1.227.4-1.227 1.596v.234c0 1.181.536 1.596 1.227 1.596.402 0 .91-.035 1.163-.056h.028a.097.097 0 01.086.027.097.097 0 01.027.085v.288c0 .085-.063.127-.14.141zm5.251.043h-.416a.124.124 0 01-.12-.092l-.459-1.395h-1.825l-.452 1.395a.138.138 0 01-.127.092h-.416a.108.108 0 01-.107-.057.106.106 0 01-.012-.04.09.09 0 01.007-.043l1.304-3.95c.12-.37.451-.461.72-.461.26 0 .591.085.711.455l1.304 3.956a.09.09 0 01.007.043c0 .054-.042.097-.12.097zm-1.77-3.963a.135.135 0 00-.134-.11.138.138 0 00-.141.11l-.631 1.964h1.538l-.632-1.964zm7.334 3.963h-.387a.135.135 0 01-.127-.14V13.09a.128.128 0 01.127-.133h.388a.13.13 0 01.092.04.127.127 0 01.035.093v4.206a.133.133 0 01-.127.14zm4.975 0h-.437c-.113 0-.19-.042-.225-.113l-2.179-3.383c-.007-.014-.014-.021-.02-.021-.008 0-.008.007-.008.021v3.362a.132.132 0 01-.127.134h-.366c-.07 0-.127-.014-.127-.084v-4.2a.199.199 0 01.204-.196h.388c.197 0 .233.035.29.14l2.163 3.363.014.021c.007 0 .008-.014.008-.021v-3.37a.13.13 0 01.127-.133h.373a.125.125 0 01.092.04.124.124 0 01.035.093v4.143a.203.203 0 01-.205.204zm3.375.049c-1.107 0-1.911-.647-1.911-2.207v-.165c0-1.56.804-2.207 1.91-2.207 1.107 0 1.904.647 1.904 2.207v.165c0 1.56-.797 2.207-1.904 2.207zm1.254-2.372c0-1.18-.479-1.63-1.255-1.63-.768 0-1.261.45-1.261 1.63v.165c0 1.18.486 1.63 1.261 1.63.769 0 1.255-.45 1.255-1.63v-.165zm-12.335-.084l-.643-.328c-.467-.268-.675-.434-.675-.705 0-.39.281-.549.971-.549.274 0 .636.015 1.078.043h.013a.112.112 0 00.123-.112v-.255c0-.044-.021-.1-.121-.118a8.744 8.744 0 00-1.093-.08c-1.02 0-1.58.38-1.58 1.07 0 .517.348.825.873 1.128l.674.35c.548.321.744.488.744.783 0 .462-.328.686-1.002.686-.283 0-.737-.02-1.035-.044h-.018a.11.11 0 00-.088.028.111.111 0 00-.036.084v.238c0 .075.02.105.133.123l.005.001c.343.059.69.089 1.038.091 1.514 0 1.631-.923 1.631-1.207 0-.486-.269-.82-.992-1.228zm-3.861 3.13h-2.173a.224.224 0 00-.223.222v4.855c0 .878-.535 1.067-1.115 1.067-.579 0-1.114-.19-1.114-1.067v-4.855a.222.222 0 00-.223-.222h-2.172a.234.234 0 00-.234.222v4.855c0 2.856 2.017 3.289 3.744 3.289 1.727 0 3.744-.433 3.744-3.289v-4.855a.232.232 0 00-.234-.222zm16.515 0H49.45a.224.224 0 00-.222.222v4.855c0 .878-.535 1.067-1.115 1.067s-1.114-.19-1.114-1.067v-4.855a.223.223 0 00-.223-.222h-2.172a.232.232 0 00-.234.222v4.855c0 2.856 2.016 3.289 3.744 3.289 1.727 0 3.744-.433 3.744-3.289v-4.855a.234.234 0 00-.235-.222zm-9.498 5.032c.601-.266 1.281-.966 1.281-2.155v-.222c0-2.1-1.393-2.767-3.632-2.767-.77 0-2.433.078-2.812.134-.602.1-.78.255-.78.944v7.066a.233.233 0 00.234.223h2.173a.224.224 0 00.223-.223v-2.61h.728l1.325 2.61c.056.112.1.223.301.223h2.33a.2.2 0 00.2-.2.287.287 0 00-.034-.122l-1.537-2.9zm-1.337-2.144c0 .3-.212.589-.77.589h-1.207v-1.4h1.208c.568 0 .769.211.769.59v.221zm-16.544-1.944c.833.02 1.977.08 2.38.135.189.026.23-.04.23-.242v-1.972c0-.174-.014-.214-.283-.295-.437-.128-1.44-.294-2.519-.371a9.616 9.616 0 00-.58-.019c-.455 0-.866.034-1.1.09a.43.43 0 01-.012.168c-.058.206-.25.317-.36.364a8.5 8.5 0 01-1.062.37c-.33.125-.584.185-.777.185a.658.658 0 01-.245-.042c-.537.466-1.032 1.159-1.342 2.203a7.232 7.232 0 00-.091 1.184v1.14c0 3.863 2.57 4.547 4.278 4.547 1.264 0 2.989-.2 3.81-.375.241-.054.282-.067.282-.295v-4.7a.285.285 0 00-.285-.285h-3.36a.262.262 0 00-.27.252v1.174a.26.26 0 00.27.25h.804a.085.085 0 01.085.086v1.04c0 .03-.01.058-.03.079a.114.114 0 01-.077.036c-.308.02-1.125.03-1.228.03-.404 0-1.063-.054-1.063-1.812v-1.167c0-1.476.823-1.798 2.545-1.758z" fill="#303944"/><path d="M19.63 16.897a.735.735 0 00.002-.063 6.487 6.487 0 01-.004-.338v-.107c-1.686 1.434-1.764 2.624-1.664 3.197.014.08.133.13.236.13.072 0 .137-.025.152-.08.316-1.078.826-1.802 1.381-2.296-.117-.145-.11-.33-.103-.443zm-2.95-4.549a.072.072 0 00.036-.01c.36-.206.885-.467 1.258-.636.063-.21.13-.419.203-.626-.56.227-1.222.679-1.557 1.16a.072.072 0 00.06.112zm3.325-1.379c.249-.027.499-.042.749-.044.545 0 1.085.095 1.597.282a.072.072 0 00.04.002 2.79 2.79 0 01.625-.076 3.025 3.025 0 01.557.056.072.072 0 00.038-.133c-.685-.443-1.73-.571-2.655-.571-.488 0-.975.034-1.458.102.157.114.329.244.507.382zm1.939.314c-.313-.14-.737-.176-1.122-.176-.227 0-.439.013-.609.023.253.199.515.41.766.614.308-.134.626-.245.95-.332.076-.02.086-.098.015-.13zm-.61.753c.499.413.91.767 1.064.908.89.005 1.974.097 2.88.633.01.007.024.01.037.01a.073.073 0 00.072-.069c.03-.665-.179-1.335-.614-1.618a2.652 2.652 0 00-1.503-.468c-.524 0-1.171.15-1.936.604zm-3.66 3.637l-.017-.02a1.565 1.565 0 01-.336-1.33l.019-.088.012-.06-.02.017-.006.005c-2.486 2.407-1.836 4.27-1.056 5.117a.069.069 0 00.051.023.074.074 0 00.056-.026.073.073 0 00.015-.06c-.111-.563-.12-1.348.237-2.088.238-.494.623-.983 1.044-1.49zm7.639-1.663a5.237 5.237 0 00-2.684-.796 1.358 1.358 0 01.107 1.278c-.067.162-.16.311-.277.442 1.665.138 2.56 1.106 2.682 1.283a.059.059 0 00.039.031 15.292 15.292 0 01.526.075c.048 0 .077-.058.07-.11-.085-.575-.675-.852-1.011-1.138a.072.072 0 01-.021-.08.073.073 0 01.066-.047c.009 0 .018.001.026.004.547.202.75.8 1 .862.004.002.01.002.014.002a.073.073 0 00.07-.069c.05-.974-.195-1.474-.608-1.738zm-3.17 1.333c-.072 0-.142.001-.209.004h-.003a.07.07 0 01-.042-.014 1.477 1.477 0 01-.254.074c.319.38.563.677.635.778l.021.034.028-.006c.248-.06.673-.095 1.152-.095.287 0 .593.013.892.041h.007a.074.074 0 00.074-.087.073.073 0 00-.02-.038c-.604-.545-1.555-.691-2.28-.691zm-6.673-.681a.071.071 0 00.053-.024c.51-.565 1.372-1.23 2.095-1.627.08-.332.177-.699.287-1.075-.68.393-1.441.885-1.67 1.092-.296.266-.856.95-.838 1.565a.072.072 0 00.072.069z" fill="#303944"/><path d="M17.453 13.72c.027-.123.057-.257.091-.4-.566.329-1.391.923-2.025 1.723l-.004.005c-.189.277-.813 1.035-.338 1.901a.072.072 0 00.134-.022c.1-.622.453-1.81 2.142-3.208zm1.732 2.587a1.467 1.467 0 01-.185.013 1.744 1.744 0 01-1.08-.405c-.57.605-1.026 1.437-1.124 2.008-.184 1.062.049 1.951.856 2.451a.07.07 0 00.037.01.074.074 0 00.058-.029.072.072 0 00.011-.063c-.6-2.049.632-3.183 1.427-3.985zm2.185-.871h-.02a1.768 1.768 0 01-.948-.298c-.116.381-.306.68-.552.883.004.431-.003.686.004.8.01.147-.088.474.307.474.152 0 .377-.049.709-.174a8.197 8.197 0 001.04-.362c.142-.062.346-.21.18-.445a28.776 28.776 0 00-.72-.878z" fill="#303944"/><path d="M19 16.098c.557 0 1.097-.376 1.263-1.34.379.324.753.457 1.087.457 1.049 0 1.712-1.3.938-2.068-.218-.216-2.941-2.518-3.585-2.814-.644 1.482-1.058 3.539-1.164 4.037-.198.936.65 1.728 1.46 1.728zm47.205-2.858h3.886v1.017h-2.763v1.083h2.435v1.018h-2.435v1.97h-1.123V13.24zm5.731-.037h1.035l2.188 5.125h-1.174l-.467-1.141H71.36l-.466 1.141h-1.145l2.188-5.125zm1.18 2.995l-.677-1.65-.678 1.65h1.356zm2.664-2.958h1.123v5.089h-1.124v-5.09zm2.18 0h2.332c.65 0 1.152.181 1.488.515.284.284.438.684.438 1.164v.014c0 .822-.446 1.338-1.094 1.578l1.247 1.817h-1.313L79.964 16.7h-.882v1.629h-1.123v-5.09zm2.26 2.471c.546 0 .86-.29.86-.72v-.014c0-.48-.336-.727-.882-.727h-1.116v1.461h1.137zm-14.097 7.627v-.015c0-1.44 1.08-2.631 2.552-2.631.912 0 1.459.334 1.984.814l-.27.276c-.445-.429-.956-.749-1.72-.749-1.226 0-2.152.996-2.152 2.276v.014c0 1.287.94 2.29 2.158 2.29.737 0 1.24-.283 1.757-.792l.256.247c-.54.53-1.123.887-2.027.887-1.458 0-2.538-1.156-2.538-2.617zm7.549-2.596h.365l2.376 5.126h-.415l-.649-1.425h-3.011l-.65 1.425h-.393l2.377-5.126zm1.517 3.36l-1.342-2.945-1.349 2.944h2.69zm1.864 1.024l.248-.284c.561.517 1.08.757 1.83.757.766 0 1.29-.43 1.29-1.01v-.015c0-.539-.284-.851-1.443-1.084-1.225-.247-1.72-.661-1.72-1.432v-.015c0-.756.692-1.337 1.64-1.337.744 0 1.232.203 1.75.618l-.241.298c-.481-.415-.962-.575-1.524-.575-.75 0-1.246.43-1.246.96v.014c0 .538.276.866 1.487 1.113 1.181.24 1.677.661 1.677 1.403v.015c0 .82-.707 1.388-1.692 1.388-.816 0-1.444-.269-2.056-.814zm5.047-4.347h.38v5.09h-.38v-5.09zm1.945 0h.358l3.521 4.427V20.78h.365v5.09h-.285l-3.594-4.523v4.522h-.365v-5.09zm5.535 2.559v-.015c0-1.388 1.029-2.631 2.574-2.631 1.546 0 2.56 1.228 2.56 2.617v.014c0 1.389-1.028 2.632-2.574 2.632-1.546 0-2.56-1.229-2.56-2.617zm4.74 0v-.015c0-1.257-.919-2.29-2.18-2.29-1.261 0-2.166 1.018-2.166 2.276v.014c0 1.258.92 2.29 2.18 2.29 1.262 0 2.166-1.017 2.166-2.275zM59.162 12.504a.183.183 0 00-.183.182V26.64a.183.183 0 00.366 0V12.686a.183.183 0 00-.183-.182z" fill="#303944"/><path d="M93.134 35.852H2.32V2.592h114.339v17.124a41.213 41.213 0 011.829-1.041V.768H.49v36.908h93.86a72.395 72.395 0 00-1.216-1.824zm23.525-11.659v11.659h-10.852c-.468.6-.928 1.208-1.383 1.824h14.064V22.603a86.8 86.8 0 00-1.829 1.59z" fill="#303944"/><path d="M88.045 31.264c.525-1.493 2.31-3.188 5.41-2.707 2.451.527 4.474 2.181 6.094 4.892 8.973-9.586 16.697-16.19 26.922-18.7.913-.166 1.393-.13.73.448-10.55 6.563-20.073 16.057-27.453 27.84-.173.275-.794.257-1.003-.041-2.286-3.133-3.915-6.19-6.2-9.324-1.02-1.62-2.309-2.785-4.499-2.41v.002z" fill="#303944"/></svg>