<svg width="33" height="32" viewBox="0 0 33 32" fill="none" xmlns="http://www.w3.org/2000/svg">
<g clip-path="url(#clip0_655_3290)">
<path d="M27.6509 24.3615C27.745 24.2927 27.7453 24.2776 27.6572 24.0123C27.6066 23.8599 27.5221 23.6819 27.4694 23.6169C27.3861 23.514 27.383 23.4807 27.4457 23.3599C27.4853 23.2835 27.5423 23.2181 27.5723 23.2144C27.6024 23.2106 27.6727 23.2046 27.7285 23.2009C27.8511 23.1927 27.9117 23.0001 27.836 22.8587C27.7971 22.786 27.8003 22.7331 27.8469 22.677C27.9137 22.5965 27.9118 22.5888 27.7338 22.2126C27.681 22.1009 27.6795 22.0484 27.7273 21.9907C27.7758 21.9323 27.7715 21.8999 27.7085 21.8476C27.6637 21.8104 27.627 21.7223 27.627 21.6518C27.627 21.5814 27.6086 21.5237 27.5861 21.5237C27.5391 21.5237 27.3841 21.7498 27.3974 21.7989C27.4023 21.8169 27.3462 21.8638 27.2727 21.9031C27.1992 21.9424 27.125 22.0307 27.1078 22.0994C27.0906 22.1681 27.0566 22.2242 27.0323 22.2242C27.008 22.2242 26.9531 22.2592 26.9104 22.3018C26.7973 22.415 26.6288 22.3481 26.5204 22.1468C26.4531 22.0217 26.3853 21.9693 26.2855 21.965C26.2083 21.9617 26.0531 21.95 25.9407 21.939C25.8282 21.928 25.7246 21.9377 25.7105 21.9606C25.6728 22.0217 25.4777 21.9722 25.3226 21.8623C25.1306 21.7262 25.0815 21.6981 24.9597 21.6549C24.8574 21.6186 24.8583 21.615 24.978 21.5833L25.1041 21.5499L24.9645 21.3993C24.8878 21.3165 24.825 21.2257 24.825 21.1976C24.825 21.1695 24.7997 21.1465 24.7687 21.1465C24.7378 21.1465 24.6469 21.0847 24.5667 21.0092C24.4302 20.8806 24.395 20.8736 24.0167 20.8999C23.4372 20.9401 23.3702 20.9516 23.3694 21.0118C23.3691 21.0415 23.2842 21.1205 23.1808 21.1874C22.9672 21.3258 22.9453 21.4142 23.1007 21.5112C23.2212 21.5865 23.2472 21.8406 23.1449 21.9429C23.1098 21.978 23.0789 22.17 23.076 22.3713C23.0714 22.6926 23.0528 22.7552 22.9205 22.8961L22.7702 23.056L22.5321 22.9704C22.3368 22.9001 22.2771 22.8971 22.1999 22.9536C22.1231 23.0097 22.0789 23.0085 21.9595 22.9467C21.828 22.8787 21.7938 22.8825 21.6214 22.9843C21.5159 23.0465 21.4155 23.1533 21.3984 23.2215C21.3764 23.309 21.3152 23.3553 21.1906 23.3787C21.0935 23.3969 20.971 23.4592 20.9185 23.5172C20.8661 23.5752 20.7982 23.6073 20.7678 23.5885C20.7373 23.5697 20.5729 23.5593 20.4024 23.5655C20.1445 23.5748 20.0739 23.5569 19.9828 23.4592C19.9116 23.3827 19.8345 23.3519 19.762 23.3708C19.6871 23.3904 19.6326 23.3663 19.5956 23.2971C19.5267 23.1683 19.1454 23.1557 18.9173 23.2746C18.8324 23.3189 18.7181 23.3553 18.6633 23.3555C18.5504 23.3558 18.2511 23.0595 18.2511 22.9474C18.2511 22.8672 17.9845 22.7092 17.8494 22.7092C17.716 22.7092 17.3669 22.5025 17.326 22.3993C17.2957 22.3227 17.288 22.3288 17.2849 22.432C17.2828 22.5018 17.2205 22.631 17.1464 22.719C17.0063 22.8856 16.9696 23.1305 17.0698 23.2306C17.1112 23.2721 17.0879 23.3286 16.988 23.4285C16.8746 23.5419 16.8154 23.5621 16.674 23.5353C16.5782 23.5171 16.4706 23.4794 16.4348 23.4513C16.3991 23.4233 16.3477 23.414 16.3208 23.4307C16.2652 23.4651 16.1294 23.3237 16.0773 23.1772C16.0514 23.1045 15.9976 23.0838 15.867 23.0964C15.7705 23.1057 15.6673 23.0842 15.6377 23.0487C15.5964 22.9991 15.5145 23.0103 15.2874 23.0967C15.1244 23.1587 14.9221 23.2068 14.8378 23.2035C14.7279 23.1993 14.6926 23.2188 14.7131 23.2723C14.7451 23.3557 14.6608 23.3986 14.376 23.4437C14.2697 23.4605 14.1661 23.4845 14.1456 23.497C14.1252 23.5095 14.0524 23.4602 13.984 23.3874C13.9091 23.3078 13.785 23.2483 13.6726 23.2381C13.5137 23.2236 13.4782 23.1948 13.4358 23.046C13.4083 22.9496 13.353 22.8708 13.3128 22.8708C13.2675 22.8708 13.2398 22.8091 13.2398 22.7083C13.2398 22.5755 13.2052 22.5293 13.0507 22.4556C12.9158 22.3913 12.8449 22.382 12.8036 22.4233C12.7124 22.5146 12.5424 22.4405 12.4549 22.2713C12.3705 22.108 12.216 22.0601 12.216 22.1973C12.216 22.2417 12.1796 22.2781 12.1352 22.2781C12.0718 22.2781 12.0543 22.2044 12.0543 21.9376C12.0543 21.7504 12.0163 21.4691 11.9698 21.3127C11.9234 21.1562 11.8966 21.0169 11.9103 21.0032C11.924 20.9895 11.8772 20.9156 11.8062 20.839C11.6464 20.6665 11.6453 20.6305 11.7984 20.5814C11.9038 20.5476 11.8918 20.5371 11.7069 20.501C11.5537 20.4711 11.4738 20.48 11.421 20.5328C11.3473 20.6065 11.1424 20.6037 10.9586 20.5264C10.8815 20.494 10.8755 20.4752 10.9314 20.4407C10.9877 20.4059 10.98 20.3789 10.8955 20.3152C10.8364 20.2705 10.7585 20.2331 10.7224 20.2322C10.6863 20.2313 10.6707 20.1941 10.6877 20.1497C10.7104 20.0906 10.681 20.0688 10.5783 20.0688C10.4441 20.0688 10.3905 19.9725 10.4767 19.8862C10.4982 19.8648 10.521 19.7637 10.5276 19.6617C10.5373 19.5098 10.5204 19.4761 10.4347 19.4761C10.3771 19.4761 10.2828 19.4289 10.2252 19.3713C10.1413 19.2874 10.0878 19.2757 9.95769 19.3131C9.78017 19.364 9.29736 19.2781 8.74042 19.0965C8.5626 19.0385 8.38265 18.9911 8.34053 18.9911C8.29841 18.9911 8.22113 18.9524 8.1688 18.905C8.11647 18.8577 8.05078 18.8331 8.02281 18.8504C7.93989 18.9016 7.90978 19.1733 7.97734 19.2606C8.03134 19.3303 8.0274 19.3316 7.94859 19.2699C7.80505 19.1575 7.60623 19.2093 7.62168 19.355C7.63619 19.4919 7.49076 19.5231 7.37162 19.4087C7.31428 19.3537 7.30687 19.3808 7.3311 19.5569C7.39595 20.0283 7.39537 20.0381 7.30165 20.0571C7.25123 20.0674 7.15752 20.0154 7.0934 19.9416C7.02927 19.8679 6.9471 19.8189 6.9108 19.8329C6.82499 19.8658 6.73493 19.7536 6.71144 19.5844C6.7 19.5021 6.6514 19.4424 6.5856 19.4298C6.52664 19.4186 6.44532 19.3621 6.40489 19.3044C6.3636 19.2455 6.29652 19.2128 6.25186 19.23C6.20812 19.2467 6.11365 19.2457 6.04191 19.2277C5.94233 19.2027 5.91148 19.1589 5.91148 19.0424C5.91148 18.8558 5.82994 18.7934 5.75507 18.9227C5.71301 18.9953 5.70408 18.9565 5.71769 18.7602C5.73221 18.5508 5.71635 18.4921 5.63321 18.4476C5.57692 18.4174 5.5345 18.3637 5.53896 18.3282C5.55885 18.1697 5.52784 18.1231 5.41305 18.1391C5.32248 18.1517 5.28752 18.1258 5.27486 18.0368C5.25979 17.9308 5.23446 17.9209 5.04585 17.9473C4.92135 17.9647 4.83379 17.9548 4.83379 17.9233C4.83379 17.8939 4.73073 17.875 4.60478 17.8813C4.41762 17.8908 4.37273 17.9136 4.35915 18.0064C4.35 18.0688 4.30665 18.1336 4.26281 18.1505C4.17477 18.1843 4.10607 18.0621 4.14948 17.949C4.2018 17.8126 4.11 17.7579 3.8805 17.7887C3.70614 17.8121 3.64998 17.8456 3.62617 17.9405C3.5948 18.0655 3.3789 18.1682 3.3789 18.0581C3.3789 18.0246 3.34043 18.0522 3.2934 18.1193C3.22821 18.2124 3.22252 18.259 3.26944 18.3155C3.31712 18.373 3.30906 18.4021 3.23371 18.4444C3.1423 18.4959 3.14402 18.5063 3.26227 18.6168C3.34817 18.6972 3.37834 18.771 3.35731 18.8494C3.34036 18.9125 3.32616 18.9945 3.32575 19.0316C3.32535 19.0686 3.28865 19.0989 3.24419 19.0989C3.14681 19.0989 3.13605 19.2912 3.23018 19.3494C3.38032 19.4422 3.02124 19.4541 2.80579 19.3634C2.61076 19.2814 2.56488 19.279 2.43832 19.3447C2.35878 19.386 2.27721 19.4174 2.25705 19.4146C2.08481 19.3905 2.03079 19.4317 2.04198 19.5785C2.04853 19.6645 2.0231 19.7719 1.98548 19.8172C1.92872 19.8856 1.93482 19.9092 2.02122 19.9554C2.07851 19.9861 2.1407 19.9958 2.15941 19.9771C2.17813 19.9584 2.19344 19.9714 2.19344 20.006C2.19344 20.0432 2.10722 20.0688 1.98218 20.0688C1.75321 20.0688 1.76708 20.0462 1.67738 20.5673C1.6511 20.72 1.61688 20.7693 1.53729 20.7693C1.31285 20.7693 1.22352 20.67 1.22352 20.4204C1.22352 20.2898 1.19769 20.167 1.16613 20.1475C1.13457 20.128 1.11289 20.0478 1.11796 19.9692C1.14201 19.5962 1.11581 19.5035 0.961548 19.4157C0.834963 19.3437 0.802864 19.2826 0.778592 19.0672C0.762401 18.9236 0.722012 18.797 0.688837 18.786C0.607852 18.759 0.469132 18.4839 0.469132 18.3503C0.469132 18.2912 0.423244 18.2107 0.367158 18.1714C0.279974 18.1104 0.260471 18.0041 0.23269 17.4384L0.200195 16.7768L0.330313 16.9172C0.445006 17.041 0.473721 17.0493 0.57255 16.9876C0.662635 16.9314 0.705851 16.9308 0.79244 16.9849C0.889196 17.0453 0.900209 17.0387 0.900209 16.9202C0.900209 16.8476 0.924457 16.7732 0.954094 16.7549C0.98373 16.7366 1.00817 16.7412 1.0084 16.7652C1.00882 16.8089 1.26079 16.9435 1.34203 16.9435C1.4234 16.9435 1.38519 16.7872 1.29087 16.7343C1.20754 16.6875 1.20646 16.6775 1.28158 16.6486C1.38758 16.6077 1.65459 16.7048 1.65459 16.7842C1.65459 16.8628 1.88383 16.7904 1.94017 16.694C1.96387 16.6534 2.01842 16.6202 2.06141 16.6202C2.10439 16.6202 2.13956 16.5988 2.13956 16.5726C2.13956 16.5464 2.18805 16.5123 2.24732 16.4968C2.38039 16.462 2.39419 16.1845 2.27429 15.9546C2.23021 15.8701 2.20814 15.7452 2.22525 15.677C2.25134 15.5731 2.23059 15.5474 2.09668 15.518C1.95902 15.4878 1.93874 15.4607 1.94966 15.3219C1.95663 15.2334 2.01433 15.1125 2.07788 15.0533C2.21585 14.9247 2.21824 14.9014 2.10946 14.7461C2.03015 14.6329 2.03306 14.6233 2.16184 14.5744C2.24266 14.5436 2.31309 14.4632 2.33476 14.3769C2.36549 14.2544 2.33918 14.2017 2.16961 14.0463L1.96791 13.8615L2.1177 13.7051C2.29489 13.5202 2.33313 13.5128 2.37071 13.6566C2.39137 13.7356 2.44421 13.7643 2.56877 13.7643C2.67921 13.7643 2.72575 13.7435 2.7018 13.7047C2.65012 13.6211 2.78381 13.2224 2.9119 13.0782C2.97067 13.0121 3.06342 12.9437 3.118 12.9264C3.22139 12.8936 3.25783 12.6642 3.16842 12.6089C3.14157 12.5923 3.13156 12.533 3.14617 12.4771C3.16079 12.4212 3.14639 12.3592 3.11417 12.3393C3.02669 12.2852 3.04349 12.1478 3.13758 12.1478C3.18267 12.1478 3.24718 12.0872 3.28094 12.0131C3.3147 11.939 3.3748 11.8784 3.41449 11.8784C3.45419 11.8784 3.48667 11.855 3.48667 11.8264C3.48667 11.7978 3.53884 11.7465 3.60261 11.7123C3.70137 11.6595 3.7136 11.6632 3.68513 11.7374C3.64056 11.8535 3.73193 11.8487 3.82039 11.7302C3.85912 11.6783 4.00713 11.5811 4.1493 11.5141C4.43023 11.3818 4.56366 11.4063 4.67279 11.6102C4.76945 11.7908 4.83761 11.7327 4.80059 11.5012C4.77665 11.3514 4.78565 11.2856 4.83008 11.2856C4.86525 11.2856 4.87744 11.2588 4.85716 11.226C4.83311 11.1871 4.85541 11.1774 4.92134 11.1981C5.13556 11.2656 5.61307 11.3395 5.83416 11.3395C6.0653 11.3395 6.26697 11.2196 6.20486 11.1192C6.14739 11.0262 6.23912 10.8615 6.35858 10.8432C6.42386 10.8332 6.47121 10.7953 6.4638 10.759C6.45639 10.7226 6.49882 10.6929 6.5581 10.6929C6.62465 10.6929 6.66603 10.6568 6.66628 10.5986C6.66669 10.5078 6.88349 10.3696 7.02562 10.3696C7.06348 10.3696 7.13712 10.3029 7.18926 10.2214C7.31997 10.0171 7.42398 9.94238 7.5819 9.93941C7.77063 9.93585 7.83228 9.88309 7.87433 9.68915C7.90514 9.54711 7.94135 9.51568 8.10471 9.48917C8.24718 9.46605 8.33729 9.4853 8.44474 9.56181C8.52515 9.61906 8.60293 9.65392 8.61759 9.63926C8.63225 9.6246 8.67645 9.65141 8.71581 9.69884C8.76265 9.75528 8.76833 9.79762 8.73223 9.82138C8.65983 9.86905 8.60222 10.1002 8.66275 10.1002C8.68856 10.1002 8.73879 10.1545 8.77435 10.221C8.85383 10.3695 8.83976 11.4948 8.75718 11.5943C8.72612 11.6317 8.61001 11.6895 8.49918 11.7227C8.3332 11.7724 8.27451 11.7679 8.16633 11.697C7.96933 11.5679 7.79453 11.0223 7.79627 10.5418C7.79683 10.388 7.70488 10.4353 7.62351 10.6308C7.54631 10.8162 7.54272 10.8305 7.53476 10.9856C7.53035 11.0714 7.48608 11.1294 7.40678 11.1535C7.19817 11.2167 7.04306 11.3989 7.04306 11.5806C7.04306 11.6733 7.01396 11.7781 6.97839 11.8137C6.93584 11.8563 6.93369 11.8784 6.97211 11.8784C7.00422 11.8784 7.04317 11.9269 7.05867 11.9861C7.09014 12.1065 7.22881 12.1301 7.29583 12.0265C7.31981 11.9895 7.33942 11.8991 7.33942 11.8257C7.33942 11.7423 7.3743 11.6852 7.43222 11.6738C7.50631 11.6592 7.52363 11.6922 7.51817 11.8376C7.5044 12.2037 7.75783 12.3853 7.8627 12.0844C7.91912 11.9226 7.92129 11.9218 8.22011 11.9592C8.40183 11.9819 8.54673 12.0319 8.58641 12.0857C8.62315 12.1355 8.62985 12.1827 8.60161 12.1928C8.51703 12.2231 8.60504 12.3094 8.72051 12.3094C8.85023 12.3094 8.96386 12.206 8.99111 12.0632C9.00222 12.005 9.06361 11.9517 9.13056 11.9421C9.19635 11.9327 9.29672 11.8659 9.35361 11.7935C9.41901 11.7104 9.48875 11.6742 9.54328 11.6951C9.64431 11.7339 9.64833 11.768 9.57474 11.9615C9.53328 12.0706 9.50313 12.0916 9.4507 12.0481C9.32924 11.9473 9.1575 12.0352 9.13165 12.2113C9.10072 12.4221 9.22048 12.5465 9.40901 12.4995C9.74573 12.4155 10.183 12.4534 10.317 12.5783C10.3842 12.6409 10.4458 12.6633 10.4651 12.6322C10.4832 12.6029 10.5489 12.5789 10.611 12.5789C10.7201 12.5789 10.7207 12.5824 10.6273 12.6856C10.5463 12.7751 10.5422 12.8062 10.6015 12.8777C10.6447 12.9297 10.7182 12.9515 10.79 12.9335C10.8644 12.9148 10.9398 12.9394 10.995 13.0005C11.0494 13.0606 11.1456 13.0927 11.2496 13.0855C11.4001 13.0751 11.4137 13.0866 11.3852 13.1999C11.3584 13.3068 11.3724 13.3239 11.4772 13.3127C11.6553 13.2938 11.731 13.2341 11.731 13.1128C11.731 12.9197 11.8806 12.937 12.0795 13.1531C12.2681 13.358 12.3592 13.5313 12.3062 13.5843C12.2912 13.5993 12.3261 13.6589 12.3838 13.7166C12.4415 13.7743 12.5032 13.8936 12.5208 13.9816C12.5384 14.0695 12.5831 14.1415 12.6203 14.1415C12.7312 14.1415 12.8202 13.9931 12.7818 13.8721C12.762 13.8097 12.775 13.7242 12.8109 13.6809C12.8567 13.6257 12.858 13.6027 12.8153 13.6027C12.7202 13.6027 12.7445 13.4443 12.8626 13.2941C12.9219 13.2187 12.9704 13.0997 12.9704 13.0296C12.9704 12.9392 13.0009 12.9022 13.0754 12.9022C13.1332 12.9022 13.296 12.7931 13.4371 12.6597C13.5783 12.5263 13.6992 12.4172 13.7058 12.4172C13.7124 12.4172 13.7799 12.4409 13.856 12.4698C14.0426 12.5407 14.0357 12.7222 13.8373 12.9581C13.7234 13.0935 13.6878 13.1829 13.7075 13.284C13.7244 13.3704 13.7021 13.456 13.6489 13.5092C13.6017 13.5564 13.5631 13.6164 13.5631 13.6426C13.5631 13.6688 13.5141 13.7916 13.4542 13.9155C13.3855 14.0578 13.3578 14.1905 13.3791 14.2754C13.4035 14.3726 13.388 14.4195 13.3232 14.4443C13.2739 14.4633 13.2467 14.5128 13.2626 14.5543C13.2805 14.6009 13.2403 14.6494 13.1579 14.6808C13.0844 14.7087 13.0243 14.7547 13.0243 14.7829C13.0243 14.8111 12.9458 14.8733 12.85 14.9211C12.6878 15.002 12.671 15.0015 12.6075 14.9147C12.57 14.8634 12.5393 14.8412 12.5393 14.8653C12.5393 14.8894 12.5029 14.8789 12.4585 14.842C12.4095 14.8014 12.3776 14.7971 12.3776 14.831C12.3776 14.9683 12.4578 15.0671 12.6263 15.1375C12.7902 15.206 12.8319 15.2029 13.0508 15.1061C13.3675 14.966 13.5873 14.7582 13.6009 14.5862C13.6152 14.405 13.6733 14.3537 13.8206 14.3922C13.9583 14.4282 14.0394 14.6567 13.9471 14.749C13.872 14.8241 13.8668 15.0576 13.9403 15.0576C13.9699 15.0576 14.0451 15.1085 14.1073 15.1706L14.2204 15.2837L14.1802 15.1574C14.1582 15.0879 14.1016 15.0028 14.0544 14.9683C13.9764 14.9113 13.9772 14.8963 14.0622 14.8022C14.1137 14.7454 14.1558 14.6464 14.1558 14.5822C14.1558 14.4412 13.9535 14.1957 13.8363 14.1946C13.7898 14.1941 13.7204 14.1739 13.6823 14.1497C13.5954 14.0946 13.678 13.8489 13.8424 13.6733C13.9217 13.5887 13.9468 13.5037 13.9314 13.372C13.9101 13.1893 13.9824 13.0638 14.1089 13.0638C14.1449 13.0638 14.2247 13.0214 14.2863 12.9695C14.3954 12.8777 14.3961 12.878 14.3146 12.983C14.2685 13.0423 14.2243 13.1693 14.2163 13.2652C14.2044 13.4076 14.2273 13.4513 14.3404 13.5029C14.4167 13.5376 14.4791 13.5864 14.4791 13.6113C14.4791 13.6362 14.5147 13.6566 14.5583 13.6566C14.6598 13.6566 14.6042 13.4947 14.4692 13.3976C14.3508 13.3124 14.3402 13.1716 14.4522 13.1716C14.4966 13.1716 14.533 13.1958 14.533 13.2255C14.533 13.2551 14.5722 13.2794 14.6201 13.2794C14.6797 13.2794 14.6986 13.2464 14.6801 13.1754C14.6602 13.0994 14.6792 13.0734 14.7509 13.0788C14.8048 13.0829 14.837 13.1054 14.8225 13.1289C14.808 13.1524 14.8334 13.1716 14.8791 13.1716C14.9247 13.1716 14.9773 13.2324 14.996 13.3068C15.0165 13.3887 15.0806 13.4547 15.1587 13.4743C15.3155 13.5137 15.3252 13.5802 15.1796 13.6183C15.106 13.6375 15.0719 13.6918 15.0719 13.7894C15.0719 13.8796 15.0937 13.9188 15.1311 13.8957C15.1663 13.874 15.1616 13.911 15.1197 13.9868C15.0808 14.0571 15.0567 14.1388 15.0661 14.1685C15.0865 14.2329 15.1159 14.3681 15.1216 14.4244C15.1277 14.4837 15.2874 14.4738 15.2874 14.4141C15.2874 14.3862 15.2641 14.349 15.2356 14.3314C15.2024 14.3109 15.2024 14.2503 15.2356 14.163C15.2641 14.0881 15.2874 13.954 15.2874 13.865C15.2874 13.7761 15.3139 13.6539 15.3463 13.5933C15.3889 13.5138 15.3889 13.467 15.3463 13.4245C15.3139 13.3921 15.2874 13.3307 15.2874 13.288C15.2874 13.2453 15.2513 13.1835 15.2072 13.1506C15.1496 13.1076 15.1362 13.035 15.1596 12.8931L15.1923 12.6955L15.5631 12.7045C15.8246 12.7109 15.934 12.734 15.934 12.7828C15.934 12.8338 15.9607 12.8378 16.0348 12.7982C16.111 12.7573 16.1326 12.6922 16.1234 12.5296C16.1152 12.3853 16.1363 12.3054 16.1877 12.2857C16.2298 12.2695 16.2507 12.2346 16.2343 12.208C16.1916 12.1389 16.5388 11.9861 16.7387 11.9861C16.8389 11.9861 16.9199 11.9533 16.9383 11.9053C16.9728 11.8155 17.1195 11.7936 17.1195 11.8784C17.1195 11.908 17.1631 11.9322 17.2165 11.9322C17.3369 11.9322 17.6035 11.8118 17.604 11.7571C17.6043 11.7349 17.6609 11.7167 17.7298 11.7167C17.8372 11.7167 17.8519 11.6945 17.8325 11.562C17.8036 11.3655 18.0634 11.0892 18.1834 11.1888C18.2427 11.238 18.2432 11.2576 18.1863 11.2943C18.1303 11.3305 18.1325 11.3501 18.1972 11.3926C18.2416 11.4218 18.3083 11.446 18.3454 11.4465C18.3824 11.4469 18.4127 11.4958 18.4127 11.5551C18.4127 11.681 18.5098 11.6994 18.5549 11.582C18.6029 11.4568 18.8411 11.4863 19.0462 11.6428C19.1889 11.7516 19.215 11.7955 19.1591 11.8324C19.0999 11.8714 19.1039 11.8939 19.1806 11.9527C19.316 12.0565 19.2989 12.1296 19.0867 12.3535C18.9833 12.4626 18.8984 12.5771 18.8981 12.6078C18.8979 12.6385 18.7886 12.7792 18.6552 12.9204C18.5218 13.0615 18.4135 13.2061 18.4144 13.2417C18.4154 13.2779 18.4476 13.2649 18.4877 13.212C18.5271 13.1601 18.6096 13.1177 18.671 13.1177C18.7366 13.1177 18.7973 13.0717 18.8181 13.006C18.839 12.9402 18.8841 12.9061 18.9279 12.9229C18.9688 12.9386 19.0377 12.9161 19.0809 12.8729C19.1829 12.7709 19.3626 12.7722 19.4021 12.8752C19.4192 12.9197 19.4596 12.9561 19.4919 12.9561C19.5242 12.9561 19.5373 12.9345 19.521 12.9081C19.4775 12.8376 19.7335 12.6866 19.8965 12.6866C19.9737 12.6866 20.0733 12.723 20.1178 12.7675C20.2219 12.8716 20.4761 12.8708 20.6795 12.7656C20.8158 12.6951 20.8309 12.6672 20.7821 12.5759C20.7028 12.4279 20.7603 12.3614 20.9369 12.3967C21.036 12.4165 21.1096 12.3981 21.1564 12.3417C21.2199 12.2652 21.2425 12.268 21.3859 12.3701C21.4777 12.4355 21.5328 12.5149 21.5162 12.558C21.4998 12.6008 21.5213 12.6328 21.5667 12.6328C21.6572 12.6328 21.6725 12.7176 21.591 12.768C21.5122 12.8167 21.5884 12.9151 21.6782 12.8806C21.7272 12.8618 21.7536 12.8892 21.7536 12.9591C21.7536 13.0256 21.81 13.0896 21.9017 13.1272C22.1117 13.2132 22.2695 13.2071 22.2461 13.1139C22.2354 13.0715 22.2185 12.9576 22.2084 12.8606C22.1929 12.7125 22.2037 12.692 22.2758 12.7323C22.3996 12.8016 22.5618 12.7441 22.5618 12.631C22.5618 12.5071 22.6629 12.4724 22.8192 12.5425C22.9743 12.612 23.1256 12.5005 22.9925 12.415C22.9256 12.372 22.9319 12.3579 23.0297 12.331C23.1349 12.3022 23.1408 12.2837 23.0847 12.1559C23.0502 12.0774 22.9998 11.9973 22.9727 11.9781C22.9455 11.9589 22.9428 11.8982 22.9667 11.8434C22.9905 11.7885 23.0075 11.7294 23.0044 11.712C23.0013 11.6946 23.1005 11.6284 23.2248 11.565C23.413 11.469 23.4539 11.4631 23.4683 11.5293C23.4895 11.6261 23.5835 11.6355 23.591 11.5416C23.594 11.5045 23.6132 11.5349 23.6339 11.6089C23.692 11.8178 23.7725 11.7682 23.7909 11.5121C23.8046 11.3222 23.8319 11.2713 23.9426 11.2292C24.1408 11.1538 24.1895 11.1657 24.1531 11.2803C24.123 11.375 24.1378 11.379 24.3471 11.3319C24.4717 11.3039 24.6097 11.2949 24.6538 11.3118C24.7422 11.3457 24.9866 11.1445 24.9866 11.0379C24.9866 11.0009 25.0494 10.896 25.1261 10.8048C25.2421 10.667 25.3047 10.639 25.4976 10.639C25.654 10.639 25.7396 10.6653 25.7605 10.7198C25.8273 10.8939 26.246 10.7607 26.2228 10.5729C26.2045 10.4255 26.3008 10.2512 26.4268 10.2033C26.4995 10.1756 26.5869 10.0792 26.621 9.98897C26.665 9.87232 26.7103 9.83209 26.7777 9.84972C26.8298 9.86336 26.8874 9.85043 26.9056 9.82099C26.9238 9.79156 26.9835 9.77921 27.0384 9.79355C27.0932 9.80789 27.1662 9.78575 27.2005 9.74436C27.2897 9.63691 27.1689 9.50744 26.9795 9.50744C26.7672 9.50744 26.7448 9.37858 26.9239 9.18689C27.0084 9.09646 27.0664 9.02248 27.0528 9.02248C27.0393 9.02248 27.072 8.94468 27.1255 8.84959C27.2732 8.58731 27.4817 8.42147 27.9772 8.17203C28.0661 8.12728 28.1798 8.05546 28.2298 8.01244C28.2798 7.96942 28.3439 7.94859 28.3723 7.96614C28.4007 7.98369 28.4388 7.9593 28.457 7.91194C28.4771 7.85962 28.5239 7.83884 28.5764 7.85898C28.6404 7.88354 28.654 7.86908 28.6286 7.80309C28.5985 7.72451 28.6326 7.71751 28.919 7.74348C29.1758 7.76677 29.2435 7.7571 29.2435 7.69719C29.2435 7.65235 29.1886 7.62148 29.1088 7.62148C28.9524 7.62148 28.9421 7.59191 29.058 7.47597C29.1042 7.42981 29.1297 7.36004 29.1147 7.32092C29.099 7.28003 29.1377 7.23417 29.2059 7.21303C29.271 7.19281 29.391 7.12929 29.4725 7.07189C29.6284 6.96214 29.6226 6.95765 29.6423 7.20387C29.6452 7.24091 29.6719 7.28941 29.7015 7.31164C29.7354 7.33703 29.726 7.37099 29.6762 7.40301C29.6326 7.43103 29.6098 7.46686 29.6255 7.48262C29.6542 7.51125 29.8544 7.55602 29.9876 7.56359C30.0274 7.56584 30.0412 7.5951 30.0192 7.63063C29.993 7.67302 30.0096 7.6824 30.0699 7.65927C30.1284 7.6368 30.1596 7.65232 30.1596 7.70399C30.1596 7.74752 30.1353 7.78313 30.1057 7.78313C30.076 7.78313 30.0568 7.80132 30.063 7.82354C30.0691 7.84577 30.0021 7.93916 29.9141 8.03107C29.7848 8.16614 29.7364 8.18703 29.6619 8.14003C29.5895 8.09433 29.5525 8.10471 29.4892 8.18845C29.4449 8.24707 29.4078 8.34959 29.4069 8.41627C29.4056 8.50843 29.3736 8.53751 29.2736 8.53751C29.2013 8.53751 29.1271 8.51327 29.1088 8.48363C29.0592 8.40343 28.99 8.41834 28.952 8.51742C28.9103 8.62596 29.0732 8.75939 29.2006 8.7211C29.2668 8.7012 29.3235 8.75459 29.4041 8.91265C29.5265 9.15249 29.4958 9.2935 29.2982 9.39926C29.2318 9.43479 29.2059 9.48715 29.2273 9.54276C29.2582 9.62341 29.266 9.62334 29.3255 9.54194C29.361 9.49333 29.442 9.45355 29.5054 9.45355C29.5688 9.45355 29.6207 9.42767 29.6207 9.39604C29.6207 9.32898 29.8453 9.38633 29.8969 9.46657C29.9181 9.49951 29.9438 9.49745 29.9664 9.46103C30.0121 9.38694 30.3899 9.39772 30.44 9.47454C30.4845 9.54285 30.281 9.77686 30.1771 9.77686C30.0883 9.77686 30.0828 9.86801 30.1698 9.89703C30.2097 9.91033 30.2394 10.0669 30.2484 10.3115C30.2563 10.5277 30.2888 10.7833 30.3205 10.8794C30.3523 10.9756 30.3877 11.1033 30.3992 11.1633C30.4108 11.2232 30.4445 11.3601 30.4741 11.4675C30.5253 11.6526 30.5213 11.6628 30.3991 11.6628C30.2385 11.6628 30.1085 11.8932 30.0966 12.1989C30.0893 12.3849 30.0766 12.4063 30.0073 12.3491C29.9371 12.2912 29.9306 12.3124 29.9571 12.5115C29.9793 12.6782 29.9688 12.7405 29.9182 12.7405C29.8024 12.7405 29.7777 12.9691 29.8785 13.1086C29.9294 13.1791 30.0316 13.3491 30.1057 13.4865C30.2399 13.7355 30.429 13.853 30.429 13.6875C30.429 13.6408 30.4682 13.6027 30.5161 13.6027C30.5755 13.6027 30.5946 13.6356 30.5762 13.7062C30.556 13.7832 30.5853 13.8199 30.6911 13.8497C30.7692 13.8717 30.8538 13.885 30.8791 13.8791C30.9044 13.8732 30.9711 13.883 31.0273 13.9008C31.1483 13.9392 31.1652 14.0876 31.0487 14.0876C31.0042 14.0876 30.9678 14.1329 30.9678 14.1881C30.9678 14.3328 31.173 14.5726 31.2967 14.5726C31.4231 14.5726 31.4917 14.7169 31.4061 14.8025C31.3725 14.8361 31.345 14.9523 31.345 15.0608C31.345 15.206 31.3791 15.2836 31.4743 15.3551C31.5972 15.4474 31.5999 15.4623 31.5306 15.659C31.4725 15.8236 31.4715 15.8658 31.5259 15.8658C31.6154 15.8658 31.83 16.3605 31.83 16.5668C31.83 16.7787 31.6911 16.781 31.4942 16.5724C31.4134 16.4868 31.2441 16.3629 31.118 16.2972C30.6687 16.0631 29.8363 15.2944 29.8363 15.1138C29.8363 14.9702 29.7237 14.7343 29.6552 14.7343C29.6212 14.7343 29.6246 14.7088 29.6638 14.6696C29.7595 14.574 29.7472 14.0086 29.6477 13.926C29.6032 13.8891 29.5668 13.8148 29.5668 13.7609C29.5668 13.707 29.5414 13.6472 29.5103 13.628C29.471 13.6037 29.471 13.5724 29.5106 13.5247C29.5511 13.4759 29.5406 13.3842 29.4741 13.2048C29.3966 12.9955 29.3925 12.9348 29.45 12.8427C29.5285 12.7171 29.4957 12.654 29.2256 12.4098C29.1283 12.3219 29.0684 12.2141 29.0684 12.1269C29.0684 11.9644 28.9907 11.9445 28.8875 12.0804C28.7876 12.212 28.7954 12.2957 28.9202 12.4296C28.9812 12.4951 29.028 12.6198 29.028 12.717C29.028 12.8114 29.0428 12.9627 29.0609 13.0532C29.0874 13.1857 29.0766 13.2152 29.0057 13.2048C28.9572 13.1977 28.8804 13.1388 28.835 13.0739C28.7396 12.9377 28.6508 12.9198 28.6508 13.0369C28.6508 13.0813 28.6122 13.1177 28.5649 13.1177C28.5177 13.1177 28.4664 13.1662 28.4509 13.2255C28.4354 13.2848 28.4032 13.3333 28.3794 13.3333C28.303 13.3333 28.2603 13.6565 28.3262 13.7359C28.3604 13.7771 28.4023 13.9519 28.4193 14.1243C28.4362 14.2968 28.4849 14.5067 28.5274 14.5909C28.6017 14.7379 28.6087 14.7402 28.7086 14.6499C28.7694 14.5948 28.8124 14.5818 28.8124 14.6185C28.8124 14.6529 28.7518 14.7338 28.6777 14.7982C28.6036 14.8626 28.543 14.949 28.543 14.9901C28.543 15.0392 28.5076 15.0536 28.4398 15.0321C28.383 15.014 28.3224 15.0223 28.305 15.0503C28.2877 15.0784 28.225 15.0887 28.1658 15.0732C28.0909 15.0536 28.0581 15.0715 28.0581 15.1321C28.0581 15.18 28.0399 15.2163 28.0177 15.2128C27.8575 15.1875 27.7828 15.2347 27.7539 15.3797C27.7208 15.5447 27.647 15.6293 27.4461 15.7322C27.3826 15.7647 27.3341 15.8332 27.3384 15.8843C27.3438 15.9487 27.3271 15.9615 27.2843 15.926C27.2422 15.8911 27.1582 15.9333 27.0225 16.0578C26.7202 16.3348 26.6396 16.4832 26.6786 16.6912C26.6971 16.7898 26.694 16.8887 26.6716 16.911C26.6493 16.9333 26.6267 17.0723 26.6213 17.2198C26.616 17.3674 26.5857 17.5193 26.554 17.5575C26.5224 17.5957 26.4988 17.7851 26.5017 17.9784C26.5046 18.1718 26.4801 18.3802 26.4473 18.4415C26.4145 18.5028 26.3876 18.6138 26.3876 18.6881C26.3876 18.7623 26.3634 18.8381 26.3338 18.8564C26.3041 18.8747 26.2799 18.9368 26.2799 18.9943C26.2799 19.0741 26.3174 19.0989 26.4383 19.0989C26.5255 19.0989 26.6117 19.0748 26.6299 19.0454C26.6481 19.0159 26.7212 19.0581 26.793 19.1397C26.8973 19.2582 26.9234 19.2688 26.9248 19.1932C26.9269 19.0786 27.0343 19.0654 27.0343 19.1797C27.0343 19.2242 27.0706 19.2606 27.1151 19.2606C27.1595 19.2606 27.1959 19.2242 27.1959 19.1797C27.1959 19.1353 27.2323 19.0989 27.2767 19.0989C27.3688 19.0989 27.3864 18.9614 27.3011 18.9087C27.1964 18.844 27.3672 18.7103 27.5162 18.7404C27.8427 18.8063 28.0094 18.8591 28.0077 18.8959C28.0068 18.9177 28.0925 19.022 28.1983 19.1278C28.3193 19.2488 28.3788 19.3512 28.3586 19.4038C28.3161 19.5147 28.4281 19.8792 28.5425 20.002C28.5926 20.0557 28.6984 20.2289 28.7777 20.3867C28.9214 20.6728 28.9218 20.6767 28.8977 21.651C28.8721 22.6835 28.8576 22.8619 28.7903 22.9709C28.7672 23.0082 28.7626 23.0952 28.78 23.1644C28.8208 23.3269 28.6288 23.7629 28.4428 23.9301C28.3243 24.0367 28.2625 24.0528 28.0727 24.0271L27.8448 23.9962L27.8098 24.2148C27.7821 24.3885 27.752 24.4335 27.6637 24.4335C27.5577 24.4335 27.5571 24.4301 27.6509 24.3615ZM30.2451 21.6812C30.1639 21.59 30.1106 21.4808 30.1268 21.4387C30.143 21.3966 30.1345 21.3621 30.1079 21.3621C30.053 21.3621 29.8901 21.0571 29.8901 20.9541C29.8901 20.9166 29.8081 20.8352 29.7079 20.7733C29.6076 20.7113 29.4939 20.582 29.4551 20.486C29.4163 20.3899 29.3023 20.2022 29.2016 20.0688C29.101 19.9355 28.9856 19.7475 28.9452 19.6512C28.8963 19.5344 28.835 19.4761 28.7613 19.4761C28.6508 19.4761 28.4353 19.3024 28.4353 19.2133C28.4353 19.1873 28.3989 19.1358 28.3544 19.0989C28.31 19.062 28.2736 18.9943 28.2736 18.9484C28.2736 18.9025 28.2321 18.8191 28.1814 18.7631C28.1098 18.6839 28.1045 18.6519 28.1576 18.619C28.2537 18.5596 28.1759 18.2832 28.0542 18.2514C27.9983 18.2367 27.9699 18.1944 27.9867 18.1506C28.0317 18.0335 28.1093 18.0611 28.1678 18.215C28.1971 18.292 28.2692 18.3676 28.3281 18.383C28.3871 18.3984 28.4353 18.4453 28.4353 18.4872C28.4353 18.5291 28.4777 18.5786 28.5296 18.5971C28.6947 18.6559 28.7634 18.7318 28.71 18.7962C28.646 18.8735 28.7887 19.0494 28.9876 19.1382C29.0691 19.1746 29.1358 19.2291 29.1358 19.2594C29.1358 19.2897 29.1623 19.3145 29.1948 19.3145C29.2273 19.3145 29.4031 19.4453 29.5855 19.6053C29.7679 19.7653 30.002 19.9331 30.1057 19.9781L30.2943 20.06L30.0366 20.0644C29.723 20.0698 29.6901 20.1301 29.8094 20.4814C29.9293 20.8345 30.0954 21.0923 30.2044 21.0944C30.2538 21.0953 30.3415 21.1318 30.3992 21.1754C30.4569 21.2191 30.5438 21.2422 30.5923 21.2268C30.7091 21.1898 30.8475 21.4649 30.7442 21.5288C30.707 21.5517 30.6547 21.5569 30.6279 21.5404C30.6011 21.5238 30.612 21.4894 30.6522 21.4639C30.706 21.4298 30.7076 21.4174 30.658 21.4168C30.5417 21.4154 30.383 21.6112 30.4345 21.6925C30.5677 21.9028 30.4356 21.8949 30.2451 21.6812ZM30.0022 21.5013C29.9998 21.4445 30.0126 21.4126 30.0305 21.4305C30.0484 21.4485 30.0503 21.4949 30.0347 21.5338C30.0175 21.5768 30.0047 21.564 30.0022 21.5013ZM31.5067 21.2708C31.5067 21.1176 31.5332 21.0401 31.5936 21.0169C31.6678 20.9885 31.6751 21.0134 31.6433 21.1863C31.5888 21.4832 31.5067 21.534 31.5067 21.2708ZM31.7058 20.8966C31.6299 20.8207 31.6652 20.351 31.7492 20.3188C31.7936 20.3017 31.83 20.2506 31.83 20.2052C31.83 20.1599 31.8542 20.1227 31.8839 20.1227C31.9574 20.1227 31.9517 20.1839 31.8575 20.4095C31.8133 20.5152 31.7911 20.6379 31.8081 20.6822C31.8442 20.7764 31.7607 20.9515 31.7058 20.8966ZM31.9954 19.8161C31.9933 19.7215 32.0159 19.6291 32.0455 19.6108C32.1102 19.5709 32.1102 19.7298 32.0455 19.8802C32.0065 19.9711 31.9986 19.961 31.9954 19.8161ZM32.1618 18.9911C32.1618 18.9171 32.174 18.8867 32.189 18.9238C32.2039 18.9608 32.2039 19.0215 32.189 19.0585C32.174 19.0955 32.1618 19.0652 32.1618 18.9911ZM26.7918 18.7217C26.7735 18.6921 26.7842 18.6678 26.8155 18.6678C26.8469 18.6678 26.8726 18.6921 26.8726 18.7217C26.8726 18.7514 26.8619 18.7756 26.8488 18.7756C26.8358 18.7756 26.8101 18.7514 26.7918 18.7217ZM31.963 18.0185C31.9135 17.9384 31.9529 17.9101 32.0394 17.9635C32.0857 17.9922 32.0912 18.0199 32.055 18.0423C32.0243 18.0613 31.9829 18.0506 31.963 18.0185ZM31.8839 17.644C31.8839 17.6144 31.9081 17.5901 31.9378 17.5901C31.9674 17.5901 31.9916 17.6144 31.9916 17.644C31.9916 17.6737 31.9674 17.6979 31.9378 17.6979C31.9081 17.6979 31.8839 17.6737 31.8839 17.644ZM31.8255 17.3477C31.821 17.318 31.8204 17.2746 31.8243 17.2512C31.8282 17.2278 31.808 17.1648 31.7794 17.1113C31.7441 17.0453 31.7473 16.9939 31.7894 16.9518C31.8669 16.8743 31.9563 16.8699 31.9094 16.9459C31.8902 16.9768 31.8989 17.0315 31.9287 17.0673C31.9655 17.1117 31.959 17.1753 31.9083 17.267C31.8673 17.341 31.8301 17.3773 31.8255 17.3477ZM28.3275 15.1955C28.3275 15.1824 28.3517 15.1567 28.3814 15.1384C28.411 15.1201 28.4353 15.1308 28.4353 15.1622C28.4353 15.1935 28.411 15.2192 28.3814 15.2192C28.3517 15.2192 28.3275 15.2085 28.3275 15.1955ZM11.731 12.7405C11.731 12.6516 11.7553 12.5789 11.7849 12.5789C11.8145 12.5789 11.8388 12.6516 11.8388 12.7405C11.8388 12.8294 11.8145 12.9022 11.7849 12.9022C11.7553 12.9022 11.731 12.8294 11.731 12.7405ZM19.1981 12.5315C19.1814 12.5045 19.204 12.4685 19.2482 12.4515C19.2925 12.4345 19.3288 12.4426 19.3288 12.4696C19.3288 12.5427 19.233 12.588 19.1981 12.5315ZM13.8941 12.3145C13.8399 12.2808 13.8374 12.2589 13.8842 12.23C13.9582 12.1843 14.0137 12.2247 13.9863 12.3043C13.9751 12.337 13.9371 12.3411 13.8941 12.3145ZM11.5004 12.1523C11.3838 12.0135 11.3643 11.9577 11.4121 11.9C11.4925 11.8032 11.429 11.5551 11.324 11.5551C11.2603 11.5551 11.2544 11.5324 11.2973 11.4521C11.3319 11.3875 11.39 11.3591 11.4534 11.3757C11.5149 11.3917 11.6133 11.3476 11.7045 11.263C11.8769 11.1032 11.939 11.0933 12.0844 11.2026C12.185 11.2781 12.1799 11.2894 11.9536 11.4925C11.7405 11.6837 11.7149 11.7336 11.6842 12.0172L11.6502 12.3306L11.5004 12.1523ZM10.1504 12.1119C10.0879 12.0493 10.1111 11.9917 10.223 11.9318C10.3096 11.8855 10.3385 11.8917 10.3656 11.9623C10.4106 12.0795 10.238 12.1995 10.1504 12.1119ZM22.7102 11.4338C22.648 11.2644 22.7981 11.1811 23.0154 11.2645C23.1375 11.3113 23.1209 11.3669 22.9634 11.4386C22.7887 11.5182 22.741 11.5173 22.7102 11.4338ZM12.216 11.1779C12.1769 11.1048 12.1763 11.0701 12.2141 11.0701C12.2448 11.0701 12.2638 11.0398 12.2564 11.0027C12.2489 10.9651 12.2845 10.9424 12.3372 10.9512C12.3891 10.9599 12.4315 10.9447 12.4315 10.9173C12.4315 10.89 12.5043 10.8375 12.5932 10.8007C12.6821 10.7638 12.7548 10.7177 12.7548 10.6981C12.7548 10.6785 12.8174 10.6573 12.8939 10.651C12.9704 10.6447 13.0721 10.6176 13.1201 10.5908C13.1721 10.5617 13.259 10.5617 13.3358 10.5909C13.4065 10.6178 13.4876 10.6254 13.5161 10.6078C13.5445 10.5902 13.6036 10.6055 13.6473 10.6418C13.7 10.6855 13.8274 10.6974 14.0252 10.677C14.2591 10.6528 14.3302 10.6634 14.3541 10.7257C14.3709 10.7695 14.3692 10.8208 14.3503 10.8397C14.2983 10.8917 13.7883 10.9477 13.7248 10.9084C13.6942 10.8896 13.5423 10.8953 13.3871 10.9213C13.232 10.9473 13.0361 10.9754 12.9519 10.9838C12.8676 10.9922 12.7828 11.0212 12.7633 11.0481C12.7438 11.075 12.6673 11.1036 12.5932 11.1115C12.5191 11.1195 12.4315 11.1619 12.3986 11.2058C12.3192 11.3118 12.2849 11.3066 12.216 11.1779ZM22.5079 11.2619C22.5079 11.2488 22.5322 11.2231 22.5618 11.2048C22.5915 11.1865 22.6157 11.1972 22.6157 11.2286C22.6157 11.26 22.5915 11.2856 22.5618 11.2856C22.5322 11.2856 22.5079 11.2749 22.5079 11.2619ZM1.67147 11.1667C1.64176 11.1284 1.60231 11.0546 1.58382 11.0027C1.5641 10.9474 1.49513 10.9084 1.41698 10.9084C1.34371 10.9084 1.26817 10.8832 1.24912 10.8524C1.22666 10.8161 1.26343 10.8086 1.35371 10.8313C1.46869 10.8602 1.49294 10.8475 1.49294 10.7584C1.49294 10.5639 1.75757 10.5658 1.76154 10.7603C1.76199 10.7825 1.8002 10.8007 1.84644 10.8007C1.91062 10.8007 1.92656 10.8484 1.9138 11.0023C1.8962 11.2145 1.77324 11.2979 1.67147 11.1667ZM22.0374 11.101C21.9058 11.0401 21.7942 10.7902 21.8424 10.6644C21.8787 10.57 21.9383 10.5649 22.085 10.6434C22.2131 10.7119 22.2863 10.6652 22.1945 10.5735C22.0919 10.4708 22.1178 10.451 22.3693 10.4398C22.6102 10.4289 22.768 10.5235 22.698 10.6367C22.6433 10.7251 22.4654 10.7024 22.3997 10.5986C22.3594 10.5349 22.3468 10.5305 22.3609 10.5851C22.3724 10.6296 22.4353 10.6929 22.5007 10.7258L22.6197 10.7857L22.4695 10.886C22.3869 10.9411 22.2982 10.9799 22.2723 10.9721C22.2465 10.9643 22.2389 10.9933 22.2555 11.0365C22.295 11.1394 22.1885 11.1709 22.0374 11.101ZM17.7082 10.7684C17.7697 10.6537 17.82 10.5291 17.82 10.4916C17.82 10.4541 17.8442 10.4235 17.8739 10.4235C17.9035 10.4235 17.9278 10.4477 17.9278 10.4774C17.9278 10.507 17.9537 10.5312 17.9855 10.5312C18.0793 10.5312 18.2099 10.6898 18.1801 10.7675C18.1649 10.8069 18.0838 10.8542 17.9997 10.8725C17.9157 10.8909 17.7906 10.9219 17.7216 10.9414L17.5964 10.977L17.7082 10.7684ZM17.2677 10.5543C17.0834 10.4544 17.0697 10.2489 17.2392 10.1302C17.3922 10.023 17.4632 10.0232 17.422 10.1306C17.3974 10.1945 17.4146 10.2071 17.4925 10.1823C17.6156 10.1433 17.6834 10.2315 17.6279 10.3587C17.6059 10.4091 17.5931 10.4929 17.5996 10.5447C17.614 10.6614 17.4726 10.6655 17.2677 10.5543ZM22.8127 10.3823C22.7818 10.3312 22.8887 10.2378 22.9929 10.2249C23.0374 10.2193 23.1341 10.1968 23.208 10.1748C23.3382 10.1359 23.3397 10.1385 23.2592 10.2598C23.1782 10.3817 22.8644 10.4678 22.8127 10.3823ZM16.9399 10.172C16.8744 10.1066 16.9026 10.0492 16.9848 10.0807C17.0292 10.0977 17.0656 10.1334 17.0656 10.1598C17.0656 10.2163 16.9914 10.2235 16.9399 10.172ZM17.0462 9.96556C17.0036 9.85458 17.0984 9.66909 17.1977 9.66909C17.2387 9.66909 17.283 9.63878 17.2962 9.60174C17.3283 9.5118 17.3731 9.55871 17.412 9.72309C17.4521 9.89243 17.3992 9.97425 17.2205 10.0191C17.1176 10.0449 17.0711 10.0307 17.0462 9.96556ZM26.5493 9.7018C26.5493 9.69015 26.5857 9.66667 26.6301 9.64961C26.6746 9.63255 26.7109 9.64208 26.7109 9.67078C26.7109 9.69949 26.6746 9.72298 26.6301 9.72298C26.5857 9.72298 26.5493 9.71345 26.5493 9.7018ZM14.5032 8.9639C14.4833 8.93168 14.4881 8.88419 14.5139 8.85837C14.5776 8.79464 14.7179 8.88741 14.6715 8.96257C14.6244 9.03873 14.5498 9.03932 14.5032 8.9639ZM14.8024 8.96859C14.8024 8.93896 14.8524 8.91471 14.9134 8.91471C14.9744 8.91471 15.0094 8.93896 14.991 8.96859C14.9727 8.99823 14.9228 9.02248 14.8801 9.02248C14.8374 9.02248 14.8024 8.99823 14.8024 8.96859ZM14.3448 8.59202C14.3259 8.56147 14.3476 8.55244 14.3955 8.57084C14.4889 8.60666 14.5059 8.64528 14.4284 8.64528C14.4005 8.64528 14.3629 8.62131 14.3448 8.59202ZM13.6978 8.37586C13.5317 8.3336 13.5626 8.31523 13.8155 8.30581C13.895 8.30285 13.9697 8.32952 13.9816 8.36508C14.0052 8.43594 13.9432 8.43829 13.6978 8.37586ZM13.599 8.17828C13.5793 8.15853 13.5631 8.12442 13.5631 8.1025C13.5631 8.0507 13.7714 8.10506 13.8096 8.16683C13.8435 8.22164 13.6528 8.23202 13.599 8.17828ZM26.828 7.97065C26.7382 7.77359 26.7492 7.6875 26.8726 7.62148C26.9916 7.55781 26.9956 7.56583 26.9814 7.83701C26.9683 8.08709 26.9059 8.14149 26.828 7.97065Z" fill="#303944"/>
</g>
<defs>
<clipPath id="clip0_655_3290">
<rect width="32" height="17.4335" fill="white" transform="translate(0.200195 7)"/>
</clipPath>
</defs>
</svg>
