<svg width="109" height="24" fill="none" xmlns="http://www.w3.org/2000/svg"><g clip-path="url(#clip0_348_2750)"><path d="M104.908 14.46c.589 0 1.018-.07 1.288-.21.27-.138.404-.377.404-.715 0-.314-.144-.574-.432-.779-.288-.205-.763-.428-1.425-.67-.378-.134-.75-.288-1.112-.462a3.802 3.802 0 01-.874-.57 2.337 2.337 0 01-.579-.788c-.141-.308-.211-.685-.211-1.132 0-.87.324-1.555.974-2.056.65-.5 1.532-.752 2.648-.752a8.31 8.31 0 011.618.154c.412.083.742.163.989.241.097.03.153.13.13.228l-.314 1.381a.19.19 0 01-.098.129.191.191 0 01-.161.011 5.75 5.75 0 00-2.054-.35c-.453 0-.821.075-1.103.226a.74.74 0 00-.423.697c0 .157.028.296.083.417.055.12.15.232.285.335.135.103.312.205.533.308.22.102.49.208.81.317.526.193.974.383 1.341.57.368.188.671.4.91.634.24.236.414.504.525.806.11.302.165.664.165 1.087 0 .905-.34 1.59-1.02 2.056-.68.464-1.652.697-2.915.697-.846 0-1.526-.07-2.04-.209-.403-.108-.711-.2-.927-.275a.193.193 0 01-.124-.222l.304-1.442a.21.21 0 01.034-.076.2.2 0 01.226-.068c.283.104.608.204.974.3.46.12.983.18 1.572.18l-.001.001zM94.628 4.035l1.83-.299c.12-.02.23.072.23.192v2.438c0 .108.087.195.196.195h3.026c.109 0 .197.087.197.194v1.44a.193.193 0 01-.122.18.196.196 0 01-.075.015h-3.026a.196.196 0 00-.197.195v3.663c0 .76.122 1.304.368 1.63.245.326.662.49 1.25.49a4.13 4.13 0 001.076-.128c.206-.055.384-.109.535-.16a.196.196 0 01.256.145l.288 1.36a.192.192 0 01-.119.22 9.65 9.65 0 01-.86.274 5.6 5.6 0 01-1.47.172c-.687 0-1.26-.09-1.72-.272a2.522 2.522 0 01-1.093-.788 3.1 3.1 0 01-.57-1.25 7.639 7.639 0 01-.166-1.675v-8.04c0-.095.07-.176.165-.19h.001zm-10.57 2.982c0-.087.057-.165.143-.187.408-.107.917-.208 1.53-.305a14.648 14.648 0 012.28-.163c.784 0 1.44.105 1.967.317.527.211.947.507 1.26.887.312.38.533.84.662 1.377.133.579.198 1.171.193 1.765v5.131a.197.197 0 01-.198.194h-1.83a.196.196 0 01-.197-.194v-4.787c0-.507-.034-.938-.102-1.295-.067-.355-.177-.645-.33-.869a1.32 1.32 0 00-.626-.489c-.263-.102-.585-.154-.965-.154-.295.001-.59.02-.883.055-.207.024-.379.046-.513.065a.193.193 0 00-.167.192v7.282a.197.197 0 01-.197.194h-1.83a.195.195 0 01-.198-.194V7.018h.001zm-4.784 3.347c.112 0 .205-.09.198-.2a2.788 2.788 0 00-.122-.66 2.069 2.069 0 00-.377-.706c-.166-.2-.373-.36-.607-.47a1.95 1.95 0 00-.855-.173c-.343 0-.644.063-.9.19-.25.12-.472.29-.654.498-.177.205-.315.44-.413.706a3.79 3.79 0 00-.164.58.195.195 0 00.11.216.197.197 0 00.084.02h3.7zm-6.25.978c0-.833.126-1.563.377-2.19.252-.629.586-1.15 1.003-1.568.416-.416.894-.73 1.434-.942a4.502 4.502 0 011.655-.317c1.324 0 2.356.405 3.098 1.214.742.81 1.113 2.017 1.113 3.622a10.59 10.59 0 01-.022.635.196.196 0 01-.197.18h-5.942c-.117 0-.212.101-.196.216.092.657.356 1.174.794 1.55.484.417 1.186.625 2.106.625.54 0 1.032-.048 1.48-.145.283-.058.563-.133.838-.224a.196.196 0 01.258.152l.231 1.41a.193.193 0 01-.118.21c-.12.048-.24.09-.363.127a7.22 7.22 0 01-.736.182c-.276.054-.573.1-.892.135a8.638 8.638 0 01-.974.055c-.846 0-1.582-.124-2.207-.372-.625-.247-1.14-.59-1.544-1.032a4.209 4.209 0 01-.9-1.557 6.267 6.267 0 01-.295-1.966zm-9.892-.29c0-.99-.126-1.705-.377-2.146-.25-.44-.72-.66-1.406-.66-.246 0-.515.017-.81.054-.198.024-.363.046-.495.065a.194.194 0 00-.167.192v7.282a.197.197 0 01-.197.194h-1.83a.196.196 0 01-.197-.194V7.018c0-.087.058-.165.144-.187.408-.107.92-.208 1.538-.305a14.178 14.178 0 012.197-.163c.662 0 1.205.084 1.628.253.367.147.682.335.943.564.066.06.162.07.237.023.342-.215.708-.39 1.09-.523.303-.107.626-.192.97-.257a3.5 3.5 0 01.59-.06c.808-.012 1.468.093 1.98.317.484.211.865.507 1.14.887.276.38.466.84.57 1.377.108.582.161 1.173.157 1.765v5.131a.197.197 0 01-.198.194h-1.83a.196.196 0 01-.197-.194v-4.787c0-.99-.123-1.705-.368-2.146-.245-.44-.717-.66-1.416-.66-.355 0-.693.057-1.01.171a4.19 4.19 0 00-.583.253.192.192 0 00-.092.224c.075.26.128.533.16.818.036.34.054.7.054 1.087v5.04a.197.197 0 01-.197.194h-1.83a.195.195 0 01-.198-.194v-4.787zm-7.43-4.49c.13 0 .225.123.19.247-.975 3.5-2.103 6.677-3.38 9.532a9.758 9.758 0 01-.756 1.395 4.163 4.163 0 01-.865.96c-.32.253-.675.437-1.068.552a4.937 4.937 0 01-1.417.172 4.821 4.821 0 01-.988-.113 4.28 4.28 0 01-.586-.164.193.193 0 01-.12-.225l.32-1.385a.2.2 0 01.257-.14c.372.12.74.18 1.103.18.578 0 1.03-.136 1.357-.408.31-.257.583-.648.82-1.17a.194.194 0 00-.005-.17 50.49 50.49 0 01-1.978-4.265 46.936 46.936 0 01-1.655-4.75.197.197 0 01.19-.25h1.955c.091 0 .17.06.191.148.116.466.255.966.416 1.501.37 1.223.785 2.431 1.246 3.622.167.43.333.84.5 1.227.07.164.31.158.37-.01.34-.978.65-1.967.93-2.965.327-1.16.626-2.286.897-3.376a.195.195 0 01.191-.146h1.885zm-13.79 7.932a9.61 9.61 0 001.395-.08.196.196 0 00.168-.192V12.11c0-.09-.06-.17-.15-.19a5.031 5.031 0 00-1.155-.125c-.245.001-.494.02-.745.056a2.343 2.343 0 00-.68.2 1.23 1.23 0 00-.487.406c-.123.175-.184.396-.184.661 0 .52.165.88.496 1.078.331.2.78.3 1.342.3zm-.183-8.169c.735 0 1.354.091 1.857.272.502.181.904.435 1.204.76.3.327.515.722.644 1.187.13.465.193.975.193 1.53v5.583a.195.195 0 01-.159.191c-.337.066-.802.143-1.395.23-.692.103-1.474.154-2.344.154a7.134 7.134 0 01-1.582-.162 3.35 3.35 0 01-1.222-.526 2.483 2.483 0 01-.79-.94c-.19-.388-.286-.865-.286-1.432 0-.544.107-1.002.322-1.377.214-.374.505-.68.873-.914a3.813 3.813 0 011.278-.508 7.312 7.312 0 012.29-.108c.27.03.557.081.863.154v-.363a2.803 2.803 0 00-.09-.724 1.498 1.498 0 00-.323-.607 1.512 1.512 0 00-.607-.407c-.25-.097-.567-.145-.947-.145-.515 0-.987.036-1.416.108-.281.046-.56.107-.833.185a.196.196 0 01-.25-.157l-.215-1.385a.194.194 0 01.138-.216 10.41 10.41 0 012.797-.383zm-7.778 5.017c0-.978-.224-1.738-.67-2.282-.449-.543-1.169-.815-2.16-.815-.22 0-.437.01-.655.027a3.65 3.65 0 00-.52.08.194.194 0 00-.15.19V13.7c0 .066.032.13.09.164.182.111.413.216.691.314.324.115.67.172 1.04.172.808 0 1.4-.272 1.773-.815.374-.543.56-1.274.56-2.192h.001zm2.28-.036c0 .725-.095 1.39-.285 1.992a4.627 4.627 0 01-.818 1.558c-.356.435-.8.773-1.334 1.014-.533.242-1.136.362-1.81.362-.454 0-.87-.054-1.25-.162a5.65 5.65 0 01-.663-.23.196.196 0 00-.276.177v3.173a.197.197 0 01-.197.194h-1.83a.195.195 0 01-.198-.194V7.021c0-.09.06-.168.146-.19.426-.107.935-.21 1.528-.306.662-.109 1.36-.163 2.096-.163.76 0 1.44.114 2.04.344a4.29 4.29 0 011.536.987c.423.43.748.948.975 1.557.226.61.34 1.295.34 2.056v.001z" fill="#000"/><path d="M14.17 22.758c2.488.188 4.882-.305 6.403-1.32a3.41 3.41 0 00.36-.304c.094-.1.187-.2.274-.306.388-.47.67-.96.835-1.426.056-.162.1-.327.13-.496l.009-.06c.014-.094.022-.185.026-.275.002-.06.004-.12.001-.178a1.806 1.806 0 00-.047-.344c-.334.344-.692.665-1.066.963-3.203 2.597-6.71 2.79-8.631 2.645a10.998 10.998 0 01-1.912-.303c-1.48-.429-2.763-1.073-3.829-1.898.64.658 1.363 1.23 2.15 1.7 1.493.898 3.325 1.452 5.297 1.602zM4.036 5.205c-1.654 1.512-2.707 3.407-2.974 5.29-.02.14-.035.28-.046.42v.01l-.001.007c-.015.2-.026.408-.03.62a11.906 11.906 0 0011.033 12.282l.084.004.082.004.063.006c.038.005.077.01.119.012 2.305.175 4.443-.19 6.167-1.007-1.32.365-2.845.508-4.4.39-2.048-.155-3.954-.733-5.512-1.67-3.048-1.835-4.102-4.307-4.553-5.362l-.047-.11c-.716-1.534-1.027-3.31-.878-5.262l.018-.242h.017c.343-3.45 2.505-6.39 5.448-7.886-1.7.52-3.299 1.368-4.59 2.494zM14.715 9.08c-.053.688-.466 2.266-3.167 2.061a7.399 7.399 0 01-.278-.026c.265.655 1.03 1.806 3.15 1.967 2.591.196 4.476-1.57 4.61-3.34a2.64 2.64 0 00-.045-.737c-.016-.04-.035-.079-.052-.118-.023-.05-.044-.103-.068-.15-.02-.04-.043-.077-.065-.116-.025-.043-.048-.088-.074-.13-.024-.037-.05-.07-.074-.106-.027-.038-.052-.078-.08-.114-.027-.034-.055-.065-.083-.098-.028-.033-.055-.067-.084-.098l-.09-.088c-.029-.029-.058-.059-.088-.086-.03-.028-.063-.052-.095-.078l-.091-.074c-.033-.025-.067-.046-.1-.069-.03-.02-.062-.044-.093-.064l-.105-.06c-.03-.018-.061-.037-.093-.054-.034-.018-.069-.034-.103-.05-.033-.016-.064-.033-.096-.047l-.103-.04c-.032-.014-.065-.029-.097-.04l-.108-.037-.09-.03a2.186 2.186 0 00-.101-.028l-.093-.026-.086-.019-.102-.023-.086-.015-.093-.016c-.051-.008-.1-.014-.148-.02l-.021-.002a4.013 4.013 0 00-.606-.025l-.108.003c-.15.006-.3.017-.45.035l-.043.007c-.14.02-.28.044-.419.073l-.105.023a5.875 5.875 0 00-.44.118l-.066.023c-.13.042-.257.09-.382.14l-.092.038-.06.03c.693.185 1.214.83 1.163 1.506zm-.699 6.606c-.15-.016-.3-.035-.449-.056v.005c-4.12-.555-5.854-2.433-6.583-3.91a5.488 5.488 0 01-.452-1.326l-.021-.1c-.006-.028-.01-.056-.014-.083a5.291 5.291 0 01-.076-.727 6.842 6.842 0 00-.377 1.782c-.281 3.705 2.497 6.947 6.195 7.227l.047.001c.023 0 .047 0 .07.002h.01l.029.005c.206.02.413.029.62.026 2.699-.345 4.505-1.562 5.714-2.99.349-.417.663-.862.94-1.33.171-.292.321-.584.455-.87a6.892 6.892 0 01-6.108 2.344zM10.678 10.8c.083-1.088.563-2.148 1.253-2.768l-.001.001s.095-.085.12-.105c1.018-.866 2.483-1.367 3.876-1.334.188.005.376.019.562.043.031.004.061.01.092.015.061.01.123.018.183.03l.107.023c.053.012.106.023.158.036l.11.031.144.043c.037.012.073.026.11.04.044.015.09.031.133.05.037.013.071.03.107.044.042.02.085.037.126.057.035.016.068.034.102.052l.12.064.097.06.08.047c-.835-1.052-2.302-1.95-4.567-2.12-2.682-.204-5.016.85-6.407 2.89-.122.214-.218.543-.257.945l-.004.03-.005.085c-.02.33-.005.66.046.985.072.473.22.98.474 1.485.57 1.135 1.792 2.501 4.383 3.241-.708-.676-1.302-1.869-1.142-3.97zm2.782-9.137c-.264-.02-.528-.03-.79-.036h-.072c-.18-.003-.36-.004-.538 0l-.181.006c-.138.005-.275.01-.412.02-.1.006-.2.015-.301.023-.094.008-.188.015-.28.025-.14.015-.278.033-.416.052-.053.007-.107.013-.16.021-.174.026-.345.056-.515.088l-.057.01c-3.33.643-5.973 2.474-7.563 4.713C4.228 2.348 8.698-.348 13.782.036l.04.006.066.008.246.017c2.002.201 4.01 1.022 5.542 2.271l.054.045c2.37 1.96 3.604 4.748 3.383 7.65-.293 3.857-2.966 6.917-6.66 8.045a9.226 9.226 0 002.439-1.977 9.778 9.778 0 001.186-1.623c1.263-2.094 1.447-3.884 1.462-4.064.068-.398.09-.657.094-.712.283-3.71-2.65-7.098-6.828-7.878-.193-.03-.559-.08-.801-.113v-.014l-.243-.018c-.054-.004-.108-.006-.161-.008a3.355 3.355 0 01-.14-.007" fill="#E5353E"/></g><defs><clipPath id="clip0_348_2750"><path fill="#fff" transform="translate(.978)" d="M0 0h108v24H0z"/></clipPath></defs></svg>