<svg width="28" height="28" fill="none" xmlns="http://www.w3.org/2000/svg"><path d="M14 2.334a5.84 5.84 0 00-5.833 5.833A5.84 5.84 0 0014 14.001a5.84 5.84 0 005.834-5.834A5.84 5.84 0 0014 2.334zm10.217 11.667c-.67 0-1.34.255-1.85.764l-7.01 7.01a1.5 1.5 0 00-.383.652l-.94 3.29a.875.875 0 001.082 1.082l3.292-.94c.248-.07.474-.204.65-.383l7.01-7.01a2.606 2.606 0 00.766-1.85 2.6 2.6 0 00-.767-1.85 2.607 2.607 0 00-1.85-.765zM7.292 16.334a2.628 2.628 0 00-2.625 2.625v.445a4.96 4.96 0 001.568 3.621c1.169 1.088 3.241 2.361 6.628 2.599a2.05 2.05 0 01.05-.227l.938-3.291a2.66 2.66 0 01.682-1.158l4.616-4.614H7.292z" fill="#7B8087"/></svg>