<svg width="68" height="30" fill="none" xmlns="http://www.w3.org/2000/svg"><path fill-rule="evenodd" clip-rule="evenodd" d="M7.29 14.279c0-1.325 1.067-2.4 2.384-2.4h.183c0-1.216.146-2.79.904-4.098.835-1.44 2.3-2.373 4.444-2.373 2.135 0 3.625.923 4.502 2.335.81 1.304 1.01 2.879 1.01 4.136h.183a2.392 2.392 0 012.384 2.4v7.273c0 1.326-1.067 2.4-2.384 2.4H9.673a2.392 2.392 0 01-2.385-2.4V14.28zm10.565-2.4h-5.136c0-1.07.147-2.013.514-2.647.292-.504.785-.944 1.972-.944 1.195 0 1.746.45 2.076.982.397.639.574 1.58.574 2.609zm1.286 3.852l-.702-.691a.48.48 0 00-.35-.142.481.481 0 00-.351.142l-3.385 3.338-1.517-1.499a.482.482 0 00-.351-.142.482.482 0 00-.351.142l-.702.691a.468.468 0 00-.144.346c0 .135.048.25.144.346l2.57 2.53a.48.48 0 00.35.142.481.481 0 00.352-.142l4.437-4.37a.468.468 0 00.144-.346.468.468 0 00-.144-.345z" fill="#303944"/><path fill-rule="evenodd" clip-rule="evenodd" d="M0 4.8C0 2.149 2.135 0 4.77 0h21.46C28.864 0 31 2.149 31 4.8v20.4c0 2.651-2.136 4.8-4.77 4.8H4.77C2.135 30 0 27.851 0 25.2V4.8zm4.77-1.68h21.46c.922 0 1.67.752 1.67 1.68v20.4c0 .928-.748 1.68-1.67 1.68H4.77a1.674 1.674 0 01-1.669-1.68V4.8c0-.928.747-1.68 1.67-1.68z" fill="#303944"/><path d="M39.38 16.5c.746.316 1.64.474 2.68.474.966 0 1.82-.147 2.566-.44.757-.304 1.343-.732 1.76-1.285.427-.563.64-1.223.64-1.978 0-.688-.142-1.257-.427-1.708-.285-.462-.734-.834-1.348-1.116-.603-.293-1.414-.535-2.434-.727-.625-.135-1.107-.265-1.447-.389-.329-.135-.57-.281-.723-.44a.85.85 0 01-.214-.591c0-.35.132-.614.395-.795.263-.18.64-.27 1.134-.27.428 0 .784.09 1.07.27.295.18.476.4.542.66a.67.67 0 00.214.22.715.715 0 00.328.067h2.171a.33.33 0 00.247-.101.35.35 0 00.098-.254c-.022-.496-.219-.997-.592-1.505-.361-.518-.893-.947-1.595-1.285-.701-.338-1.529-.507-2.483-.507-.92 0-1.726.152-2.417.457-.69.304-1.222.727-1.595 1.268a3.172 3.172 0 00-.56 1.843c0 1.014.324 1.797.971 2.35.658.54 1.644.952 2.96 1.234.712.158 1.25.299 1.611.423.362.124.625.265.79.423a.78.78 0 01.263.608c0 .35-.165.626-.493.829-.33.203-.806.304-1.431.304-.526 0-.948-.096-1.266-.287a1.737 1.737 0 01-.691-.727.91.91 0 00-.263-.22.518.518 0 00-.313-.085h-2.071a.357.357 0 00-.264.119.33.33 0 00-.098.236c.022.609.22 1.173.592 1.691.384.507.948.919 1.694 1.234zm10.904 0c.746.316 1.64.474 2.68.474.965 0 1.82-.147 2.566-.44.756-.304 1.343-.732 1.76-1.285.427-.563.64-1.223.64-1.978 0-.688-.142-1.257-.427-1.708-.285-.462-.734-.834-1.348-1.116-.603-.293-1.414-.535-2.434-.727-.625-.135-1.107-.265-1.447-.389-.329-.135-.57-.281-.724-.44a.85.85 0 01-.213-.591c0-.35.131-.614.394-.795.263-.18.642-.27 1.135-.27.428 0 .784.09 1.069.27.296.18.477.4.542.66a.669.669 0 00.214.22.715.715 0 00.33.067h2.17a.33.33 0 00.246-.101.35.35 0 00.099-.254c-.022-.496-.22-.997-.592-1.505-.362-.518-.893-.947-1.595-1.285-.702-.338-1.53-.507-2.483-.507-.92 0-1.727.152-2.417.457-.69.304-1.223.727-1.595 1.268a3.172 3.172 0 00-.56 1.843c0 1.014.324 1.797.97 2.35.658.54 1.645.952 2.96 1.234.713.158 1.25.299 1.612.423.362.124.625.265.79.423a.78.78 0 01.263.608c0 .35-.165.626-.494.829-.329.203-.806.304-1.43.304-.527 0-.949-.096-1.267-.287a1.736 1.736 0 01-.69-.727.91.91 0 00-.263-.22.518.518 0 00-.313-.085H48.36a.358.358 0 00-.263.119.329.329 0 00-.098.236c.021.609.219 1.173.591 1.691.384.507.949.919 1.694 1.234zm9.704.305a.43.43 0 01-.296-.119.457.457 0 01-.115-.304V5.392c0-.124.038-.226.115-.305a.431.431 0 01.296-.118h2.17a.398.398 0 01.411.423v8.86h4.983c.12 0 .22.045.296.135a.42.42 0 01.115.304v1.691a.457.457 0 01-.115.304.394.394 0 01-.296.119h-7.564zM39.182 26.4c-.455 0-.85-.073-1.184-.22-.329-.146-.58-.338-.756-.575a1.4 1.4 0 01-.28-.777c0-.046.017-.085.05-.119a.179.179 0 01.131-.059h.42c.104 0 .175.056.213.17.05.236.19.439.42.608.235.169.564.253.986.253.455 0 .798-.081 1.028-.245a.822.822 0 00.345-.701.638.638 0 00-.172-.465 1.378 1.378 0 00-.494-.313 12.44 12.44 0 00-.986-.338 4.964 4.964 0 01-1.02-.398 1.494 1.494 0 01-.567-.524c-.126-.208-.19-.47-.19-.786 0-.305.08-.578.24-.82.164-.242.397-.431.698-.567.301-.14.66-.21 1.077-.21.428 0 .795.078 1.102.236.307.152.54.346.699.583.159.237.244.474.255.71a.164.164 0 01-.05.119c-.027.033-.068.05-.123.05h-.436c-.115 0-.186-.053-.214-.16-.032-.237-.161-.431-.386-.584-.225-.157-.507-.236-.847-.236-.373 0-.666.073-.88.22-.213.146-.32.363-.32.65 0 .192.049.35.148.474.104.124.26.234.468.33.209.09.513.194.913.312.466.13.833.265 1.102.406.268.135.468.307.6.516.132.203.197.462.197.778 0 .524-.197.935-.592 1.234-.394.299-.926.448-1.595.448zm3.454-.084a.204.204 0 01-.14-.051.217.217 0 01-.05-.144v-5.52c0-.063.017-.11.05-.144a.188.188 0 01.14-.06h3.396a.16.16 0 01.131.06.181.181 0 01.058.143v.322a.218.218 0 01-.05.143c-.032.034-.079.051-.14.051h-2.795v1.852h2.615c.055 0 .099.02.131.059a.182.182 0 01.058.143v.313a.2.2 0 01-.058.144.175.175 0 01-.131.05h-2.615v1.92h2.861a.19.19 0 01.14.05c.033.034.05.082.05.144v.33c0 .056-.02.104-.058.144a.175.175 0 01-.132.05h-3.461zm5.136-.525c.383.406.942.609 1.677.609.488 0 .901-.087 1.241-.262.34-.18.598-.414.773-.702a1.94 1.94 0 00.288-.93.12.12 0 00-.05-.118.165.165 0 00-.123-.05h-.452a.195.195 0 00-.131.041c-.033.029-.058.08-.074.153-.088.422-.255.721-.502.896-.241.169-.565.253-.97.253-.943 0-1.43-.538-1.464-1.614a23.196 23.196 0 01-.008-.719c0-.316.003-.55.008-.702.033-1.076.521-1.614 1.464-1.614.405 0 .729.087.97.262.241.169.408.465.502.887.027.13.096.195.205.195h.452a.171.171 0 00.115-.042.154.154 0 00.058-.119v-.017a1.889 1.889 0 00-1.06-1.615c-.34-.18-.754-.27-1.242-.27-.73 0-1.285.206-1.67.617-.383.406-.589.964-.616 1.674-.005.158-.008.412-.008.761 0 .344.003.592.008.744.028.716.23 1.276.609 1.682zm7.251.609c-.707 0-1.255-.194-1.644-.583-.384-.395-.575-.99-.575-1.784V20.6c0-.062.016-.11.049-.143a.188.188 0 01.14-.06h.419c.06 0 .107.02.14.06a.181.181 0 01.057.143v3.45c0 .54.124.947.37 1.217.247.27.595.406 1.044.406.45 0 .798-.135 1.045-.406.246-.27.37-.676.37-1.217V20.6c0-.062.016-.11.049-.143a.188.188 0 01.14-.06h.427c.055 0 .099.02.132.06a.2.2 0 01.057.143v3.433c0 .794-.194 1.39-.583 1.784-.384.389-.93.583-1.637.583z" fill="#303944"/><path fill-rule="evenodd" clip-rule="evenodd" d="M58.667 26.265c.039.034.085.05.14.05h.42a.204.204 0 00.14-.05.199.199 0 00.057-.144V23.94h1.438l1.193 2.147a.6.6 0 00.123.17.31.31 0 00.197.058h.395a.156.156 0 00.115-.05.154.154 0 00.058-.119.214.214 0 00-.025-.093l-1.266-2.248c.373-.107.66-.3.863-.575.208-.277.313-.629.313-1.057 0-.575-.179-1.014-.535-1.319-.356-.304-.85-.456-1.48-.456h-2.006a.188.188 0 00-.14.059.198.198 0 00-.05.143v5.521a.22.22 0 00.05.144zm3.338-4.1c0 .704-.408 1.056-1.225 1.056h-1.356v-2.113h1.356c.817 0 1.225.352 1.225 1.056z" fill="#303944"/><path d="M64.195 26.316a.204.204 0 01-.14-.051.217.217 0 01-.05-.144v-5.52c0-.063.017-.11.05-.144a.188.188 0 01.14-.06h3.395c.055 0 .099.02.132.06a.181.181 0 01.057.143v.322a.217.217 0 01-.049.143.187.187 0 01-.14.051h-2.795v1.852h2.614c.055 0 .099.02.132.059a.181.181 0 01.058.143v.313a.2.2 0 01-.058.144.175.175 0 01-.132.05h-2.614v1.92h2.861a.19.19 0 01.14.05c.033.034.05.082.05.144v.33c0 .056-.02.104-.058.144a.175.175 0 01-.132.05h-3.461z" fill="#303944"/></svg>