<svg width="34" height="34" fill="none" xmlns="http://www.w3.org/2000/svg"><rect x="1" y="1" width="32" height="32" rx="5" stroke="#303944" stroke-width="2"/><path d="M14.41 18.087L14.399 25h3.262l.013-6.912h2.583c.232 0 .428-.161.455-.374l.286-2.228c.032-.253-.18-.474-.456-.474H17.66v-1.864c0-.845.254-1.421 1.565-1.421h1.215c.253 0 .458-.19.458-.425V9.425c0-.234-.206-.424-.459-.424H18.46c-2.411 0-4.062 1.36-4.062 3.859v2.153h-1.94c-.253 0-.459.19-.458.425l.01 2.228c0 .234.205.422.458.422h1.943z" fill="#303944"/></svg>