<svg width="25" height="24" viewBox="0 0 25 24" fill="none" xmlns="http://www.w3.org/2000/svg">
<path d="M12.5 2C6.98603 2 2.5 6.48604 2.5 12C2.5 17.514 6.98603 22 12.5 22C18.014 22 22.5 17.514 22.5 12C22.5 6.48604 18.014 2 12.5 2ZM12.5 3.5C12.8391 3.5 13.1714 3.52509 13.5 3.56348V4C13.5 4.276 13.724 4.5 14 4.5H14.5C14.776 4.5 15 4.276 15 4V3.87402C16.5811 4.35797 17.9613 5.29041 19 6.52246V9.19727C19 9.39477 19.0585 9.58745 19.168 9.75195L19.8721 10.8076C19.9556 10.9326 20 11.0809 20 11.2314V11.2373C20 11.6588 20.3412 12 20.7627 12H21C21 16.2814 17.8504 19.8015 13.7383 20.4004L16.4893 18.1631C16.6623 18.0216 16.8163 17.8583 16.9463 17.6768L18.3164 15.7578C18.4354 15.5913 18.4944 15.3891 18.4834 15.1846L18.4668 14.8711C18.4558 14.6636 18.3739 14.4665 18.2344 14.3125L17.7695 13.7979C17.598 13.6079 17.3541 13.5 17.0986 13.5H16.8838C16.6388 13.5 16.4039 13.4001 16.2334 13.2236L15.3164 12.2764C15.1459 12.1004 14.911 12.0005 14.666 12H13.874C13.634 12 13.4044 12.0946 13.2344 12.2646L12.7637 12.7354C12.5952 12.9049 12.5 13.1345 12.5 13.374V13.4414C12.5 13.7839 12.3065 14.097 12 14.25C11.6935 14.403 11.5 14.7161 11.5 15.0586V15.623C11.5 16 11.7339 16.3372 12.0869 16.4697L12.5596 16.6475C13.0626 16.836 13.2908 17.4179 13.0508 17.8984L11.7686 20.4629C7.41018 20.0925 4 16.4562 4 12C4 9.17013 5.38059 6.67579 7.5 5.13184V5.75293C7.5 5.91093 7.4367 6.0633 7.3252 6.1748L6.81641 6.68359C6.61391 6.88609 6.5 7.16077 6.5 7.44727V8.30957C6.5 8.43607 6.51819 8.56162 6.55469 8.68262L7.13184 10.6035C7.20834 10.8585 7.37554 11.0768 7.60254 11.2168L10.3564 12.9121C10.4499 12.9696 10.5584 13 10.6689 13H10.9043C11.2333 13 11.5 12.7328 11.5 12.4033C11.5 12.1593 11.3515 11.9401 11.125 11.8496L9.37402 11.1504C9.14802 11.0599 9 10.8402 9 10.5967V10.0967C9 9.76718 9.26718 9.5 9.59668 9.5H11.1318C11.3578 9.5 11.564 9.3729 11.665 9.1709L12.3896 7.7207C12.4601 7.5792 12.5839 7.47188 12.7344 7.42188L13.5928 7.13574C13.8363 7.05424 14 6.82731 14 6.57031V6.31348C14 6.11748 13.9032 5.93327 13.7412 5.82227L10.6602 3.7041C11.253 3.57375 11.8674 3.5 12.5 3.5ZM12 10C11.724 10 11.5 10.224 11.5 10.5C11.5 10.776 11.724 11 12 11H13C13.276 11 13.5 10.776 13.5 10.5C13.5 10.224 13.276 10 13 10H12Z" fill="#303944"/>
</svg>
