<svg width="96" height="24" fill="none" xmlns="http://www.w3.org/2000/svg"><path d="M.139 18.738V5.444h3.687v13.294H.14zM1.99 3.73a2.004 2.004 0 01-1.41-.545C.193 2.815 0 2.375 0 1.861 0 1.353.193.917.58.554.972.184 1.443 0 1.991 0s1.016.185 1.402.554c.393.363.59.799.59 1.307 0 .513-.197.955-.59 1.324a1.974 1.974 0 01-1.402.545z" fill="#1A233F"/><path d="M18.606 6.742a3.886 3.886 0 00-.511-1.116 3.154 3.154 0 00-.805-.831 3.454 3.454 0 00-1.074-.528 4.538 4.538 0 00-1.324-.182c-.906 0-1.703.225-2.39.675-.68.45-1.211 1.105-1.592 1.965-.381.854-.572 1.898-.572 3.133s.188 2.285.563 3.15c.375.866.906 1.526 1.593 1.982.687.45 1.498.675 2.433.675.848 0 1.572-.15 2.172-.45a3.226 3.226 0 001.386-1.29c.323-.553.484-1.208.484-1.964l.762.113h-4.57V9.252h7.418v2.233c0 1.558-.329 2.897-.987 4.016a6.726 6.726 0 01-2.718 2.58c-1.154.6-2.476.9-3.965.9-1.662 0-3.122-.367-4.38-1.1-1.258-.739-2.24-1.786-2.943-3.142-.699-1.361-1.048-2.977-1.048-4.846 0-1.437.208-2.718.623-3.843.422-1.131 1.01-2.089 1.766-2.874a7.631 7.631 0 012.64-1.791C12.573.975 13.66.77 14.832.77a8.66 8.66 0 012.805.442A7.473 7.473 0 0119.94 2.44a6.656 6.656 0 011.653 1.895c.427.727.702 1.53.823 2.406h-3.81zm10.511 12.247c-.848 0-1.604-.147-2.268-.442a3.65 3.65 0 01-1.575-1.324c-.381-.588-.572-1.321-.572-2.198 0-.739.136-1.359.407-1.86.271-.503.64-.907 1.108-1.213a5.377 5.377 0 011.593-.692c.6-.156 1.23-.265 1.887-.329.774-.08 1.397-.156 1.87-.225.473-.075.817-.184 1.03-.329.214-.144.32-.357.32-.64v-.052c0-.548-.172-.972-.519-1.272-.34-.3-.825-.45-1.454-.45-.664 0-1.192.147-1.584.44a2.03 2.03 0 00-.78 1.091l-3.41-.277a4.632 4.632 0 011.021-2.094c.508-.594 1.163-1.05 1.965-1.368.808-.323 1.743-.484 2.805-.484a8.51 8.51 0 012.121.26 5.55 5.55 0 011.81.804c.53.364.949.831 1.255 1.402.306.566.458 1.244.458 2.034v8.967h-3.497v-1.844h-.104a3.75 3.75 0 01-.857 1.1 3.967 3.967 0 01-1.29.735c-.502.173-1.082.26-1.74.26zm1.056-2.545c.543 0 1.022-.107 1.437-.32.416-.22.742-.513.979-.883.236-.369.355-.787.355-1.255v-1.41a1.977 1.977 0 01-.477.207 8.68 8.68 0 01-.666.165c-.248.046-.496.09-.745.13l-.675.095c-.433.063-.81.164-1.134.303a1.813 1.813 0 00-.753.562c-.179.231-.268.52-.268.866 0 .502.181.885.545 1.15.37.26.837.39 1.402.39zm9.294 2.294V5.444h3.514v2.345h.156c.277-.779.739-1.393 1.385-1.843.647-.45 1.42-.675 2.32-.675.912 0 1.688.228 2.329.684a3.22 3.22 0 011.281 1.834h.139c.27-.761.761-1.37 1.471-1.826.716-.461 1.561-.692 2.537-.692 1.24 0 2.248.395 3.02 1.186.78.784 1.17 1.898 1.17 3.34v8.94h-3.68v-8.213c0-.738-.196-1.292-.588-1.661-.393-.37-.883-.554-1.472-.554-.67 0-1.192.213-1.567.64-.375.421-.563.978-.563 1.67v8.119h-3.575v-8.292c0-.652-.187-1.17-.562-1.557-.37-.387-.857-.58-1.463-.58-.41 0-.78.104-1.108.311a2.14 2.14 0 00-.771.857c-.19.364-.286.79-.286 1.281v7.98h-3.688zm22.235 0V5.444h3.687v13.294h-3.687zM63.554 3.73a2.004 2.004 0 01-1.41-.545c-.388-.37-.58-.81-.58-1.324 0-.508.192-.944.58-1.307.392-.37.862-.554 1.41-.554a1.96 1.96 0 011.403.554c.392.363.588.799.588 1.307 0 .513-.196.955-.588 1.324a1.974 1.974 0 01-1.403.545zm8.477 7.322v7.686h-3.687V5.444h3.514v2.345h.156a3.708 3.708 0 011.48-1.834c.693-.456 1.533-.684 2.52-.684.923 0 1.728.202 2.415.606.687.404 1.22.98 1.601 1.73.381.745.572 1.634.572 2.666v8.465h-3.688V10.93c.006-.813-.202-1.448-.624-1.904-.42-.462-1-.692-1.74-.692-.496 0-.934.106-1.315.32-.375.213-.67.525-.883.935-.208.404-.315.891-.32 1.462zM89.499 24c-1.195 0-2.22-.164-3.073-.493-.849-.323-1.524-.765-2.026-1.325a4.072 4.072 0 01-.978-1.886l3.41-.459c.104.265.269.514.494.744.225.231.522.416.892.554.375.144.83.217 1.367.217.803 0 1.463-.197 1.983-.589.525-.387.788-1.036.788-1.947v-2.432H92.2a3.503 3.503 0 01-.728 1.047c-.323.329-.738.597-1.246.805-.508.208-1.114.311-1.818.311-.999 0-1.907-.23-2.727-.692-.814-.467-1.463-1.18-1.948-2.138-.479-.963-.718-2.18-.718-3.652 0-1.506.245-2.764.736-3.774.49-1.01 1.142-1.765 1.956-2.267a5.057 5.057 0 012.692-.753c.745 0 1.368.127 1.87.38.502.249.906.56 1.212.935.312.37.551.733.719 1.09h.138V5.445H96v13.424c0 1.13-.277 2.077-.831 2.838-.554.762-1.322 1.333-2.303 1.714-.975.387-2.098.58-3.367.58zm.078-8.222c.594 0 1.096-.147 1.506-.442.415-.3.733-.727.952-1.28.225-.56.338-1.23.338-2.008 0-.78-.11-1.454-.33-2.026-.219-.577-.536-1.024-.951-1.341-.416-.317-.92-.476-1.515-.476-.606 0-1.117.164-1.533.493-.415.323-.73.773-.943 1.35-.214.577-.32 1.244-.32 2 0 .767.106 1.43.32 1.99.22.554.534.984.943 1.29.416.3.927.45 1.533.45z" fill="#40C3FF"/></svg>