<svg width="56" height="34" fill="none" xmlns="http://www.w3.org/2000/svg"><path d="M39.24.004c-4.33.001-8.273 1.666-11.245 4.394C25.024 1.67 21.083.008 16.76.008h-.108C7.45.068 0 7.658 0 17c0 9.38 7.51 16.99 16.76 16.99 4.322 0 8.261-1.662 11.235-4.39a16.712 16.712 0 01-1.713-1.857h3.462a16.897 16.897 0 01-1.702 1.82h-.004l.001.002c-.014.013-.029.022-.043.036a16.562 16.562 0 0011.25 4.395c9.258-.002 16.756-7.613 16.754-16.995v-.009C55.998 7.61 48.492.004 39.24.004zm-12.768 6.15h3.185c.472.575.908 1.184 1.3 1.82h-5.68c.363-.61.765-1.232 1.195-1.82zm-2.187 3.604h7.637c.274.59.515 1.197.723 1.821h-9.266c.092-.176.415-.884.906-1.82zm-8.446 11.316H13.85l1.184-6.295-2.723 6.295h-1.799l-.332-6.253-1.184 6.253h-1.8l1.54-8.185h3.102l.143 5.07 2.202-5.07h3.222l-1.566 8.185zm7.035-3.537l-.427 2.365-.07.423-.047.338-.025.227-.023.18h-1.657l.047-.687c-.496.548-1.184.803-2.083.803-1.066 0-1.8-.742-1.8-1.816 0-1.62 1.278-2.568 3.48-2.568.213 0 .497.02.805.052.047-.22.071-.31.071-.432 0-.44-.356-.604-1.279-.604-.568 0-1.208.069-1.633.184l-.285.073-.165.043.26-1.5c.995-.255 1.634-.35 2.368-.35 1.704 0 2.605.676 2.605 1.952 0 .33-.023.578-.142 1.318zm3.957-3.284c1.633 0 2.676.941 2.676 2.417 0 .494-.072.97-.24 1.646h-3.929c-.024.102-.024.148-.024.21 0 .771.592 1.164 1.729 1.164.71 0 1.35-.13 2.06-.422l-.33 1.667a7.59 7.59 0 01-2.014.268c-2.226 0-3.387-1.023-3.387-2.984 0-2.283 1.469-3.964 3.459-3.966zm4.148 11.742h-5.947c-.361-.586-.7-1.187-.99-1.819h7.913a17.09 17.09 0 01-.976 1.82zm3.643-10.05a13.197 13.197 0 00-1.445-.097c-.64 0-.971.183-.971.54 0 .313.094.388.923.725 1.017.405 1.422.94 1.422 1.854 0 1.519-.972 2.22-3.104 2.22-.26 0-.614-.019-1.088-.054a4.926 4.926 0 01-.546-.061l-.355-.066-.095-.018.285-1.536a6.25 6.25 0 001.8.262c.782 0 1.137-.185 1.137-.6 0-.305-.12-.403-.924-.735-1.065-.435-1.54-1.016-1.54-1.856 0-1.23.783-2.252 3.01-2.252.474 0 1.255.058 1.775.13l-.284 1.545zm3.105 3.64c.212 0 .377-.022.519-.065l-.26 1.477c-.545.151-.97.218-1.421.218-1.019 0-1.564-.52-1.564-1.463 0-.188.024-.387.048-.598l.119-.655.094-.527.923-5.083h1.965l-.283 1.53h1.017l-.284 1.62h-1.02l-.52 2.776c-.025.121-.025.212-.025.275 0 .345.215.492.69.494zm4.844-3.294c-.947 0-1.254.715-1.965 4.787h-1.99l1.208-6.659h1.8l-.189 1.01c.616-.786 1.088-1.081 1.729-1.081.072 0 .143.007.214.016 0 .004.073.017.169.04.023.007.046.007.212.073l-.707 1.881-.237-.049a1.895 1.895 0 00-.244-.018zm3.514 4.961c-2.255 0-3.152-1.38-3.152-3.07 0-2.357 1.539-3.957 3.907-3.957 2.063 0 3.152 1.315 3.152 3.003 0 .414 0 .442-.048.829-.308 2.214-1.824 3.198-3.86 3.195zm4.072-.178a.524.524 0 01-.521-.521.523.523 0 011.043 0c0 .29-.237.521-.522.521z" fill="#303944"/></svg>