<svg width="53" height="40" fill="none" xmlns="http://www.w3.org/2000/svg"><g clip-path="url(#clip0_346_2727)"><path d="M51.143 39.458v.103h.096a.1.1 0 00.051-.013.046.046 0 00.02-.04.044.044 0 00-.02-.038.091.091 0 00-.051-.013h-.096v.001zm.097-.072a.176.176 0 01.115.033.11.11 0 01.04.091.106.106 0 01-.033.08.156.156 0 01-.091.038l.128.147H51.3l-.117-.146h-.039v.146h-.082v-.39h.18-.002zm-.026.523a.33.33 0 00.297-.198.334.334 0 000-.255.338.338 0 00-.171-.172.334.334 0 00-.254 0 .327.327 0 00-.104.07.332.332 0 000 .462.329.329 0 00.232.096v-.003zm0-.743a.428.428 0 01.392.257.415.415 0 01-.226.548.423.423 0 01-.468-.686.42.42 0 01.304-.123l-.002.004zm-39.198-1.502c0-.742.483-1.35 1.274-1.35.756 0 1.266.582 1.266 1.35 0 .768-.51 1.351-1.266 1.351-.79 0-1.274-.61-1.274-1.35zm3.401 0v-2.11h-.913v.514c-.29-.38-.73-.619-1.327-.619-1.178 0-2.102.928-2.102 2.216 0 1.288.924 2.216 2.102 2.216.597 0 1.037-.239 1.327-.618v.512h.912v-2.11h.001zm30.872 0c0-.742.484-1.35 1.275-1.35.756 0 1.265.582 1.265 1.35 0 .768-.509 1.351-1.265 1.351-.791 0-1.275-.61-1.275-1.35zm3.403 0V33.86h-.915v2.209c-.29-.38-.73-.619-1.327-.619-1.178 0-2.102.928-2.102 2.216 0 1.288.924 2.216 2.102 2.216.598 0 1.037-.239 1.327-.618v.512h.915v-2.11zM26.757 36.27c.589 0 .967.37 1.064 1.023h-2.18c.097-.61.465-1.023 1.116-1.023zm.019-.823c-1.232 0-2.093.9-2.093 2.216 0 1.341.896 2.216 2.154 2.216.633 0 1.212-.16 1.722-.592l-.448-.68c-.352.283-.8.442-1.222.442-.589 0-1.125-.274-1.257-1.034h3.12c.01-.114.018-.23.018-.352-.009-1.316-.819-2.216-1.995-2.216zm11.03 2.215c0-.741.484-1.35 1.275-1.35.755 0 1.265.583 1.265 1.35 0 .768-.51 1.351-1.265 1.351-.791 0-1.275-.609-1.275-1.35zm3.402 0v-2.108h-.914v.514c-.29-.38-.729-.619-1.327-.619-1.177 0-2.102.928-2.102 2.216 0 1.288.924 2.216 2.102 2.216.598 0 1.037-.239 1.327-.618v.512h.914v-2.112zm-8.562 0c0 1.28.888 2.216 2.242 2.216.633 0 1.054-.141 1.51-.503l-.438-.742c-.343.248-.704.38-1.101.38-.73-.009-1.266-.538-1.266-1.35 0-.813.536-1.342 1.266-1.351.396 0 .756.132 1.1.38l.44-.742c-.457-.362-.879-.503-1.511-.503-1.354 0-2.242.935-2.242 2.215zm11.779-2.215c-.527 0-.87.247-1.108.618v-.511h-.905v4.219h.915v-2.366c0-.698.298-1.086.895-1.086.196-.002.39.034.572.107l.282-.865a1.937 1.937 0 00-.652-.115l.001-.001zm-24.49.442c-.44-.291-1.046-.441-1.714-.441-1.064 0-1.75.512-1.75 1.35 0 .688.51 1.113 1.45 1.245l.432.062c.5.07.737.203.737.441 0 .326-.333.512-.957.512-.633 0-1.09-.203-1.398-.441l-.43.716c.502.37 1.134.547 1.82.547 1.213 0 1.916-.574 1.916-1.377 0-.742-.553-1.13-1.467-1.262l-.431-.063c-.396-.051-.712-.131-.712-.414 0-.308.298-.494.8-.494a2.7 2.7 0 011.31.362l.395-.742-.002-.001zm11.789-.44c-.528 0-.87.247-1.107.618v-.514h-.906v4.22h.914v-2.366c0-.698.299-1.086.896-1.086.196-.002.39.034.571.107l.282-.865a1.936 1.936 0 00-.651-.115zm-7.797.105h-1.494v-1.28h-.924v1.28h-.852v.838h.852v1.925c0 .979.378 1.562 1.46 1.562.396 0 .853-.124 1.142-.326l-.264-.786a1.687 1.687 0 01-.809.238c-.456 0-.605-.282-.605-.706v-1.906h1.494v-.84zm-13.66 4.22v-2.648c0-.997-.633-1.668-1.653-1.677-.536-.01-1.09.158-1.477.75-.29-.468-.746-.75-1.388-.75-.45 0-.888.132-1.231.626v-.522h-.914v4.22h.921v-2.34c0-.732.405-1.121 1.03-1.121.606 0 .913.397.913 1.112v2.348h.924v-2.34c0-.732.421-1.12 1.028-1.12.624 0 .921.396.921 1.111v2.349l.926.002z" fill="#231F20"/><path d="M51.665 25.738v-.617h-.16l-.186.423-.184-.423h-.16v.617h.114v-.465l.173.401h.117l.173-.402v.466h.113zm-1.015 0v-.511h.204v-.104h-.523v.104h.205v.511h.114z" fill="#F79410"/><path d="M33.48 28.384H19.632V3.396H33.48v24.988z" fill="#FF5F00"/><path d="M20.51 15.891c0-5.068 2.364-9.584 6.044-12.493A15.714 15.714 0 0016.776 0C8.036 0 .952 7.115.952 15.891c0 8.777 7.084 15.891 15.824 15.891a15.715 15.715 0 009.779-3.397A15.889 15.889 0 0120.51 15.89z" fill="#EB001B"/><path d="M52.159 15.891c0 8.777-7.084 15.891-15.823 15.891a15.719 15.719 0 01-9.78-3.397A15.887 15.887 0 0032.6 15.89c0-5.069-2.364-9.584-6.045-12.493A15.719 15.719 0 0136.335 0c8.74 0 15.823 7.115 15.823 15.891" fill="#F79E1B"/></g><defs><clipPath id="clip0_346_2727"><path fill="#fff" transform="translate(.952)" d="M0 0h51.2v40H0z"/></clipPath></defs></svg>