<svg width="115" height="24" fill="none" xmlns="http://www.w3.org/2000/svg"><path d="M13.633 11.498c0-1.833.016-3.67-.011-5.5 0-.548.16-.75.672-.718.604.038 1.21.038 1.814 0 .495-.035.823.102.906.664.084.61.363.427.68.209 1.057-.738 2.194-1.196 3.485-1.147 1.045.038 1.975.386 2.644 1.249.333.434.544.3.881.054 1.478-1.074 3.082-1.616 4.877-1.141 1.542.407 2.455 1.47 2.71 3.119.338 2.203.115 4.43.143 6.645.01.917.39 2.106-.17 2.686-.514.53-1.618.058-2.45.17-.952.127-1.215-.238-1.174-1.244.078-1.958.04-3.924.013-5.886-.01-.798.011-1.707-.863-2.053-.948-.374-1.839-.01-2.664.52-.317.204-.239.56-.239.874 0 2.252-.049 4.506.022 6.76.027.895-.249 1.108-1.015 1.033a12.452 12.452 0 00-2.082 0c-.575.04-.713-.194-.705-.773.025-2.124.016-4.248 0-6.373 0-.801.076-1.72-.825-2.05-.947-.346-1.846 0-2.664.554-.316.214-.194.58-.196.89 0 2.317-.025 4.635 0 6.952.01.636-.167.842-.76.802a15.179 15.179 0 00-2.262 0c-.671.054-.8-.238-.787-.883.045-1.811.02-3.613.02-5.413zm22.427 2.119c-2.747-2.233-2.127-5.738-.631-7.178 1.692-1.63 3.692-1.738 5.77-1.107.437.131.736.216 1.124-.133.92-.829 2.058-.81 3.184-.773.32 0 .433.163.362.485-.03.124-.069.247-.098.37-.415 1.739-.415 1.739-2.05 1.932.576 1.143.885 2.337.663 3.61-.431 2.475-2.709 4.055-5.43 3.835-.323-.025-.856-.471-.992.193-.136.664.406.896.885 1 1.062.232 2.14.386 3.204.597a8.492 8.492 0 011.566.446c2.162.898 2.658 3.434 1.043 5.214a4.841 4.841 0 01-2.158 1.352c-2.057.68-4.254.719-6.332.114a4.597 4.597 0 01-1.46-.746c-1.812-1.338-1.812-3.733-.01-5.069.181-.137.635-.098.386-.655-.667-1.494-.484-2.186.715-3.226a4.9 4.9 0 01.259-.261zm3.51 7.628a4.2 4.2 0 001.34-.155c.493-.164 1.088-.29 1.1-.946.014-.656-.592-.853-1.087-.965-1.146-.248-2.306-.421-3.458-.64-.328-.062-.498.091-.638.386-.314.657-.105 1.377.575 1.796.66.392 1.412.575 2.166.526l.002-.002zM37.697 9.787c0 1.13.666 1.904 1.632 1.904.907 0 1.623-.786 1.632-1.815.013-1.08-.773-1.97-1.728-1.954-.956.015-1.54.741-1.536 1.865zm15.666 7.047c-1.039.9-2.252 1.255-3.608 1.159a3.842 3.842 0 01-3.481-3.113c-.377-2.022.344-3.587 2.056-4.452 1.233-.621 2.567-.635 3.887-.745.272-.023.686.193.78-.238.04-.208.016-.424-.07-.617a.964.964 0 00-.401-.45 2.563 2.563 0 00-1.738-.387c-.725.08-1.45.159-2.108.5-.432.223-.736.194-.887-.347a1.678 1.678 0 00-.118-.26c-.874-1.849-.872-1.845.976-2.43a10.502 10.502 0 014.295-.4c2.48.257 3.819 1.765 3.91 4.513.083 2.569.048 5.14.092 7.711 0 .404-.13.498-.46.495-.726-.01-1.451-.027-2.176 0-.617.03-.54-.68-.949-.939zm-.25-3.393c0-1.159 0-1.197-.372-1.207-.689-.017-1.392 0-2.04.284-.774.348-1.017 1.392-.431 1.972.685.681 1.507.43 2.304.235.76-.187.481-.83.539-1.284zm-41.941-2.233l-.07.365h-.086c-3.39 1.23-6.782 2.461-10.174 3.695-.248.088-.556.313-.758.05-.2-.263.062-.539.236-.747.907-1.09 1.483-2.542 3.026-3.075-1.566-.571-2.165-2.07-3.111-3.202C.08 8.111-.12 7.866.09 7.62c.163-.193.393-.04.59.033 2.31.834 4.614 1.703 6.936 2.501 1.088.37 2.11.948 3.264 1.047l.292.007z" fill="#303944"/><path d="M11.172 11.209h-.288c.141-.448-.116-.817-.245-1.196C9.611 6.99 8.576 3.98 7.544.968c-.1-.29-.341-.659-.084-.89.258-.232.544.115.787.276.051.032.098.073.147.112 2.883 2.28 2.878 1.842 2.834 5.924l-.056 4.819zm.015 1.157c.012 2.184.045 4.368.025 6.552a2.81 2.81 0 01-.283 1.257c-.19.388-.466.72-.805.967-.611.472-1.206.966-1.822 1.426-.254.193-.522.61-.849.326-.257-.222 0-.597.095-.888.967-2.833 1.934-5.66 2.9-8.484.135-.386.29-.772.436-1.159l.303.003zm53.908-5.433c-.428.681-.75 1.139-1.016 1.63-.404.747-.756.579-1.13-.016-.313-.492-.578-1.03-1.114-1.504v2.755c0 .36.12.83-.476.81-.594-.022-.435-.508-.435-.854a179.097 179.097 0 010-3.947c0-.286-.141-.68.318-.773a.729.729 0 01.486.05c.153.073.28.196.36.352.448.718.907 1.43 1.438 2.271.435-.715.845-1.352 1.222-2.018.25-.44.523-.8 1.068-.657.595.155.329.68.34 1.037a57.168 57.168 0 010 3.465c-.013.402.29 1.056-.501 1.07-.861.015-.515-.694-.544-1.118-.044-.763-.016-1.536-.016-2.553zm35.176.01c-.423.672-.744 1.13-1.01 1.62-.404.743-.76.58-1.132-.016a6.003 6.003 0 00-1.1-1.411v2.752c0 .36.029.732-.483.718-.51-.014-.446-.406-.446-.75 0-1.351-.009-2.703 0-4.055 0-.288-.141-.681.321-.772a.734.734 0 01.487.051c.153.072.28.195.362.35.448.72.907 1.435 1.45 2.281.474-.772.934-1.46 1.324-2.19a.855.855 0 01.394-.424.78.78 0 01.558-.059c.506.099.328.545.334.858.018 1.286 0 2.572 0 3.862 0 .44 0 .856-.586.86-.586.003-.475-.45-.479-.812.006-.872.006-1.741.006-2.863zm8.159 1.782V5.697c0-.326-.027-.653.432-.672.504-.021.504.319.502.695v4.14c0 .267.107.624-.265.725a.696.696 0 01-.483-.023.751.751 0 01-.367-.336c-.776-1.122-1.59-2.212-2.521-3.494V9.92c0 .386 0 .714-.502.695-.44-.018-.566-.275-.566-.686V5.884c0-.293-.146-.708.256-.824.403-.116.772-.077 1.057.322.689.966 1.391 1.931 2.089 2.897.067.09.145.178.368.446zm-24.544 3.432c1.632 0 2.622 1.08 2.613 2.84a2.87 2.87 0 01-.186 1.076 2.74 2.74 0 01-.568.91c-.246.26-.538.464-.86.6-.321.135-.665.2-1.011.19-1.614 0-2.64-1.097-2.635-2.826.006-1.765.983-2.79 2.647-2.79zm1.53 2.783c.01-1.115-.69-1.986-1.578-1.96-.889.024-1.507.828-1.52 1.93-.014 1.262.511 1.932 1.514 1.932 1.026-.018 1.57-.66 1.585-1.904l-.002.002zm-5.103.067c0 .707-.013 1.416 0 2.125.01.442-.132.645-.575.635-.442-.01-.517-.234-.498-.612v-.58c0-1.301 0-1.301-1.206-1.301-1.155 0-1.152 0-1.16 1.26.024.35-.003.703-.082 1.044-.091.276-.42.183-.651.164-.338-.027-.334-.311-.334-.58v-4.441c0-.412.158-.57.544-.57s.559.164.533.58c-.009.16 0 .32 0 .482-.004 1.261-.004 1.261 1.16 1.261 1.165 0 1.16 0 1.2-1.502.01-.369-.099-.79.489-.811.616-.021.584.386.58.822-.004.674 0 1.348 0 2.024zm7.102-.049v-2.124c0-.24-.074-.612.25-.627.829-.043 1.696-.27 2.463.264.817.58.948 1.667.217 2.373-.362.36-.353.545-.089.916.25.36.462.748.631 1.159.102.24.53.561.093.772-.323.158-.778.17-1.023-.315-.214-.423-.444-.836-.672-1.25-.136-.245-.26-.567-.597-.459-.306.099-.181.429-.201.666a6.184 6.184 0 000 .773c.025.43-.11.649-.559.647-.484 0-.522-.3-.517-.692.01-.69.002-1.398.004-2.103zm1.07-1.064c0 .387-.073.821.506.773.451-.04.747-.294.747-.773 0-.479-.303-.735-.754-.772-.583-.043-.486.41-.5.772zm26.483-4.787c0 1.251-.157 1.452-1.316 1.504-.544.025-1.088.095-1.61-.114-1.306-.513-1.855-1.649-1.605-3.35.182-1.215 1.181-2.097 2.439-2.125a9.365 9.365 0 011.269.037c.396.043.706.24.626.748-.107.673-.508.237-.76.193-1.721-.375-2.705.515-2.497 2.284.124 1.058 1.248 1.756 2.176 1.373.377-.154.307-.484.363-.793.071-.4-.299-1.115.488-1.07.786.044.295.749.424 1.14.009.057.01.115.003.173zm-25.011-.025c0 1.288-.17 1.491-1.389 1.534-.507.017-1.02.085-1.523-.107-1.305-.492-1.864-1.622-1.632-3.333a2.478 2.478 0 012.417-2.159 9.877 9.877 0 011.27.031c.447.044.78.288.634.819-.161.59-.556.152-.81.1-1.632-.338-2.562.481-2.44 2.183.021.265.098.523.227.752.129.229.305.423.515.568a1.539 1.539 0 001.435.177c.384-.144.324-.468.38-.773.073-.402-.308-1.107.468-1.093.776.013.34.72.455 1.114a.717.717 0 01-.007.187zm-23.775 5.294V12.74c0-.325.057-.558.436-.58.43-.017.49.242.49.609 0 .865-.017 1.738 0 2.597.023 1.003.405 1.454 1.185 1.45.814 0 1.153-.418 1.16-1.448.008-.866.008-1.732 0-2.597 0-.367.064-.61.488-.618.424-.008.608.168.582.62-.061 1.149.13 2.308-.127 3.447-.273 1.209-1.088 1.686-2.61 1.545-.978-.097-1.582-.825-1.604-1.947-.012-.479 0-.958 0-1.442zm16.455-3.764a.523.523 0 01-.435-.093.577.577 0 01-.156-.176.616.616 0 01-.076-.227c-.13-.58-.373-.921-1.044-.889-.671.033-1.27.012-1.395.925-.045.307-.26.47-.589.472-.413 0-.64-.06-.44-.591.567-1.514 1.115-3.04 1.659-4.564a.634.634 0 01.228-.342.569.569 0 01.379-.115c.34-.012.484.204.59.484.57 1.514 1.13 3.032 1.713 4.54.203.522-.026.617-.434.576zm-1.851-4.14c-.205.772-.642 1.214-.379 1.792.044.092.579.1.655-.022.351-.562-.167-.99-.276-1.77zm-9.215 3.896c-.172.41-.53.242-.814.207-.24-.029-.333-.295-.373-.5-.163-.85-.726-.819-1.366-.846-.64-.027-.935.25-1.066.873-.114.539-.527.614-.924.483-.517-.172-.117-.564-.042-.773.495-1.448 1.042-2.875 1.563-4.312a.644.644 0 01.215-.354.577.577 0 01.376-.135c.334-.013.491.174.602.468l1.699 4.553.13.336zm-2.335-3.85c-.306.69-.627 1.158-.466 1.738.02.073.562.125.65 0 .42-.556-.155-1.003-.184-1.738zm26.072 3.777c.042.21-.07.29-.241.307-.374.037-.78.062-.87-.442-.147-.815-.619-.927-1.31-.939-.69-.012-.995.236-1.158.884-.114.452-.443.636-.84.464-.426-.184-.181-.539-.08-.817a327.173 327.173 0 011.529-4.223c.098-.269.21-.52.564-.524a.556.556 0 01.38.112.613.613 0 01.227.344c.57 1.52 1.14 3.04 1.712 4.56.034.088.058.183.087.274zm-2.383-3.577c-.08.52-.596.943-.31 1.495.1.193.544.193.651 0 .296-.56-.132-1.002-.34-1.495zM61.44 17.757c-.42 0-.566-.147-.423-.535.58-1.584 1.133-3.179 1.744-4.749.194-.496.83-.463 1.046.072.617 1.533 1.175 3.09 1.752 4.635.078.212.167.465-.14.542-.377.093-.749.062-.883-.419-.172-.614-.43-.977-1.137-.937-.653.04-1.195.049-1.342.895a.587.587 0 01-.206.392.512.512 0 01-.412.104zm1.841-4.034c-.192.734-.632 1.135-.331 1.672.061.112.601.112.66 0 .295-.535-.122-.938-.329-1.672zm9.275 1.728c0-.32-.015-.643 0-.965.044-.81.112-1.613-1.057-1.39-.297.055-.414-.175-.414-.483 0-.412.245-.454.544-.452h2.983c.201 0 .564-.15.544.264-.013.29-.08.736-.495.659-1.191-.219-1.066.606-1.05 1.398.018.865 0 1.738 0 2.6 0 .407-.067.673-.544.673-.477 0-.544-.276-.531-.68.029-.533.02-1.077.02-1.624zm3.626-7.178c0-.351-.023-.707 0-1.056.066-.786.018-1.431-.993-1.257-.332.058-.49-.143-.479-.514.013-.427.283-.425.562-.427.963 0 1.926-.013 2.887 0 .22 0 .614-.193.618.272 0 .317-.181.692-.544.642-1.088-.153-1.023.579-1 1.351.026.897 0 1.794.01 2.69 0 .443-.136.642-.575.632-.439-.01-.498-.25-.493-.618.015-.562.007-1.14.007-1.715zm26.349 3.95c-.192.83-.656 1.479-1.046 2.15-.48.824-.75 1.654-.656 2.627.033.332.091.742-.437.757-.528.016-.544-.355-.48-.71.219-1.335-.487-2.33-1.045-3.382-.234-.442-.46-.89-.698-1.351.934-.213.934-.213 2.15 2.01.929-.454.537-2.484 2.212-2.101zm-7.337 3.242c0-.29-.019-.58 0-.869.067-.888.101-1.719-1.137-1.508-.272.046-.44-.184-.446-.487-.011-.425.27-.433.556-.433h2.99c.214 0 .544-.102.532.31-.011.291-.131.654-.46.602-1.268-.193-1.15.662-1.122 1.526.03.863 0 1.672 0 2.51 0 .35-.025.643-.466.64-.44-.005-.447-.308-.447-.651v-1.64zM72.197 7.798v-2.22c0-.412.169-.561.544-.563.375-.002.533.174.528.58-.013 1.029.034 2.058-.017 3.09-.034.725.135 1.11.887.978.181-.016.363-.016.544 0 .324 0 .399.215.39.51 0 .265-.107.433-.372.434H72.62c-.383 0-.423-.278-.421-.59l-.002-2.22zm31.337-.03v2.11c0 .421-.016.757-.554.746-.483-.012-.517-.305-.515-.693a495.03 495.03 0 000-4.222c0-.386.027-.684.511-.697.544-.014.566.319.558.741v2.015zm-10.516 7.264c0 .705-.013 1.41 0 2.115.012.452-.154.631-.584.622-.43-.01-.499-.242-.497-.615v-4.42c0-.41.154-.57.544-.57s.544.15.544.564c-.007.765-.007 1.534-.007 2.304z" fill="#303944"/><path d="M11.187 12.365h-.289l.118-.8h.085c.185.252.142.526.085.8z" fill="#303944"/></svg>