<svg width="32" height="32" viewBox="0 0 32 32" fill="none" xmlns="http://www.w3.org/2000/svg">
<path d="M29.3334 15.9993C29.3334 14.7773 28.8374 13.6253 27.9774 12.79C28.3047 11.636 28.1581 10.39 27.5467 9.33268C26.9361 8.27468 25.9307 7.52535 24.7681 7.23135C24.4747 6.06868 23.7247 5.06402 22.6667 4.45268C21.6094 3.84135 20.3634 3.69468 19.2087 4.02202C18.3741 3.16202 17.2214 2.66602 16.0001 2.66602C14.7787 2.66602 13.6261 3.16202 12.7914 4.02202C11.6381 3.69535 10.3914 3.84202 9.33342 4.45268C8.27541 5.06402 7.52541 6.06935 7.23208 7.23135C6.06941 7.52535 5.06408 8.27468 4.45341 9.33268C3.84275 10.39 3.69541 11.636 4.02275 12.79C3.16275 13.6253 2.66675 14.7773 2.66675 15.9993C2.66675 17.2213 3.16275 18.3733 4.02275 19.2087C3.69541 20.3627 3.84275 21.6087 4.45341 22.666C5.06408 23.724 6.06941 24.4734 7.23208 24.7673C7.52541 25.93 8.27541 26.9354 9.33342 27.546C10.3901 28.156 11.6361 28.3033 12.7907 27.9767C13.6261 28.8367 14.7787 29.3327 16.0001 29.3327C17.2214 29.3327 18.3741 28.8367 19.2094 27.9767C20.3634 28.3033 21.6094 28.1567 22.6667 27.546C23.7247 26.9347 24.4747 25.9293 24.7681 24.7673C25.9307 24.474 26.9361 23.724 27.5467 22.666C28.1574 21.6087 28.3047 20.3627 27.9774 19.2087C28.8374 18.3733 29.3334 17.2213 29.3334 15.9993ZM12.0001 17.9993C12.0001 18.2927 11.8074 18.5527 11.5267 18.6374C11.4627 18.6573 11.3981 18.666 11.3334 18.666C11.1147 18.666 10.9047 18.558 10.7787 18.3693L9.33342 16.2013V17.9993C9.33342 18.3673 9.03475 18.666 8.66675 18.666C8.29875 18.666 8.00008 18.3673 8.00008 17.9993V13.9993C8.00008 13.706 8.19275 13.446 8.47341 13.3613C8.75408 13.276 9.05741 13.3847 9.22141 13.6293L10.6667 15.7973V13.9993C10.6667 13.6313 10.9654 13.3327 11.3334 13.3327C11.7014 13.3327 12.0001 13.6313 12.0001 13.9993V17.9993ZM16.3334 15.3327C16.7014 15.3327 17.0001 15.6313 17.0001 15.9993C17.0001 16.3673 16.7014 16.666 16.3334 16.666H15.3334V17.3327H16.6667C17.0347 17.3327 17.3334 17.6313 17.3334 17.9993C17.3334 18.3673 17.0347 18.666 16.6667 18.666H14.6667C14.2987 18.666 14.0001 18.3673 14.0001 17.9993V13.9993C14.0001 13.6313 14.2987 13.3327 14.6667 13.3327H16.6667C17.0347 13.3327 17.3334 13.6313 17.3334 13.9993C17.3334 14.3673 17.0347 14.666 16.6667 14.666H15.3334V15.3327H16.3334ZM23.3241 18.1094C23.2794 18.3793 23.0741 18.594 22.8067 18.6514C22.7601 18.6614 22.7127 18.666 22.6667 18.666C22.4467 18.666 22.2367 18.5567 22.1121 18.3693L21.3334 17.2013L20.5547 18.3693C20.4028 18.5967 20.1287 18.7087 19.8601 18.6514C19.5927 18.594 19.3874 18.3793 19.3427 18.1094L18.6761 14.1094C18.6154 13.746 18.8607 13.4027 19.2241 13.342C19.5907 13.282 19.9307 13.5273 19.9914 13.89L20.3807 16.2273L20.7787 15.63C21.0261 15.2587 21.6407 15.2587 21.8881 15.63L22.2867 16.2273L22.6761 13.89C22.7361 13.5273 23.0781 13.2827 23.4427 13.342C23.8061 13.4027 24.0514 13.746 23.9907 14.1094L23.3241 18.1094Z" fill="#303944"/>
</svg>
