<svg width="208" height="34" fill="none" xmlns="http://www.w3.org/2000/svg"><path d="M37.85 15.189c-.023-.695-.361-1.054-1.018-1.078h-3.507c-.83.05-1.259.491-1.279 1.321v6.112c.02.857.494 1.293 1.416 1.318h3.214c.334 0 .612-.12.833-.365a.866.866 0 00.341-.714v-6.594zm-10.307-.868c.023-1.529.375-2.69 1.057-3.486.357-.333.803-.611 1.347-.841a4.104 4.104 0 011.643-.364h6.437c2.84.023 4.283 1.528 4.328 4.517v9.2c-.02 1.06-.45 1.981-1.278 2.752a4.178 4.178 0 01-2.944 1.246h-6.087v6.632h-4.503V14.321zm22.94 7.653c0 .256.122.459.36.61.211.183.479.278.817.278h3.459c.781 0 1.187-.293 1.21-.888v-1.25c0-.684-.412-1.029-1.244-1.029H51.66c-.45 0-.763.073-.936.21-.16.162-.241.482-.241.957v1.112zm5.846-6.893c.023-.67-.38-.99-1.212-.97h-9.069V9.63H56.26c2.975.047 4.484 1.439 4.535 4.188v9.376c-.025 1.186-.4 2.163-1.127 2.94-.76.806-1.74 1.211-2.942 1.211h-6.172c-3.005-.024-4.528-1.354-4.574-3.996v-3.617c.023-2.761 1.479-4.164 4.36-4.212h5.99v-.44zm17.114 14.413c.357-.021.666-.145.917-.368.241-.208.362-.447.362-.718v-1.063h-5.765c-.751 0-1.353-.093-1.801-.278-.475-.169-.947-.482-1.422-.928-.45-.472-.774-.966-.97-1.482-.205-.472-.309-1.073-.309-1.795V9.63h4.502v11.812c0 .947.4 1.42 1.207 1.42h3.18c.377 0 .705-.12.98-.365.266-.208.398-.454.398-.743V9.63h4.466v19.52c-.025 1.445-.408 2.602-1.145 3.48-.748.876-1.772 1.325-3.077 1.347h-10.51v-4.482h8.987zm9.28-6.632h8.023c.734-.024 1.116-.31 1.139-.855v-.403a.866.866 0 00-.107-.386c-.18-.338-.4-.506-.661-.506h-3.978c-1.18-.023-2.188-.417-3.034-1.177-.857-.703-1.296-1.567-1.321-2.581V13.61c.046-2.607 1.508-3.934 4.389-3.981h9.305v4.481h-7.884c-.925 0-1.391.276-1.391.824v.434c0 .569.476.853 1.426.853h3.965c1.057.024 1.958.416 2.708 1.18.759.77 1.152 1.686 1.176 2.75v3.27c-.024.918-.463 1.835-1.306 2.75-.411.448-.832.756-1.253.931-.436.16-1.027.242-1.782.242h-9.414v-4.483zm21.461-.888c0 .256.121.459.364.61.21.183.479.278.813.278h3.465c.781 0 1.185-.293 1.208-.888v-1.25c0-.684-.418-1.029-1.246-1.029h-3.427c-.45 0-.761.073-.933.21-.16.162-.244.482-.244.957v1.112zm5.85-6.893c.02-.67-.384-.99-1.216-.97h-9.067V9.63h10.214c2.971.047 4.482 1.439 4.529 4.188v9.376c-.024 1.186-.402 2.163-1.125 2.94-.755.806-1.737 1.211-2.939 1.211h-6.178c-3.002-.024-4.526-1.354-4.568-3.996v-3.617c.02-2.761 1.474-4.164 4.358-4.212h5.992v-.44zm8.121-7.993c.027-1.21.487-2.181 1.389-2.91.875-.74 2.025-1.12 3.446-1.141h2.86v4.33h-1.732c-.952.021-1.437.462-1.458 1.315v.949h3.19v4.486h-3.19v13.23h-4.505V7.088zm20.501 7.909v-.104a.688.688 0 00-.29-.572c-.21-.14-.466-.21-.774-.21h-3.135c-.402 0-.726.11-.977.334-.312.206-.47.478-.47.813v1.8l5.646-2.06zm-5.574 6.336v.28c0 .358.096.643.292.85.141.264.331.4.584.4h9.251v4.482h-9.835c-.898 0-1.597-.081-2.092-.244a3.83 3.83 0 01-1.449-.846c-.495-.475-.832-.957-1.001-1.454-.186-.519-.277-1.206-.277-2.063l-.039-8.971c.05-2.71 1.511-4.09 4.382-4.137h6.071c2.804.047 4.224 1.474 4.27 4.29v3.543l-10.157 3.87zm19.689 6.012a9.657 9.657 0 01-1.869-.173c-.591-.093-1.181-.359-1.783-.807-.618-.522-1.046-1.107-1.28-1.752-.248-.636-.367-1.355-.367-2.165v-8.365c-.025-.682.045-1.28.21-1.8.152-.518.47-1.026.951-1.523.548-.521 1.107-.869 1.697-1.039a8.171 8.171 0 011.926-.208h6.901v1.049h-6.741c-1.19 0-2.125.237-2.81.711-.699.517-1.056 1.41-1.056 2.667v8.37a5.4 5.4 0 00.277 1.715c.189.543.504 1.02.956 1.436.491.36.98.586 1.456.678a7.635 7.635 0 001.594.156h6.433v1.05h-6.495zm24.137-10.853h-9.048c-1.083.023-1.932.348-2.543.973-.633.635-.945 1.506-.945 2.612v2.67c0 .517.055.99.17 1.417.114.449.398.85.847 1.193.781.627 1.646.938 2.593.938h5.482c2.291-.024 3.444-1.193 3.444-3.515v-6.288zm1.076 6.027c0 .674-.053 1.265-.143 1.785-.146.566-.445 1.11-.9 1.629-.945.965-2.116 1.435-3.515 1.412h-5.379c-1.398 0-2.531-.405-3.409-1.21-.896-.796-1.351-1.903-1.351-3.322v-2.696c.046-3.043 1.61-4.601 4.691-4.672h8.963v-1.18c0-.972-.29-1.824-.869-2.556-.366-.476-.801-.794-1.294-.958a6.848 6.848 0 00-1.681-.19h-9.778V9.514h9.27c.847 0 1.613.058 2.307.172.357.068.681.203.981.398.317.185.613.456.887.812.832 1.039 1.237 2.237 1.22 3.587v8.037zm10.117-11.957c-2.509.045-3.746 1.372-3.7 3.983v12.8h-1.077V14.549c-.051-3.358 1.599-5.036 4.95-5.036h1.198v1.049h-1.371zm18.226.005h-8.528c-.615 0-1.165.066-1.661.193-.52.113-1.022.419-1.491.916-.45.453-.733.901-.852 1.35-.158.453-.229.996-.204 1.629v8.16c0 1.357.406 2.28 1.228 2.776.406.23.851.403 1.351.519a6.647 6.647 0 001.663.191h3.729c1.393 0 2.533-.31 3.408-.937.88-.588 1.328-1.602 1.357-3.048V10.567zm1.077 11.821c-.095 3.378-1.94 5.034-5.533 4.964h-3.998a11.39 11.39 0 01-2.267-.208c-.688-.172-1.345-.578-1.979-1.211-.476-.569-.782-1.144-.905-1.733a6.436 6.436 0 01-.211-1.956v-7.616c.047-3.43 1.829-5.135 5.353-5.11h8.463v-5.78h1.077v18.651zM2.53 8.955a5.661 5.661 0 011.06-.342c.65-3.007 3.4-5.263 6.694-5.263 3.297 0 6.047 2.259 6.696 5.265 1.012.186 1.848.582 2.5 1.173a9.231 9.231 0 00-.068-1.657C18.995 3.588 15.064.023 10.27.023c-4.935 0-8.953 3.79-9.162 8.528a11.98 11.98 0 00-.022 1.28 5.852 5.852 0 011.443-.876z" fill="#303944"/><path d="M15.641 9.63H4.644c-.53 0-1.078.119-1.643.364-.545.23-.991.508-1.35.841-.681.795-1.03 1.957-1.055 3.486v8.33c.024 1.533.374 2.694 1.056 3.484.358.338.804.617 1.35.85.564.24 1.112.36 1.642.36H15.64c2.841-.024 4.286-1.535 4.331-4.52v-8.678c-.045-2.99-1.49-4.494-4.33-4.517z" fill="#303944"/></svg>