<svg width="174" height="44" fill="none" xmlns="http://www.w3.org/2000/svg"><path d="M8.087 22.442L21.585 9.098a.176.176 0 01.23 0l6.62 6.558a.172.172 0 010 .228l-4.347 4.277a.176.176 0 01-.23 0l-2.043-2.024a.176.176 0 00-.23 0l-4.317 4.305a.172.172 0 000 .229l4.317 4.277a.176.176 0 00.23 0l6.734-6.673 4.576 4.534-11.31 11.206a.176.176 0 01-.23 0L8.087 22.7a.212.212 0 010-.257z" fill="#40C3FF"/><path d="M53.588 22.7L40.119 36.043a.176.176 0 01-.23 0l-6.62-6.558a.172.172 0 010-.229l4.346-4.305a.176.176 0 01.23 0l2.044 2.024a.176.176 0 00.23 0l4.346-4.277a.172.172 0 000-.228l-4.346-4.306a.176.176 0 00-.23 0l-6.735 6.673-4.604-4.534L39.86 9.098a.176.176 0 01.23 0l13.47 13.344c.086.058.086.172.029.257 0-.028 0-.028 0 0zm6.504-7.53V8.984c.346 0 1.41-.028 1.9-.028 1.9 0 2.504.97 2.504 2.053 0 1.112-.864 2.081-2.303 2.081-.144 0-.46 0-.69-.028v2.11h-1.41zm1.41-4.847v1.398c.202.028.432.057.662.057.374 0 .835-.171.835-.77 0-.542-.345-.713-.863-.713-.202 0-.346 0-.634.028zm6.907-1.425c1.9 0 3.31 1.226 3.31 3.193 0 1.882-1.41 3.194-3.31 3.194-1.9 0-3.31-1.226-3.31-3.194 0-1.796 1.353-3.193 3.31-3.193zm0 5.047c1.18 0 1.784-.827 1.784-1.882 0-1.14-.806-1.882-1.784-1.882-1.036 0-1.785.741-1.785 1.882 0 1.083.806 1.882 1.785 1.882zm10.649 1.226h-1.353l-1.295-3.963-1.295 3.963h-1.353l-1.842-6.16h1.612l1.036 3.907 1.151-3.906h1.44l1.208 3.906 1.065-3.906h1.381l-1.755 6.159zm2.562-6.187h3.683v1.311h-2.274v1.084h2.015v1.34h-2.015v1.112h2.36v1.312h-3.77v-6.16zm5.122 6.186V8.984c.345 0 1.928-.028 2.13-.028 1.697 0 2.302.827 2.302 1.967 0 1.14-.72 1.626-1.036 1.768l1.813 2.424h-1.727l-1.525-2.167h-.518v2.167h-1.44v.057zm1.41-4.847v1.37h.518c.547 0 .978-.2.978-.714 0-.342-.172-.656-.863-.656-.201-.028-.316-.028-.633 0zm4.576-1.339h3.683v1.311h-2.273v1.084h2.014v1.34h-2.014v1.112h2.36v1.312h-3.77v-6.16zm5.122-.001h.115c.317 0 1.44-.028 1.842-.028 2.504 0 3.482 1.425 3.482 3.05 0 1.74-1.18 3.166-3.568 3.166-.317 0-1.151-.029-1.756-.029h-.115V8.983zm1.41 1.34v3.536c.173.029.317.029.518.029 1.238 0 2.015-.656 2.015-1.825 0-1.14-.835-1.74-2.015-1.74a1.577 1.577 0 00-.518 0zm6.966-1.311a30.413 30.413 0 011.9-.057c1.496 0 2.1.684 2.1 1.54 0 .655-.259 1.083-.719 1.368v.029c.46.17.892.627.892 1.397 0 1.283-1.007 1.91-2.36 1.91-.604 0-1.41-.028-1.784-.057l-.029-6.13zm1.439 1.311v1.112h.461c.374 0 .661-.142.661-.598 0-.371-.345-.542-.69-.542-.173-.029-.288 0-.432.028zm0 2.339v1.14c.086.029.201.057.489.057.547 0 .835-.228.835-.656 0-.399-.288-.541-.748-.541h-.576zm6.878 0v2.509h-1.439v-2.51l-2.187-3.65h1.64l1.324 2.339 1.324-2.338h1.525l-2.187 3.65zm16.836 17.365c-.057.285-.115.57-.172.827 0 .085-.087.142-.173.142h-.288c-.086 0-.144-.057-.173-.142a7.533 7.533 0 00-.201-.77l-1.669-4.848c-.029-.057-.087-.114-.144-.114h-2.849c-.058 0-.144.057-.144.114l-1.641 4.848c-.086.257-.172.513-.201.77-.029.085-.086.142-.173.114h-.259c-.086 0-.144-.057-.172-.143-.029-.256-.087-.513-.144-.77l-1.295-4.847c-.029-.057-.087-.114-.144-.114h-3.281c-.086 0-.173.057-.173.171v.057l3.396 10.465c.029.057.087.114.144.114h2.734c.058 0 .115-.029.144-.114l1.899-4.905c.116-.285.202-.57.288-.884 0-.085.087-.142.144-.142h.202l.172.114c.058.285.115.57.231.827l1.928 4.961c.029.057.086.114.144.114h2.935c.086 0 .144-.057.144-.114l3.281-10.465c.029-.085-.029-.17-.115-.2h-3.08c-.086 0-.144.058-.144.115l-1.151 4.819zm6.906-4.877h3.051c.086 0 .172.086.172.172v10.464a.185.185 0 01-.172.172h-3.051c-.086 0-.173-.086-.173-.172V25.293c0-.085.087-.142.173-.142zm1.612-5.987c-1.439 0-2.101.998-2.101 1.91 0 1.427 1.036 2.083 2.101 2.083.979 0 1.928-.713 1.928-2.082a1.87 1.87 0 00-1.87-1.911h-.058zm9.959 10.094c-1.065-.256-1.842-.427-1.842-.998 0-.342.374-.684 1.065-.684a6.04 6.04 0 012.878.855c.086.058.172.029.23-.057l1.093-2.053a.175.175 0 00-.028-.2c-.806-.627-2.216-1.282-4.375-1.282-3.108 0-4.23 1.853-4.23 3.45 0 2.51 2.388 3.08 4.144 3.507 1.065.257 1.842.456 1.842 1.027 0 .2-.087.684-1.036.684-1.008 0-2.562-.57-3.454-1.198-.057-.057-.173-.028-.23.029l-1.382 1.91a.138.138 0 000 .2c.691.713 2.619 1.768 4.807 1.768 2.849 0 4.662-1.397 4.662-3.593-.029-2.395-2.418-2.965-4.144-3.365zm11.511 0c-1.065-.256-1.842-.427-1.842-.998 0-.342.375-.684 1.065-.684a6.034 6.034 0 012.878.855c.087.058.173.029.23-.057l1.094-2.053a.149.149 0 00-.058-.2c-.805-.627-2.216-1.282-4.374-1.282-3.108 0-4.231 1.853-4.231 3.45 0 2.51 2.389 3.08 4.116 3.507 1.065.257 1.842.456 1.842 1.027 0 .2-.087.684-1.036.684-1.008 0-2.562-.57-3.454-1.198-.057-.057-.172-.028-.23.029l-1.381 1.91a.136.136 0 000 .2c.69.713 2.618 1.768 4.806 1.768 2.849 0 4.662-1.397 4.662-3.593.029-2.395-2.36-2.965-4.087-3.365zm-94.569-3.194c-1.526-.713-2.85-1.311-2.85-2.623 0-.913.749-1.483 1.958-1.483a3.515 3.515 0 012.503.941.176.176 0 00.23 0l1.756-2.424c.058-.057.029-.17-.029-.228-1.122-1.055-2.82-1.654-4.806-1.654-3.597 0-5.468 2.424-5.468 4.82 0 3.222 2.533 4.42 4.576 5.417 1.468.713 2.734 1.312 2.734 2.48 0 .942-.72 1.54-1.842 1.54a5.196 5.196 0 01-3.655-1.596c-.057-.057-.172-.086-.23-.029l-.029.029-1.87 2.224c-.058.057-.058.114-.03.171.922 1.654 3.512 2.538 5.67 2.538 3.367 0 5.814-2.082 5.814-4.933.028-3.165-2.332-4.249-4.432-5.19zm12.748-1.225c-3.626 0-6.072 2.28-6.072 5.703 0 3.421 2.446 5.702 6.072 5.702s6.073-2.28 6.073-5.703c0-3.421-2.447-5.702-6.073-5.702zm0 8.297c-1.41 0-2.446-1.083-2.446-2.594 0-1.711 1.238-2.595 2.446-2.595 1.41 0 2.447 1.083 2.447 2.595 0 1.568-1.008 2.594-2.447 2.594zm8.578-10.009v12.632c0 .085.058.171.144.171h3.05c.087 0 .173-.086.173-.171v-7.357c0-.085.058-.17.144-.17h2.043c.087 0 .173-.086.173-.172v-2.766c0-.085-.086-.17-.172-.17h-2.044c-.086 0-.144-.058-.173-.172v-1.625c0-1.112.634-1.626 1.21-1.626.402 0 .776.086 1.122.228.086.029.172 0 .23-.057l.978-2.195c.03-.057 0-.143-.028-.2-.634-.513-1.814-.855-2.965-.855-2.446 0-3.885 1.654-3.885 4.505zm12.087 10.01c-.575 0-.92-.542-.92-1.426v-3.308c0-.085.057-.171.143-.171h2.821c.086 0 .172-.086.172-.171v-2.766c0-.086-.086-.171-.172-.171h-2.82c-.087 0-.173-.057-.173-.143v-2.794c0-.086-.087-.171-.173-.171h-3.05c-.087 0-.173.085-.173.17v9.696c0 2.965 1.065 4.362 3.31 4.362a5.743 5.743 0 003.453-1.055c.057-.056.086-.114.057-.2l-.863-2.195c-.029-.085-.115-.114-.201-.085 0 0-.029 0-.029.028-.374.257-.864.4-1.382.4zm11.885-7.044c-1.526-.713-2.878-1.312-2.878-2.624 0-.912.748-1.482 1.957-1.482a3.348 3.348 0 012.532.94.154.154 0 00.231-.028l1.755-2.424c.058-.057.029-.17-.029-.228-1.122-1.055-2.82-1.654-4.806-1.654-3.597 0-5.468 2.424-5.468 4.82 0 3.222 2.533 4.448 4.576 5.417 1.468.713 2.734 1.312 2.734 2.48 0 .942-.719 1.54-1.842 1.54-1.381-.028-2.705-.598-3.626-1.596-.058-.057-.173-.086-.23-.029l-.029.029-1.871 2.224c-.057.057-.057.114-.028.171.921 1.654 3.511 2.538 5.669 2.538 3.367 0 5.814-2.082 5.814-4.933 0-3.137-2.389-4.22-4.461-5.161z" fill="#40C3FF"/></svg>