<svg width="34" height="34" fill="none" xmlns="http://www.w3.org/2000/svg"><rect x="1" y="1" width="32" height="32" rx="5" stroke="#303944" stroke-width="2"/><path d="M27 10.894a8.654 8.654 0 01-2.363.638A4.026 4.026 0 0026.441 9.3a8.27 8.27 0 01-2.6.977A4.139 4.139 0 0020.846 9c-2.27 0-4.097 1.814-4.097 4.038 0 .32.027.628.095.92a11.666 11.666 0 01-8.452-4.222 4.017 4.017 0 00-.56 2.04c0 1.399.73 2.638 1.82 3.356a4.098 4.098 0 01-1.852-.498v.045c0 1.962 1.421 3.591 3.285 3.966a4.15 4.15 0 01-1.075.134c-.262 0-.527-.015-.776-.07a4.131 4.131 0 003.831 2.813 8.32 8.32 0 01-5.084 1.722A7.72 7.72 0 017 23.188 11.675 11.675 0 0013.29 25c7.545 0 11.67-6.154 11.67-11.488 0-.178-.006-.35-.015-.522A8.112 8.112 0 0027 10.894z" fill="#303944"/></svg>