<svg width="51" height="32" fill="none" xmlns="http://www.w3.org/2000/svg"><g clip-path="url(#clip0_348_2753)"><path d="M47.774.01L35.438.005h-.003l-.028.002c-1.695.051-3.805 1.41-4.19 3.087l-5.833 25.811c-.385 1.692.66 3.068 2.343 3.094h12.96c1.656-.082 3.266-1.426 3.643-3.083l5.834-25.812c.39-1.708-.68-3.096-2.39-3.096z" fill="#01798A"/><path d="M25.384 28.908l5.834-25.812C31.602 1.42 33.713.06 35.408.009L30.502.006 21.666.004c-1.699.035-3.837 1.403-4.221 3.092L11.61 28.908c-.386 1.691.661 3.068 2.342 3.093h13.776c-1.683-.025-2.728-1.402-2.344-3.093z" fill="#024381"/><path d="M11.61 28.907l5.835-25.812c.384-1.689 2.522-3.057 4.221-3.092L10.346 0c-1.708 0-3.9 1.384-4.29 3.095L.221 28.907a3.239 3.239 0 00-.067.462v.48c.114 1.232 1.056 2.13 2.41 2.15h11.388c-1.681-.024-2.728-1.4-2.342-3.092z" fill="#DD0228"/><path d="M21.905 18.812h.214c.197 0 .33-.066.392-.197l.556-.833h1.49l-.31.548h1.787l-.226.84H23.68c-.245.368-.547.541-.91.52h-1.107l.24-.878zm-.245 1.203h3.916l-.25.912h-1.575l-.24.88h1.533l-.25.913h-1.532l-.356 1.3c-.088.218.027.316.346.293H24.5l-.231.848h-2.398c-.454 0-.61-.26-.468-.781l.455-1.66h-.98l.25-.912h.98l.24-.88h-.937l.25-.913zm6.25-2.24l-.061.535s.738-.555 1.41-.555h2.478l-.948 3.432c-.079.392-.416.587-1.011.587h-2.81l-.658 2.41c-.038.13.016.196.157.196h.553l-.203.748h-1.405c-.54 0-.764-.163-.675-.489l1.86-6.863h1.313zm2.1.971h-2.213l-.265.926s.369-.266.985-.275c.614-.01 1.315 0 1.315 0l.178-.651zm-.802 2.148c.164.022.255-.042.266-.195l.136-.488h-2.216l-.186.683h2zm-1.495 1.109h1.278l-.024.553h.34c.172 0 .257-.055.257-.164l.1-.357h1.063l-.142.52c-.12.436-.438.662-.955.684h-.68l-.003.945c-.013.152.124.229.406.229h.64l-.207.748h-1.534c-.43.02-.641-.184-.637-.619l.098-2.539zm-15.478-8.8c-.174.85-.575 1.502-1.198 1.965-.618.455-1.414.683-2.389.683-.917 0-1.59-.233-2.019-.7-.297-.333-.445-.755-.445-1.265 0-.211.025-.438.075-.682l1.039-5.008h1.568l-1.024 4.951c-.03.124-.043.252-.042.38-.002.253.061.461.189.623.185.241.487.36.907.36.483 0 .88-.117 1.189-.355.309-.236.51-.572.6-1.008l1.028-4.952h1.561l-1.04 5.009zm6.588-1.97h1.228l-.962 4.47h-1.226l.96-4.47zm.386-1.628h1.24l-.232 1.085h-1.24l.232-1.085zm1.93 5.758c-.322-.307-.484-.721-.485-1.247a3.35 3.35 0 01.065-.63c.146-.726.456-1.303.934-1.728.477-.427 1.053-.641 1.727-.641.552 0 .99.154 1.31.463.32.31.481.73.481 1.262 0 .09-.007.196-.019.31-.013.112-.03.223-.05.334-.143.715-.453 1.285-.93 1.702-.479.42-1.053.63-1.722.63-.554 0-.99-.151-1.311-.455zm2.34-.885c.218-.235.373-.59.467-1.065a2.061 2.061 0 00.046-.44c0-.275-.07-.489-.211-.64-.14-.153-.34-.228-.597-.228-.34 0-.618.12-.835.359-.219.24-.374.601-.472 1.083a5.542 5.542 0 00-.034.22 1.61 1.61 0 00-.009.207c0 .274.07.485.211.635.14.15.339.223.6.223.341 0 .618-.118.835-.354z" fill="#fff"/><path d="M35.435.005L30.502.004l4.905.003.028-.002z" fill="#E02F41"/><path d="M30.502.005L21.734 0l-.068.003 8.836.002z" fill="#2E4F7D"/><path d="M33.142 18.849l.296-1.043h1.498l-.065.383s.766-.383 1.317-.383h1.852l-.294 1.043h-.292l-1.397 4.917h.292l-.277.977h-.292l-.121.423h-1.45l.12-.423h-2.861l.279-.977h.286l1.399-4.917h-.29zm1.616 0l-.381 1.33s.652-.25 1.214-.32c.124-.465.287-1.01.287-1.01h-1.12zm-.558 1.955l-.382 1.394s.723-.356 1.219-.386c.143-.539.286-1.008.286-1.008H34.2zm.28 2.962l.287-1.011H33.65l-.288 1.011h1.12zm3.623-6.024h1.408l.06.52c-.01.132.07.195.236.195h.25l-.253.88H38.77c-.395.02-.599-.13-.618-.457l-.049-1.138zm-.413 1.888h4.561l-.267.945h-1.452l-.25.88h1.452l-.27.943h-1.616l-.365.552h.79l.183 1.108c.022.11.12.163.287.163h.245l-.258.912h-.87c-.45.022-.683-.129-.702-.455l-.21-1.011-.719 1.076c-.17.304-.432.445-.784.423h-1.328l.258-.912h.414c.17 0 .312-.075.44-.228l1.126-1.628h-1.452l.27-.944h1.574l.25-.879h-1.576l.27-.945zm-24.01-8.399h1.107l-.126.646.159-.184a1.72 1.72 0 011.31-.575c.466 0 .802.135 1.014.407.208.273.264.65.166 1.133l-.61 3.046h-1.14l.552-2.761c.057-.285.04-.498-.047-.635-.086-.137-.252-.204-.49-.204-.293 0-.54.09-.74.272-.202.183-.335.436-.4.76l-.508 2.568h-1.142l.895-4.473zm12.705 0h1.11l-.127.646.158-.184c.36-.385.797-.575 1.31-.575.466 0 .803.135 1.013.407.206.273.266.65.165 1.133l-.608 3.046h-1.14l.551-2.761c.057-.285.041-.498-.046-.635-.09-.137-.252-.204-.49-.204-.292 0-.538.09-.741.272-.202.183-.336.436-.398.76l-.51 2.568h-1.14l.893-4.473zm5.481-2.772h3.22c.618 0 1.097.14 1.426.416.328.279.492.679.492 1.2v.016c0 .099-.007.21-.016.332a5.004 5.004 0 01-.063.367c-.142.69-.47 1.244-.98 1.665-.51.418-1.115.63-1.81.63h-1.727l-.534 2.619H30.38l1.487-7.245zm.805 3.366h1.432c.373 0 .669-.087.885-.258.214-.174.356-.438.434-.797.013-.067.02-.127.03-.182.005-.051.011-.104.011-.154 0-.257-.09-.443-.274-.56-.182-.117-.469-.174-.866-.174h-1.216l-.436 2.125zm11.023 4.744c-.472 1.004-.923 1.59-1.187 1.863-.265.269-.79.896-2.053.849l.11-.767c1.062-.328 1.637-1.804 1.965-2.457l-.39-4.813.821-.011h.69l.074 3.019 1.293-3.02h1.31l-2.633 5.337zm-3.66-4.973l-.52.358c-.543-.425-1.04-.688-1.997-.244-1.304.604-2.394 5.243 1.197 3.715l.205.243 1.413.036.928-4.215-1.226.107zm-.803 2.304c-.227.67-.734 1.112-1.131.986-.397-.122-.539-.768-.309-1.44.227-.67.738-1.111 1.131-.985.397.123.54.768.309 1.44z" fill="#fff"/></g><defs><clipPath id="clip0_348_2753"><path fill="#fff" transform="translate(.152)" d="M0 0h50.094v32H0z"/></clipPath></defs></svg>