<svg width="148" height="38" fill="none" xmlns="http://www.w3.org/2000/svg"><path d="M129.293.761c3.054-.132 5.907.661 8.592 2.015.704.363.704.628.1 1.09-1.174.958-1.141.958-2.248-.132-1.477-1.453-1.477-1.453-2.987-.132a114.48 114.48 0 00-2.215 1.915c-.403.364-.738.397-1.108-.066-.503-.594-1.107-1.156-1.644-1.75-.269-.297-.47-.363-.805-.066a608.963 608.963 0 01-6.914 6.11c-.503.43-.369.76 0 1.189 1.309 1.387 2.584 2.84 3.927 4.228.503.528.537.825-.034 1.32-1.275 1.124-1.275 1.157-.168 2.445a114.65 114.65 0 003.323 3.699c.47.495.402.825-.101 1.189l-.067.066c-1.275 1.156-1.275 1.156-.067 2.477 1.779 1.949 3.557 3.864 5.302 5.846.403.462.705.495 1.141.066 1.041-.958 2.115-1.883 3.155-2.874.436-.396.705-.396 1.074.034l2.819 3.17c.403.43.403.727-.134 1.123-7.719 5.68-18.995 4.426-25.17-2.94-4.632-5.515-5.806-11.79-3.121-18.462 2.684-6.704 7.886-10.47 15.102-11.56.134-.033.235-.033.369-.033.671.033 1.275.033 1.879.033zM8.61 16.384c-.57 2.146-1.175 4.293-1.745 6.44-.202.693-.37 1.42-.57 2.114-.37 1.387-.94 1.684-2.384 1.387-.402-.1-.503-.363-.604-.694L.187 12.156c-.135-.595.1-.793.67-.826 1.578-.099 1.678-.066 2.014 1.453.604 2.709 1.175 5.45 1.745 8.158.067.265.134.562.37.859.1-.297.2-.562.268-.859.705-2.84 1.443-5.68 2.114-8.554.168-.726.47-1.123 1.309-1.123.772 0 1.074.33 1.275 1.024.739 2.94 1.544 5.846 2.316 8.752.067.265.168.562.403.826l1.006-5.053c.302-1.52.604-3.039.907-4.591.067-.363.067-.826.57-.892.671-.099 1.376-.231 2.014.1.335.164.1.594.033.891-.872 3.732-1.711 7.497-2.584 11.23l-.302 1.288c-.336 1.42-.336 1.387-1.812 1.42-.739 0-1.04-.265-1.208-.958-.806-3.006-1.645-5.978-2.484-8.984-.067.1-.134.067-.201.067zm43.595-.264c-1.276 3.137-2.55 6.275-3.759 9.412-.302.727-.772.892-1.443.793-.57-.099-.638-.595-.805-.958a882.246 882.246 0 01-3.457-8.389c-.1-.231-.202-.462-.336-.793-.235.298-.134.562-.134.793 0 2.774-.034 5.582 0 8.356 0 .76-.201 1.057-1.007 1.057-.772 0-1.04-.231-1.04-1.024.033-4.326.033-8.686 0-13.013 0-.726.268-.957 1.007-.99 1.678 0 1.678-.034 2.315 1.519 1.242 3.005 2.45 6.044 3.692 9.05.1.264.235.528.436.99.671-1.75 1.31-3.336 1.913-4.888a400.97 400.97 0 012.249-5.747c.302-.792 2.181-1.288 2.886-.76.235.199.235.463.235.727v13.277c0 .595-.269.86-.873.826h-.436c-1.175 0-1.208-.033-1.208-1.156v-9.05c-.134-.033-.168-.033-.235-.033zM28.78 18.167v-6.506c0-.66 1.578-1.52 2.182-1.19.302.166.201.463.201.727 0 1.42.034 2.808 0 4.228 0 .528.101.793.705.528.47-.198 1.007-.363 1.544-.396 2.853-.198 4.43 1.321 4.699 4.492.067.958-.034 1.883-.235 2.807-.672 2.84-2.92 4.162-6.142 3.633-2.819-.462-2.92-.594-2.92-3.368-.033-1.652-.033-3.303-.033-4.955zm2.383 3.138v2.642c0 .33 0 .628.37.826 1.41.694 3.255 0 3.758-1.486.403-1.156.403-2.345.269-3.567-.235-2.18-1.98-3.039-3.927-1.982-.369.198-.503.462-.503.859.034.891.034 1.783.034 2.708zm25.841-.298c-.034-.66.067-1.288.235-1.915.604-2.345 2.316-3.567 4.866-3.567 2.316.033 3.96 1.354 4.497 3.633.37 1.585.302 3.137-.302 4.657-.738 1.783-2.35 2.774-4.463 2.741-2.148-.033-3.658-1.057-4.363-2.906a6.374 6.374 0 01-.47-2.643zm7.35.1c.067-.892-.034-1.751-.437-2.577-.369-.792-1.006-1.288-1.946-1.32-.94-.034-1.611.429-1.98 1.221-.84 1.718-.772 3.468-.1 5.186.368.891 1.107 1.32 2.113 1.288 1.007-.033 1.578-.562 1.98-1.388.336-.792.403-1.585.37-2.41zm20.841.463H82.51c-.537 0-.738.164-.671.726.269 2.08 1.88 3.072 4.229 2.477.537-.132 1.073-.363 1.577-.595.57-.297.705-.066.738.463.034.727-.235 1.156-.906 1.387a8.314 8.314 0 01-4.396.396c-1.813-.33-2.886-1.453-3.356-3.137-.47-1.652-.437-3.303.168-4.921.771-2.048 2.584-3.039 5.1-2.84 1.847.131 3.122 1.452 3.525 3.533.47 2.477.436 2.51-2.081 2.51h-1.242zm-1.04-1.62h1.678c.436 0 .537-.197.503-.594-.067-1.057-.873-2.047-1.745-2.18-1.242-.164-2.08.397-2.517 1.685-.302.859-.168 1.057.738 1.057.47.033.906.033 1.343.033zm-60.543 1.62h-2.685c-.57 0-.705.263-.638.792.269 2.048 1.88 3.005 4.195 2.444.437-.1.84-.33 1.276-.43.335-.066.738-.726 1.006-.066.202.529.303 1.256-.47 1.586a7.804 7.804 0 01-3.456.693c-2.953-.099-4.53-1.552-4.866-4.524-.134-1.024-.034-2.048.235-3.039.738-2.61 3.12-3.996 5.806-3.336 1.879.463 2.819 1.784 3.02 3.534.268 2.543.705 2.411-2.014 2.411-.537-.066-.973-.066-1.41-.066zm-.973-4.394c-1.175 0-2.316 1.223-2.249 2.378.034.33.168.397.436.397h3.457c.37 0 .503-.198.537-.562.034-1.156-1.04-2.246-2.181-2.213zm71.751 6.012c.672-2.114 1.343-4.261 2.014-6.375.269-.825 1.645-1.32 2.383-.891.403.264.134.594.034.858a466.287 466.287 0 01-2.685 7.266c-.537 1.487-1.007 3.006-1.812 4.393-.671 1.156-1.578 1.982-2.953 2.213-.37.066-.94.198-1.007-.396-.067-.529-.336-1.223.537-1.454.906-.23 1.443-.891 1.879-1.651.302-.529.336-1.024.1-1.585a899.843 899.843 0 01-3.355-8.522c-.47-1.155-.403-1.155.872-1.222.94-.066 1.376.298 1.645 1.156.637 2.081 1.41 4.096 2.147 6.143.068.067.135.067.202.067zm-25.74-1.619c0-1.222.033-2.477 0-3.7 0-.56.167-.924.704-1.188 1.779-.925 3.692-1.288 5.705-1.123 1.578.132 2.55 1.057 2.584 2.61.067 2.443 0 4.92.034 7.364 0 .892-.57.793-1.141.793-.57 0-1.242.132-1.242-.793.034-2.047 0-4.095 0-6.143 0-1.717-.772-2.312-2.517-1.948-1.644.33-1.745.429-1.745 2.047v5.714c0 1.09-.034 1.123-1.175 1.123-1.14 0-1.208-.033-1.208-1.09-.033-1.222 0-2.444 0-3.666z" fill="#303944"/><path d="M126.776 14.765c-.302-.066-.47-.264-.604-.43-1.04-1.122-2.047-2.278-3.087-3.4-.336-.364-.336-.629.033-.959a140.9 140.9 0 003.356-3.005c.436-.397.806-.496 1.275.033 1.007 1.156 2.048 2.279 3.088 3.402.268.297.369.561 0 .891-1.208 1.057-2.383 2.114-3.591 3.171-.134.132-.336.231-.47.297zm7.484 3.534c-.134.165-.235.33-.402.462-1.175 1.057-2.35 2.081-3.491 3.105-.369.33-.637.33-.939-.033-1.041-1.156-2.081-2.312-3.155-3.468-.369-.396-.335-.66.034-1.024 1.208-1.057 2.382-2.114 3.591-3.17.201-.199.436-.33.704-.067 1.175 1.289 2.35 2.544 3.524 3.832.034.099.067.23.134.363zm-1.141 11.329c-.302.033-.403-.165-.537-.297-1.074-1.19-2.148-2.345-3.222-3.534-.302-.33-.335-.562.034-.892a166.528 166.528 0 003.624-3.237c.369-.33.604-.23.906.1 1.074 1.188 2.148 2.344 3.222 3.5.269.265.369.529.034.826l-3.793 3.336c-.1.099-.201.132-.268.198zm6.611-4.658a.544.544 0 01-.47-.23c-.771-.86-1.51-1.718-2.315-2.544-.302-.33-.269-.594.067-.891a75.97 75.97 0 002.45-2.147c.369-.363.637-.297.973.033.738.826 1.51 1.651 2.282 2.477.202.198.336.43.067.694-.939.858-1.879 1.684-2.819 2.543a.63.63 0 01-.235.066zm2.819 6.573c-.134-.099-.302-.165-.403-.297-.772-.825-1.476-1.684-2.248-2.477-.302-.33-.302-.594.033-.892.806-.726 1.645-1.453 2.45-2.18.369-.33.671-.297.973.067.739.825 1.511 1.65 2.283 2.477.201.198.335.462.067.693-.94.859-1.913 1.685-2.853 2.51l-.302.1zm-5.47-22.888c0 .231-.134.33-.269.463-.839.726-1.678 1.486-2.517 2.245-.335.298-.604.298-.906-.032a83.166 83.166 0 00-2.349-2.51c-.268-.265-.235-.496.034-.76a88.363 88.363 0 012.651-2.345c.201-.198.47-.297.705-.066l2.55 2.807c.034.033.067.132.101.198zm.033 3.336c.302.033.403.198.537.363.705.793 1.409 1.586 2.148 2.345.302.33.436.595.033.958-.839.727-1.711 1.453-2.517 2.213-.335.297-.57.297-.872-.033-.739-.826-1.511-1.651-2.282-2.477-.235-.231-.336-.495-.068-.76.907-.825 1.846-1.651 2.752-2.477.101-.066.202-.099.269-.132zm10.739 7.894c-.067.33-.336.528-.537.727-1.678 1.486-1.645 1.453-3.121-.198-.47-.562-.504-.86.067-1.355 1.678-1.454 1.644-1.454 3.121.165.201.198.436.397.47.66zm-5.57-12.815c-.135.165-.202.298-.336.43-.336.33-.705.627-1.04.958-.571.594-.974.594-1.544-.066-1.376-1.553-1.41-1.487.134-2.94.571-.562 1.007-.595 1.51.066.302.396.671.726 1.007 1.123.101.099.168.264.269.43zm.838 4.327c.369.099.537.43.805.694 1.343 1.387 1.343 1.387-.033 2.676-.94.858-.94.858-1.846-.067-1.343-1.42-1.343-1.42.134-2.642.269-.265.537-.595.94-.661z" fill="#303944"/></svg>