<svg width="146" height="30" fill="none" xmlns="http://www.w3.org/2000/svg"><path d="M32.107.358h4.527v4.566h-4.527V.358zm0 8.051v20.67h4.527V8.41h-4.527zM.315 8.3h4.822l4.026 15.515h.08l3.864-15.514h4.584l3.707 15.514h.08l4.184-15.514h4.624l-6.458 20.778h-4.663L15.34 13.646h-.08l-3.786 15.433H6.692L.315 8.301zm38.824 0h4.264v4.02h.08c.518-2.212 3.228-4.582 6.019-4.582 1.035 0 1.314.08 1.712.12v4.421c-.637-.08-1.314-.2-1.952-.2-3.11 0-5.58 2.532-5.58 7.113v9.887h-4.543V8.3zm26.271 8.562c-.16-2.895-2.113-5.506-5.182-5.506-3.15 0-5.3 2.41-5.42 5.506H65.41zm-10.601 3.013c0 3.256 1.754 6.15 5.54 6.15 2.63 0 4.224-1.165 5.021-3.457h4.304c-.996 4.542-4.822 7.073-9.326 7.073-6.456 0-10.083-4.54-10.083-10.93 0-5.909 3.826-10.973 9.963-10.973 6.497 0 10.482 5.907 9.725 12.137H54.81zm31.326-4.622c-.359-2.532-2.192-3.897-4.704-3.897-2.351 0-5.66 1.244-5.66 7.555 0 3.456 1.516 7.114 5.46 7.114 2.631 0 4.465-1.77 4.904-4.743h4.542c-.836 5.386-4.145 8.36-9.446 8.36-6.456 0-10.003-4.622-10.003-10.731 0-6.27 3.388-11.173 10.164-11.173 4.782 0 8.847 2.41 9.285 7.515h-4.542zm19.767 3.417c-1.394.925-3.586.884-5.58 1.246-1.952.32-3.706 1.044-3.706 3.457 0 2.05 2.591 2.652 4.185 2.652 1.992 0 5.101-1.044 5.101-3.938V18.67zm4.543 5.79c0 1.123.241 1.566 1.077 1.566.278 0 .637 0 1.116-.081v3.175c-.678.241-2.112.522-2.87.522-1.833 0-3.148-.642-3.506-2.532-1.795 1.769-4.704 2.532-7.136 2.532-3.706 0-7.053-2.009-7.053-6.07 0-5.183 4.105-6.026 7.931-6.47 3.267-.602 6.177-.24 6.177-2.933 0-2.372-2.431-2.813-4.264-2.813-2.551 0-4.345 1.045-4.544 3.296h-4.542c.317-5.346 4.82-6.914 9.365-6.914 4.025 0 8.249 1.647 8.249 6.03v10.691zm3.707-16.16h4.264v4.02h.08c.519-2.212 3.229-4.582 6.02-4.582 1.035 0 1.314.08 1.712.12v4.421c-.637-.08-1.315-.2-1.952-.2-3.109 0-5.58 2.532-5.58 7.113v9.887h-4.544V8.3zm21.37 17.726c4.065 0 5.778-3.738 5.778-7.356 0-4.582-2.191-7.314-5.698-7.314-4.264 0-5.779 3.818-5.779 7.556 0 3.576 1.753 7.114 5.699 7.114zm10.163 3.053h-4.304v-2.813h-.081c-1.194 2.372-3.786 3.376-6.376 3.376-6.496 0-9.645-4.864-9.645-11.092 0-7.516 4.425-10.812 8.928-10.812 2.59 0 5.46.965 6.855 3.255h.079V.383h4.544v28.696z" fill="#303944"/></svg>